{
.appVersion = "3151";
.formatVersion = 3;
axes = (
{
name = Weight;
tag = wght;
},
{
name = "Optical size";
tag = opsz;
}
);
date = "2023-05-23 19:57:40 +0000";
familyName = "General Gothic";
featurePrefixes = (
{
automatic = 1;
code = "languagesystem DFLT dflt;
";
name = Languagesystems;
}
);
features = (
{
automatic = 1;
code = "feature ss01;
feature ss02;
";
tag = aalt;
},
{
automatic = 1;
code = "sub a by a.ss01;
sub g by g.ss01;
";
tag = ss01;
},
{
automatic = 1;
code = "sub Q by Q.ss02;
";
tag = ss02;
}
);
fontMaster = (
{
axesValues = (
237,
10
);
customParameters = (
{
name = unitizerUnit;
value = "11";
}
);
id = "91CAC535-5FDC-455D-97CC-19853562EC83";
metricValues = (
{
over = 12;
pos = 784;
},
{
over = 12;
pos = 768;
},
{
over = 12;
pos = 552;
},
{
over = -12;
},
{
over = -12;
pos = -216;
}
);
name = Lightline;
stemValues = (
44,
40
);
userData = {
de.kutilek.MasterGrid.type = units;
de.kutilek.MasterGrid.value = (
1000,
12
);
};
},
{
axesValues = (
387,
10
);
customParameters = (
{
name = unitizerUnit;
value = "12";
}
);
id = "FF3CDF8C-30AF-45D8-A678-B4DEB13CF6DF";
metricValues = (
{
over = 12;
pos = 784;
},
{
over = 12;
pos = 768;
},
{
over = 12;
pos = 552;
},
{
over = -12;
},
{
over = -12;
pos = -216;
}
);
name = News;
stemValues = (
84,
72
);
userData = {
de.kutilek.MasterGrid.type = units;
de.kutilek.MasterGrid.value = (
1000,
12
);
};
},
{
axesValues = (
800,
10
);
customParameters = (
{
name = unitizerUnit;
value = "12";
}
);
id = m002;
metricValues = (
{
over = 12;
pos = 784;
},
{
over = 12;
pos = 768;
},
{
over = 12;
pos = 552;
},
{
over = -12;
},
{
over = -12;
pos = -216;
}
);
name = Franklin;
stemValues = (
216,
168
);
userData = {
de.kutilek.MasterGrid.type = units;
de.kutilek.MasterGrid.value = (
1000,
12
);
};
},
{
axesValues = (
237,
6
);
customParameters = (
{
name = unitizerUnit;
value = "11";
}
);
id = m004;
metricValues = (
{
over = 12;
pos = 784;
},
{
over = 12;
pos = 768;
},
{
over = 12;
pos = 552;
},
{
over = -12;
},
{
over = -12;

glyphs = (
{
glyphname = A;
lastChange = "2023-07-29 11:00:45 +0000";
layers = (
{
layerId = m002;
shapes = (
{
closed = 1;
nodes = (
(204,0,l),
(421,768,l),
(264,768,l),
(24,0,l)
);
},
{
closed = 1;
nodes = (
(493,156,l),
(493,312,l),
(228,312,l),
(228,156,l)
);
},
{
closed = 1;
nodes = (
(733,0,l),
(487,768,l),
(295,768,l),
(517,0,l)
);
}
);
width = 757;
},
{
layerId = "FF3CDF8C-30AF-45D8-A678-B4DEB13CF6DF";
shapes = (
{
closed = 1;
nodes = (
(101,0,l),
(317,768,l),
(242,768,l),
(21,0,l)
);
},
{
closed = 1;
nodes = (
(429,240,l),
(429,312,l),
(153,312,l),
(153,240,l)
);
},
{
closed = 1;
nodes = (
(573,0,l),
(357,768,l),
(280,768,l),
(482,0,l)
);
}
);
width = 594;
},
{
layerId = "91CAC535-5FDC-455D-97CC-19853562EC83";
shapes = (
{
closed = 1;
nodes = (
(92,0,l),
(320,768,l),
(276,768,l),
(44,0,l)
);
},
{
closed = 1;
nodes = (
(456,254,l),
(456,294,l),
(160,294,l),
(160,254,l)
);
},
{
closed = 1;
nodes = (
(572,0,l),
(345,768,l),
(301,768,l),
(524,0,l)
);
}
);
width = 616;
},
{
layerId = m004;
shapes = (
{
closed = 1;
nodes = (
(104,0,l),
(379,768,l),
(334,768,l),
(55,0,l)
);
},
{
closed = 1;
nodes = (
(547,258,l),
(547,300,l),
(189,300,l),
(189,258,l)
);
},
{
closed = 1;
nodes = (
(678,0,l),
(406,768,l),
(363,768,l),
(632,0,l)
);
}
);
width = 733;
},
{
layerId = m005;
shapes = (
{
closed = 1;
nodes = (
(119,0,l),
(384,768,l),
(308,768,l),
(37,0,l)
);
},
{
closed = 1;
nodes = (
(530,229,l),
(530,302,l),
(189,302,l),
(189,229,l)
);
},
{
closed = 1;
nodes = (
(691,0,l),
(425,768,l),
(347,768,l),
(601,0,l)
);
}
);
width = 728;
},
{
layerId = m006;
shapes = (
{
closed = 1;
nodes = (
(214,0,l),
(477,768,l),
(318,768,l),
(33,0,l)
);
},
{
closed = 1;
nodes = (
(580,154,l),
(580,312,l),
(254,312,l),
(254,154,l)
);
},
{
closed = 1;
nodes = (
(834,0,l),
(545,768,l),
(354,768,l),
(620,0,l)
);
}
);
width = 867;
}
);
unicode = 65;
},
{
glyphname = B;
lastChange = "2023-07-29 11:00:45 +0000";
layers = (
{
layerId = m002;
shapes = (
{
closed = 1;
nodes = (
(384,0,ls),
(624,0,o),
(708,60,o),
(708,216,cs),
(708,348,o),
(612,408,o),
(384,408,cs),
(216,408,l),
(216,312,l),
(384,312,ls),
(452,312,o),
(492,281,o),
(492,228,cs),
(492,176,o),
(452,144,o),
(384,144,cs),
(216,144,l),
(264,96,l),
(264,672,l),
(216,624,l),
(384,624,ls),
(435,624,o),
(473,589,o),
(473,544,cs),
(473,500,o),
(436,468,o),
(383,468,cs),
(240,468,l),
(240,372,l),
(384,372,ls),
(524,372,o),
(696,418,o),
(696,571,cs),
(696,722,o),
(524,768,o),
(384,768,cs),
(48,768,l),
(48,0,l)
);
}
);
width = 744;
},
{
layerId = "FF3CDF8C-30AF-45D8-A678-B4DEB13CF6DF";
shapes = (
{
closed = 1;
nodes = (
(274,0,ls),
(458,0,o),
(538,65,o),
(538,216,cs),
(538,346,o),
(453,413,o),
(286,413,cs),
(82,413,l),
(82,365,l),
(263,365,ls),
(384,365,o),
(454,313,o),
(454,218,cs),
(454,117,o),
(407,72,o),
(298,72,cs),
(82,72,l),
(130,24,l),
(130,744,l),
(82,696,l),
(310,696,ls),
(389,696,o),
(435,648,o),
(435,567,cs),
(435,490,o),
(380,437,o),
(298,437,cs),
(106,437,l),
(106,389,l),
(275,389,ls),
(406,389,o),
(519,439,o),
(519,583,cs),
(519,699,o),
(437,768,o),
(286,768,cs),
(46,768,l),
(46,0,l)
);
}
);
width = 572;
},
{
layerId = "91CAC535-5FDC-455D-97CC-19853562EC83";
shapes = (
{
closed = 1;
nodes = (
(312,0,ls),
(470,0,o),
(539,65,o),
(539,216,cs),
(539,345,o),
(450,409,o),
(277,409,cs),
(79,409,l),
(79,383,l),
(259,383,ls),
(407,383,o),
(495,320,o),
(495,211,cs),
(495,91,o),
(436,40,o),
(302,40,cs),
(86,40,l),
(110,20,l),
(110,753,l),
(86,728,l),
(319,728,ls),
(423,728,o),
(484,672,o),
(484,576,cs),
(484,485,o),
(403,423,o),
(284,423,cs),
(96,423,l),
(96,397,l),
(301,397,ls),
(444,397,o),
(528,468,o),
(528,588,cs),
(528,701,o),
(450,768,o),
(319,768,cs),
(66,768,l),
(66,0,l)
);
}
);
width = 594;
},
{
layerId = m004;
shapes = (
{
closed = 1;
nodes = (
(373,0,ls),
(557,0,o),
(638,66,o),
(638,216,cs),
(638,345,o),
(532,411,o),
(326,411,cs),
(88,411,l),
(88,382,l),
(304,382,ls),
(487,382,o),
(597,321,o),
(597,212,cs),
(597,94,o),
(524,44,o),
(358,44,cs),
(97,44,l),
(123,14,l),
(123,757,l),
(97,724,l),
(380,724,ls),
(509,724,o),
(584,669,o),
(584,575,cs),
(584,486,o),
(483,425,o),
(335,425,cs),
(107,425,l),
(107,396,l),
(359,396,ls),
(531,396,o),
(626,460,o),
(626,587,cs),
(626,698,o),
(536,768,o),
(382,768,cs),
(81,768,l),
(81,0,l)
);
}
);
width = 706;
},
{
layerId = m005;
shapes = (
{
closed = 1;
nodes = (
(350,0,ls),
(559,0,o),
(649,64,o),
(649,216,cs),
(649,346,o),
(545,410,o),
(340,410,cs),
(99,410,l),
(99,363,l),
(316,363,ls),
(474,363,o),
(566,309,o),
(566,216,cs),
(566,116,o),
(504,70,o),
(361,70,cs),
(103,70,l),
(148,38,l),
(148,733,l),
(103,698,l),
(378,698,ls),
(485,698,o),
(547,648,o),
(547,567,cs),
(547,489,o),
(468,436,o),
(352,436,cs),
(125,436,l),
(125,390,l),
(345,390,ls),
(509,390,o),
(631,451,o),
(631,583,cs),
(631,705,o),
(533,768,o),
(362,768,cs),
(65,768,l),
(65,0,l)
);
}
);
width = 701;
},
{
layerId = m006;
shapes = (
{
closed = 1;
nodes = (
(439,0,ls),
(705,0,o),
(803,60,o),
(803,216,cs),
(803,348,o),
(690,408,o),
(432,408,cs),
(221,408,l),
(221,311,l),
(426,311,ls),
(530,311,o),
(590,280,o),
(590,228,cs),
(590,178,o),
(537,146,o),
(438,146,cs),
(223,146,l),
(275,98,l),
(275,670,l),
(223,622,l),
(443,622,ls),
(518,622,o),
(569,587,o),
(569,543,cs),
(569,500,o),
(512,469,o),
(433,469,cs),
(249,469,l),
(249,372,l),
(437,372,ls),
(605,372,o),
(788,418,o),
(788,571,cs),
(788,722,o),
(609,768,o),
(441,768,cs),
(62,768,l),
(62,0,l)
);
}
);
width = 850;
}
);
unicode = 66;
},
{
glyphname = C;
kernLeft = u_r_r;
lastChange = "2023-07-29 11:00:45 +0000";
layers = (
{
layerId = m002;
shapes = (
{
closed = 1;
nodes = (
(479,-12,o),
(661,48,o),
(697,250,c),
(538,284,l),
(509,190,o),
(466,148,o),
(397,148,cs),
(305,148,o),
(264,219,o),
(264,384,c),
(263,551,o),
(299,624,o),
(385,624,cs),
(447,624,o),
(495,568,o),
(493,497,c),
(690,509,l),
(667,680,o),
(554,780,o),
(385,780,cs),
(177,780,o),
(36,620,o),
(36,384,cs),
(38,148,o),
(176,-12,o),
(379,-12,cs)
);
}
);
width = 733;
},
{
layerId = "FF3CDF8C-30AF-45D8-A678-B4DEB13CF6DF";
shapes = (
{
closed = 1;
nodes = (
(408,-12,o),
(516,20,o),
(561,221,c),
(489,240,l),
(455,111,o),
(402,55,o),
(309,55,cs),
(181,55,o),
(117,165,o),
(117,383,c),
(116,603,o),
(180,715,o),
(309,715,cs),
(394,715,o),
(468,636,o),
(477,533,c),
(552,552,l),
(516,711,o),
(433,780,o),
(309,780,cs),
(139,780,o),
(33,633,o),
(33,384,cs),
(34,135,o),
(143,-12,o),
(309,-12,cs)
);
}
);
width = 594;
},
{
layerId = "91CAC535-5FDC-455D-97CC-19853562EC83";
shapes = (
{
closed = 1;
nodes = (
(439,-12,o),
(531,79,o),
(561,233,c),
(517,245,l),
(496,109,o),
(411,28,o),
(330,28,cs),
(188,28,o),
(99,149,o),
(99,383,c),
(98,607,o),
(184,740,o),
(330,740,cs),
(425,740,o),
(497,654,o),
(508,528,c),
(556,540,l),
(520,699,o),
(444,780,o),
(330,780,cs),
(157,780,o),
(55,633,o),
(55,384,cs),
(56,135,o),
(158,-12,o),
(330,-12,cs)
);
}
);
width = 616;
},
{
layerId = m004;
shapes = (
{
closed = 1;
nodes = (
(530,-12,o),
(632,58,o),
(666,226,c),
(621,239,l),
(597,102,o),
(491,28,o),
(394,28,cs),
(220,28,o),
(109,149,o),
(109,383,c),
(108,610,o),
(214,741,o),
(394,741,cs),
(510,741,o),
(598,656,o),
(612,534,c),
(661,549,l),
(616,710,o),
(525,780,o),
(394,780,cs),
(188,780,o),
(68,634,o),
(68,384,cs),
(68,134,o),
(189,-12,o),
(395,-12,cs)
);
}
);
width = 734;
},
{
layerId = m005;
shapes = (
{
closed = 1;
nodes = (
(507,-12,o),
(630,60,o),
(676,234,c),
(602,253,l),
(567,124,o),
(485,61,o),
(384,61,cs),
(224,61,o),
(135,168,o),
(135,383,c),
(134,593,o),
(221,708,o),
(383,708,cs),
(489,708,o),
(577,632,o),
(589,522,c),
(668,535,l),
(625,697,o),
(528,780,o),
(383,780,cs),
(177,780,o),
(51,630,o),
(51,384,cs),
(51,138,o),
(180,-12,o),
(383,-12,cs)
);
}
);
width = 727;
},
{
layerId = m006;
shapes = (
{
closed = 1;
nodes = (
(563,-12,o),
(756,49,o),
(798,251,c),
(638,285,l),
(604,189,o),
(540,150,o),
(456,150,cs),
(333,150,o),
(271,220,o),
(271,384,c),
(270,550,o),
(326,622,o),
(445,622,cs),
(529,622,o),
(593,566,o),
(594,496,c),
(790,508,l),
(759,678,o),
(635,780,o),
(445,780,cs),
(206,780,o),
(47,620,o),
(47,384,cs),
(47,149,o),
(205,-12,o),
(440,-12,cs)
);
}
);
width = 845;
}
);
unicode = 67;
},
{
glyphname = D;
lastChange = "2023-07-29 11:00:45 +0000";
layers = (
{
layerId = m002;
shapes = (
{
closed = 1;
nodes = (
(288,0,ls),
(566,0,o),
(708,130,o),
(708,384,cs),
(708,639,o),
(566,768,o),
(288,768,c),
(48,768,l),
(48,0,l)
);
},
{
closed = 1;
nodes = (
(264,612,l),
(288,612,ls),
(430,612,o),
(492,543,o),
(492,384,cs),
(491,225,o),
(429,156,o),
(287,156,c),
(264,156,l)
);
}
);
width = 744;
},
{
hints = (
{
origin = (0,7);
target = (1,0);
type = Stem;
},
{
horizontal = 1;
origin = (0,7);
target = down;
type = TopGhost;
},
{
horizontal = 1;
origin = (0,8);
target = up;
type = BottomGhost;
}
);
layerId = "FF3CDF8C-30AF-45D8-A678-B4DEB13CF6DF";
shapes = (
{
closed = 1;
nodes = (
(248,0,ls),
(453,0,o),
(573,143,o),
(573,384,cs),
(573,625,o),
(453,768,o),
(248,768,c),
(44,768,l),
(44,0,l)
);
},
{
closed = 1;
nodes = (
(128,696,l),
(248,696,ls),
(408,696,o),
(489,591,o),
(489,384,cs),
(486,177,o),
(405,72,o),
(246,72,c),
(128,72,l)
);
}
);
width = 605;
},
{
hints = (
{
origin = (0,7);
target = (1,0);
type = Stem;
},
{
horizontal = 1;
origin = (0,7);
target = down;
type = TopGhost;
},
{
horizontal = 1;
origin = (0,8);
target = up;
type = BottomGhost;
}
);
layerId = "91CAC535-5FDC-455D-97CC-19853562EC83";
shapes = (
{
closed = 1;
nodes = (
(236,0,ls),
(441,0,o),
(561,143,o),
(561,384,cs),
(561,625,o),
(441,768,o),
(236,768,c),
(66,768,l),
(66,0,l)
);
},
{
closed = 1;
nodes = (
(110,728,l),
(246,728,ls),
(416,728,o),
(517,600,o),
(517,384,cs),
(517,168,o),
(415,40,o),
(243,40,c),
(110,40,l)
);
}
);
width = 616;
},
{
hints = (
{
origin = (0,7);
target = (1,0);
type = Stem;
},
{
horizontal = 1;
origin = (0,7);
target = down;
type = TopGhost;
},
{
horizontal = 1;
origin = (0,8);
target = up;
type = BottomGhost;
}
);
layerId = m004;
shapes = (
{
closed = 1;
nodes = (
(280,0,ls),
(523,0,o),
(666,144,o),
(666,384,cs),
(666,624,o),
(523,768,o),
(280,768,c),
(82,768,l),
(82,0,l)
);
},
{
closed = 1;
nodes = (
(124,725,l),
(293,725,ls),
(499,725,o),
(624,602,o),
(624,384,cs),
(624,166,o),
(499,43,o),
(290,43,c),
(124,43,l)
);
}
);
width = 735;
},
{
hints = (
{
origin = (0,7);
target = (1,0);
type = Stem;
},
{
horizontal = 1;
origin = (0,7);
target = down;
type = TopGhost;
},
{
horizontal = 1;
origin = (0,8);
target = up;
type = BottomGhost;
}
);
layerId = m005;
shapes = (
{
closed = 1;
nodes = (
(292,0,ls),
(540,0,o),
(684,140,o),
(684,384,cs),
(684,628,o),
(540,768,o),
(292,768,c),
(64,768,l),
(64,0,l)
);
},
{
closed = 1;
nodes = (
(147,695,l),
(297,695,ls),
(494,695,o),
(601,585,o),
(601,384,cs),
(601,183,o),
(491,73,o),
(294,73,c),
(147,73,l)
);
}
);
width = 734;
},
{
layerId = m006;
shapes = (
{
closed = 1;
nodes = (
(332,0,ls),
(645,0,o),
(810,130,o),
(810,384,cs),
(810,639,o),
(646,768,o),
(332,768,c),
(62,768,l),
(62,0,l)
);
},
{
closed = 1;
nodes = (
(275,610,l),
(334,610,ls),
(512,610,o),
(596,542,o),
(596,384,cs),
(596,226,o),
(510,158,o),
(333,158,c),
(275,158,l)
);
}
);
width = 857;
}
);
unicode = 68;
},
{
glyphname = E;
lastChange = "2023-07-29 11:00:45 +0000";
layers = (
{
hints = (
{
horizontal = 1;
origin = (1,6);
target = (1,7);
type = Stem;
},
{
horizontal = 1;
origin = (0,1);
target = (0,2);
type = Stem;
},
{
horizontal = 1;
origin = (1,3);
target = (1,2);
type = Stem;
},
{
origin = (1,4);
target = (1,0);
type = Stem;
}
);
layerId = m002;
shapes = (
{
closed = 1;
nodes = (
(233,305,l),
(485,305,l),
(485,473,l),
(233,473,l)
);
},
{
closed = 1;
nodes = (
(264,648,l),
(216,600,l),
(612,600,l),
(612,768,l),
(48,768,l),
(48,0,l),
(624,0,l),
(624,168,l),
(216,168,l),
(264,120,l)
);
}
);
width = 672;
},
{
hints = (
{
origin = (1,4);
target = (1,0);
type = Stem;
},
{
horizontal = 1;
origin = (1,3);
target = (1,2);
type = Stem;
},
{
horizontal = 1;
origin = (0,1);
target = (0,2);
type = Stem;
},
{
horizontal = 1;
origin = (1,6);
target = (1,7);
type = Stem;
}
);
layerId = "FF3CDF8C-30AF-45D8-A678-B4DEB13CF6DF";
shapes = (
{
closed = 1;
nodes = (
(107,365,l),
(372,365,l),
(372,437,l),
(107,437,l)
);
},
{
closed = 1;
nodes = (
(131,744,l),
(83,696,l),
(468,696,l),
(468,768,l),
(47,768,l),
(47,0,l),
(492,0,l),
(492,72,l),
(83,72,l),
(131,24,l)
);
}
);
width = 539;
},
{
hints = (
{
origin = (1,4);
target = (1,0);
type = Stem;
},
{
horizontal = 1;
origin = (1,3);
target = (1,2);
type = Stem;
},
{
horizontal = 1;
origin = (0,1);
target = (0,2);
type = Stem;
},
{
horizontal = 1;
origin = (1,6);
target = (1,7);
type = Stem;
}
);
layerId = "91CAC535-5FDC-455D-97CC-19853562EC83";
shapes = (
{
closed = 1;
nodes = (
(88,381,l),
(386,381,l),
(386,421,l),
(88,421,l)
);
},
{
closed = 1;
nodes = (
(110,750,l),
(88,728,l),
(506,728,l),
(506,768,l),
(66,768,l),
(66,0,l),
(517,0,l),
(517,40,l),
(88,40,l),
(110,18,l)
);
}
);
width = 583;
},
{
hints = (
{
origin = (1,4);
target = (1,0);
type = Stem;
},
{
horizontal = 1;
origin = (1,3);
target = (1,2);
type = Stem;
},
{
horizontal = 1;
origin = (0,1);
target = (0,2);
type = Stem;
},
{
horizontal = 1;
origin = (1,6);
target = (1,7);
type = Stem;
}
);
layerId = m004;
shapes = (
{
closed = 1;
nodes = (
(97,382,l),
(459,382,l),
(459,423,l),
(97,423,l)
);
},
{
closed = 1;
nodes = (
(123,758,l),
(99,727,l),
(604,727,l),
(604,768,l),
(81,768,l),
(81,0,l),
(617,0,l),
(617,41,l),
(99,41,l),
(123,10,l)
);
}
);
width = 698;
},
{
hints = (
{
origin = (1,4);
target = (1,0);
type = Stem;
},
{
horizontal = 1;
origin = (1,3);
target = (1,2);
type = Stem;
},
{
horizontal = 1;
origin = (0,1);
target = (0,2);
type = Stem;
},
{
horizontal = 1;
origin = (1,6);
target = (1,7);
type = Stem;
}
);
layerId = m005;
shapes = (
{
closed = 1;
nodes = (
(121,360,l),
(456,360,l),
(456,436,l),
(121,436,l)
);
},
{
closed = 1;
nodes = (
(149,725,l),
(105,692,l),
(584,692,l),
(584,768,l),
(66,768,l),
(66,0,l),
(606,0,l),
(606,76,l),
(105,76,l),
(149,43,l)
);
}
);
width = 672;
},
{
hints = (
{
horizontal = 1;
origin = (1,6);
target = (1,7);
type = Stem;
},
{
horizontal = 1;
origin = (0,1);
target = (0,2);
type = Stem;
},
{
horizontal = 1;
origin = (1,3);
target = (1,2);
type = Stem;
},
{
origin = (1,4);
target = (1,0);
type = Stem;
}
);
layerId = m006;
shapes = (
{
closed = 1;
nodes = (
(240,304,l),
(554,304,l),
(554,474,l),
(240,474,l)
);
},
{
closed = 1;
nodes = (
(275,646,l),
(223,598,l),
(703,598,l),
(703,768,l),
(62,768,l),
(62,0,l),
(718,0,l),
(718,170,l),
(223,170,l),
(275,122,l)
);
}
);
width = 780;
}
);
unicode = 69;
},
{
glyphname = F;
lastChange = "2023-07-29 11:00:45 +0000";
layers = (
{
hints = (
{
horizontal = 1;
origin = (1,0);
target = (1,1);
type = Stem;
},
{
horizontal = 1;
origin = (0,4);
target = (0,3);
type = Stem;
},
{
origin = (0,5);
target = (0,1);
type = Stem;
},
{
horizontal = 1;
origin = (0,6);
target = up;
type = BottomGhost;
}
);
layerId = m002;
shapes = (
{
closed = 1;
nodes = (
(264,0,l),
(264,648,l),
(216,600,l),
(600,600,l),
(600,768,l),
(48,768,l),
(48,0,l)
);
},
{
closed = 1;
nodes = (
(480,293,l),
(480,461,l),
(240,461,l),
(240,293,l)
);
}
);
width = 648;
},
{
hints = (
{
origin = (0,5);
target = (0,1);
type = Stem;
},
{
horizontal = 1;
origin = (0,4);
target = (0,3);
type = Stem;
},
{
horizontal = 1;
origin = (1,0);
target = (1,1);
type = Stem;
},
{
horizontal = 1;
origin = (0,6);
target = up;
type = BottomGhost;
}
);
layerId = "FF3CDF8C-30AF-45D8-A678-B4DEB13CF6DF";
shapes = (
{
closed = 1;
nodes = (
(131,0,l),
(131,744,l),
(83,696,l),
(468,696,l),
(468,768,l),
(47,768,l),
(47,0,l)
);
},
{
closed = 1;
nodes = (
(372,365,l),
(372,437,l),
(107,437,l),
(107,365,l)
);
}
);
width = 539;
},
{
hints = (
{
origin = (0,5);
target = (0,1);
type = Stem;
},
{
horizontal = 1;
origin = (0,4);
target = (0,3);
type = Stem;
},
{
horizontal = 1;
origin = (1,0);
target = (1,1);
type = Stem;
},
{
horizontal = 1;
origin = (0,6);
target = up;
type = BottomGhost;
}
);
layerId = "91CAC535-5FDC-455D-97CC-19853562EC83";
shapes = (
{
closed = 1;
nodes = (
(110,0,l),
(110,748,l),
(88,728,l),
(495,728,l),
(495,768,l),
(66,768,l),
(66,0,l)
);
},
{
closed = 1;
nodes = (
(385,381,l),
(385,421,l),
(88,421,l),
(88,381,l)
);
}
);
width = 561;
},
{
hints = (
{
origin = (0,5);
target = (0,1);
type = Stem;
},
{
horizontal = 1;
origin = (0,4);
target = (0,3);
type = Stem;
},
{
horizontal = 1;
origin = (1,0);
target = (1,1);
type = Stem;
},
{
horizontal = 1;
origin = (0,6);
target = up;
type = BottomGhost;
}
);
layerId = m004;
shapes = (
{
closed = 1;
nodes = (
(123,0,l),
(123,757,l),
(99,727,l),
(590,727,l),
(590,768,l),
(81,768,l),
(81,0,l)
);
},
{
closed = 1;
nodes = (
(458,383,l),
(458,424,l),
(97,424,l),
(97,383,l)
);
}
);
width = 670;
},
{
hints = (
{
origin = (0,5);
target = (0,1);
type = Stem;
},
{
horizontal = 1;
origin = (0,4);
target = (0,3);
type = Stem;
},
{
horizontal = 1;
origin = (1,0);
target = (1,1);
type = Stem;
},
{
horizontal = 1;
origin = (0,6);
target = up;
type = BottomGhost;
}
);
layerId = m005;
shapes = (
{
closed = 1;
nodes = (
(149,0,l),
(149,724,l),
(105,692,l),
(578,692,l),
(578,768,l),
(66,768,l),
(66,0,l)
);
},
{
closed = 1;
nodes = (
(455,358,l),
(455,433,l),
(122,433,l),
(122,358,l)
);
}
);
width = 660;
},
{
hints = (
{
horizontal = 1;
origin = (1,0);
target = (1,1);
type = Stem;
},
{
horizontal = 1;
origin = (0,4);
target = (0,3);
type = Stem;
},
{
origin = (0,5);
target = (0,1);
type = Stem;
},
{
horizontal = 1;
origin = (0,6);
target = up;
type = BottomGhost;
}
);
layerId = m006;
shapes = (
{
closed = 1;
nodes = (
(275,0,l),
(275,646,l),
(223,598,l),
(690,598,l),
(690,768,l),
(62,768,l),
(62,0,l)
);
},
{
closed = 1;
nodes = (
(549,291,l),
(549,462,l),
(247,462,l),
(247,291,l)
);
}
);
width = 753;
}
);
unicode = 70;
},
{
glyphname = G;
kernLeft = u_r_r;
lastChange = "2023-07-29 12:48:21 +0000";
layers = (
{
layerId = m002;
shapes = (
{
closed = 1;
nodes = (
(525,-12,o),
(636,109,o),
(636,312,c),
(502,312,l),
(502,191,o),
(454,144,o),
(384,144,cs),
(292,144,o),
(258,208,o),
(258,384,cs),
(258,560,o),
(292,624,o),
(384,624,cs),
(448,624,o),
(483,583,o),
(497,485,c),
(701,521,l),
(666,684,o),
(549,780,o),
(384,780,cs),
(176,780,o),
(36,620,o),
(36,384,cs),
(36,135,o),
(164,-12,o),
(384,-12,cs)
);
},
{
closed = 1;
nodes = (
(701,0,l),
(701,384,l),
(384,384,l),
(384,251,l),
(542,251,l),
(542,132,l),
(638,0,l)
);
}
);
width = 749;
},
{
layerId = "FF3CDF8C-30AF-45D8-A678-B4DEB13CF6DF";
shapes = (
{
closed = 1;
nodes = (
(449,-12,o),
(537,109,o),
(537,264,c),
(489,264,l),
(489,135,o),
(422,60,o),
(309,60,cs),
(181,60,o),
(116,169,o),
(116,384,cs),
(116,599,o),
(181,708,o),
(309,708,cs),
(411,708,o),
(471,649,o),
(487,533,c),
(566,552,l),
(535,695,o),
(439,780,o),
(309,780,cs),
(145,780,o),
(32,620,o),
(32,384,cs),
(32,148,o),
(145,-12,o),
(309,-12,cs)
);
},
{
closed = 1;
nodes = (
(561,0,l),
(561,372,l),
(321,372,l),
(321,300,l),
(489,300,l),
(489,132,l),
(498,0,l)
);
}
);
width = 605;
},
{
layerId = "91CAC535-5FDC-455D-97CC-19853562EC83";
shapes = (
{
closed = 1;
nodes = (
(469,-12,o),
(563,100,o),
(563,264,c),
(539,264,l),
(539,132,o),
(447,28,o),
(331,28,cs),
(193,28,o),
(99,172,o),
(99,384,cs),
(99,596,o),
(193,740,o),
(331,740,cs),
(435,740,o),
(507,665,o),
(526,537,c),
(571,549,l),
(539,702,o),
(458,780,o),
(331,780,cs),
(166,780,o),
(55,619,o),
(55,384,cs),
(55,149,o),
(166,-12,o),
(331,-12,cs)
);
},
{
closed = 1;
nodes = (
(583,0,l),
(583,350,l),
(343,350,l),
(343,310,l),
(539,310,l),
(539,132,l),
(544,0,l)
);
}
);
width = 649;
},
{
layerId = m004;
shapes = (
{
closed = 1;
nodes = (
(561,-12,o),
(674,103,o),
(674,264,c),
(653,264,l),
(653,127,o),
(538,31,o),
(397,31,cs),
(228,31,o),
(110,167,o),
(110,384,cs),
(110,601,o),
(228,737,o),
(397,737,cs),
(525,737,o),
(613,665,o),
(636,541,c),
(680,553,l),
(641,703,o),
(545,780,o),
(397,780,cs),
(201,780,o),
(69,620,o),
(69,384,cs),
(69,151,o),
(201,-12,o),
(397,-12,cs)
);
},
{
closed = 1;
nodes = (
(696,0,l),
(696,357,l),
(412,357,l),
(412,312,l),
(651,312,l),
(651,132,l),
(652,0,l)
);
}
);
width = 778;
},
{
layerId = m005;
shapes = (
{
closed = 1;
nodes = (
(551,-12,o),
(660,104,o),
(660,264,c),
(612,264,l),
(612,146,o),
(519,61,o),
(383,61,cs),
(225,61,o),
(133,180,o),
(133,384,cs),
(133,588,o),
(225,707,o),
(383,707,cs),
(510,707,o),
(584,639,o),
(604,524,c),
(685,543,l),
(647,697,o),
(538,780,o),
(383,780,cs),
(185,780,o),
(50,619,o),
(50,384,cs),
(50,146,o),
(185,-12,o),
(383,-12,cs)
);
},
{
closed = 1;
nodes = (
(687,0,l),
(687,362,l),
(398,362,l),
(398,294,l),
(613,294,l),
(613,132,l),
(624,0,l)
);
}
);
width = 751;
},
{
layerId = m006;
shapes = (
{
closed = 1;
nodes = (
(613,-12,o),
(741,109,o),
(741,264,c),
(610,264,l),
(610,192,o),
(541,146,o),
(444,146,cs),
(322,146,o),
(266,209,o),
(266,384,cs),
(266,559,o),
(322,622,o),
(444,622,cs),
(532,622,o),
(584,582,o),
(602,484,c),
(804,520,l),
(763,683,o),
(633,780,o),
(444,780,cs),
(207,780,o),
(47,620,o),
(47,384,cs),
(47,135,o),
(196,-12,o),
(444,-12,cs)
);
},
{
closed = 1;
nodes = (
(807,0,l),
(807,384,l),
(448,384,l),
(448,250,l),
(647,250,l),
(647,132,l),
(737,0,l)
);
}
);
width = 869;
}
);
unicode = 71;
},
{
glyphname = H;
lastChange = "2023-07-29 11:00:45 +0000";
layers = (
{
hints = (
{
horizontal = 1;
origin = (0,2);
target = down;
type = TopGhost;
},
{
horizontal = 1;
origin = (0,3);
target = up;
type = BottomGhost;
},
{
origin = (0,3);
target = (0,0);
type = Stem;
},
{
origin = (2,3);
target = (2,0);
type = Stem;
},
{
horizontal = 1;
origin = (1,3);
target = (1,2);
type = Stem;
}
);
layerId = m002;
shapes = (
{
closed = 1;
nodes = (
(264,0,l),
(264,768,l),
(48,768,l),
(48,0,l)
);
},
{
closed = 1;
nodes = (
(493,305,l),
(493,479,l),
(240,479,l),
(240,305,l)
);
},
{
closed = 1;
nodes = (
(685,0,l),
(685,768,l),
(469,768,l),
(469,0,l)
);
}
);
width = 733;
},
{
hints = (
{
origin = (0,2);
target = (0,1);
type = Stem;
},
{
origin = (2,2);
target = (2,1);
type = Stem;
},
{
horizontal = 1;
origin = (1,0);
target = (1,1);
type = Stem;
},
{
horizontal = 1;
origin = (2,3);
target = up;
type = BottomGhost;
},
{
horizontal = 1;
origin = (2,2);
target = down;
type = TopGhost;
}
);
layerId = "FF3CDF8C-30AF-45D8-A678-B4DEB13CF6DF";
shapes = (
{
closed = 1;
nodes = (
(128,0,l),
(128,768,l),
(44,768,l),
(44,0,l)
);
},
{
closed = 1;
nodes = (
(502,364,l),
(502,436,l),
(104,436,l),
(104,364,l)
);
},
{
closed = 1;
nodes = (
(561,0,l),
(561,768,l),
(477,768,l),
(477,0,l)
);
}
);
width = 605;
},
{
hints = (
{
origin = (0,2);
target = (0,1);
type = Stem;
},
{
origin = (2,2);
target = (2,1);
type = Stem;
},
{
horizontal = 1;
origin = (1,0);
target = (1,1);
type = Stem;
},
{
horizontal = 1;
origin = (2,3);
target = up;
type = BottomGhost;
},
{
horizontal = 1;
origin = (2,2);
target = down;
type = TopGhost;
}
);
layerId = "91CAC535-5FDC-455D-97CC-19853562EC83";
shapes = (
{
closed = 1;
nodes = (
(110,0,l),
(110,768,l),
(66,768,l),
(66,0,l)
);
},
{
closed = 1;
nodes = (
(528,380,l),
(528,424,l),
(88,424,l),
(88,380,l)
);
},
{
closed = 1;
nodes = (
(550,0,l),
(550,768,l),
(506,768,l),
(506,0,l)
);
}
);
width = 616;
},
{
hints = (
{
origin = (0,2);
target = (0,1);
type = Stem;
},
{
origin = (2,2);
target = (2,1);
type = Stem;
},
{
horizontal = 1;
origin = (1,0);
target = (1,1);
type = Stem;
},
{
horizontal = 1;
origin = (2,3);
target = up;
type = BottomGhost;
},
{
horizontal = 1;
origin = (2,2);
target = down;
type = TopGhost;
}
);
layerId = m004;
shapes = (
{
closed = 1;
nodes = (
(124,0,l),
(124,768,l),
(82,768,l),
(82,0,l)
);
},
{
closed = 1;
nodes = (
(637,381,l),
(637,424,l),
(98,424,l),
(98,381,l)
);
},
{
closed = 1;
nodes = (
(653,0,l),
(653,768,l),
(611,768,l),
(611,0,l)
);
}
);
width = 735;
},
{
hints = (
{
origin = (0,2);
target = (0,1);
type = Stem;
},
{
origin = (2,2);
target = (2,1);
type = Stem;
},
{
horizontal = 1;
origin = (1,0);
target = (1,1);
type = Stem;
},
{
horizontal = 1;
origin = (2,3);
target = up;
type = BottomGhost;
},
{
horizontal = 1;
origin = (2,2);
target = down;
type = TopGhost;
}
);
layerId = m005;
shapes = (
{
closed = 1;
nodes = (
(147,0,l),
(147,768,l),
(64,768,l),
(64,0,l)
);
},
{
closed = 1;
nodes = (
(615,360,l),
(615,439,l),
(120,439,l),
(120,360,l)
);
},
{
closed = 1;
nodes = (
(670,0,l),
(670,768,l),
(587,768,l),
(587,0,l)
);
}
);
width = 734;
},
{
hints = (
{
horizontal = 1;
origin = (0,2);
target = down;
type = TopGhost;
},
{
horizontal = 1;
origin = (0,3);
target = up;
type = BottomGhost;
},
{
origin = (0,3);
target = (0,0);
type = Stem;
},
{
origin = (2,3);
target = (2,0);
type = Stem;
},
{
horizontal = 1;
origin = (1,3);
target = (1,2);
type = Stem;
}
);
layerId = m006;
shapes = (
{
closed = 1;
nodes = (
(275,0,l),
(275,768,l),
(62,768,l),
(62,0,l)
);
},
{
closed = 1;
nodes = (
(601,304,l),
(601,480,l),
(247,480,l),
(247,304,l)
);
},
{
closed = 1;
nodes = (
(785,0,l),
(785,768,l),
(572,768,l),
(572,0,l)
);
}
);
width = 847;
}
);
unicode = 72;
},
{
glyphname = I;
lastChange = "2023-07-29 11:00:45 +0000";
layers = (
{
hints = (
{
horizontal = 1;
origin = (0,3);
target = up;
type = BottomGhost;
},
{
horizontal = 1;
origin = (0,2);
target = down;
type = TopGhost;
},
{
origin = (0,2);
target = (0,1);
type = Stem;
}
);
layerId = m002;
shapes = (
{
closed = 1;
nodes = (
(264,0,l),
(264,768,l),
(48,768,l),
(48,0,l)
);
}
);
width = 312;
},
{
hints = (
{
origin = (0,2);
target = (0,1);
type = Stem;
},
{
horizontal = 1;
origin = (0,2);
target = down;
type = TopGhost;
},
{
horizontal = 1;
origin = (0,3);
target = up;
type = BottomGhost;
}
);
layerId = "FF3CDF8C-30AF-45D8-A678-B4DEB13CF6DF";
shapes = (
{
closed = 1;
nodes = (
(147,0,l),
(147,768,l),
(62,768,l),
(62,0,l)
);
}
);
width = 209;
},
{
hints = (
{
origin = (0,2);
target = (0,1);
type = Stem;
},
{
horizontal = 1;
origin = (0,2);
target = down;
type = TopGhost;
},
{
horizontal = 1;
origin = (0,3);
target = up;
type = BottomGhost;
}
);
layerId = "91CAC535-5FDC-455D-97CC-19853562EC83";
shapes = (
{
closed = 1;
nodes = (
(110,0,l),
(110,768,l),
(66,768,l),
(66,0,l)
);
}
);
width = 176;
},
{
hints = (
{
origin = (0,2);
target = (0,1);
type = Stem;
},
{
horizontal = 1;
origin = (0,2);
target = down;
type = TopGhost;
},
{
horizontal = 1;
origin = (0,3);
target = up;
type = BottomGhost;
}
);
layerId = m004;
shapes = (
{
closed = 1;
nodes = (
(122,0,l),
(122,768,l),
(80,768,l),
(80,0,l)
);
}
);
width = 202;
},
{
hints = (
{
origin = (0,2);
target = (0,1);
type = Stem;
},
{
horizontal = 1;
origin = (0,2);
target = down;
type = TopGhost;
},
{
horizontal = 1;
origin = (0,3);
target = up;
type = BottomGhost;
}
);
layerId = m005;
shapes = (
{
closed = 1;
nodes = (
(160,0,l),
(160,768,l),
(76,768,l),
(76,0,l)
);
}
);
width = 236;
},
{
hints = (
{
horizontal = 1;
origin = (0,3);
target = up;
type = BottomGhost;
},
{
horizontal = 1;
origin = (0,2);
target = down;
type = TopGhost;
},
{
origin = (0,2);
target = (0,1);
type = Stem;
}
);
layerId = m006;
shapes = (
{
closed = 1;
nodes = (
(275,0,l),
(275,768,l),
(62,768,l),
(62,0,l)
);
}
);
width = 337;
}
);
unicode = 73;
},
{
glyphname = J;
lastChange = "2023-07-29 11:00:45 +0000";
layers = (
{
layerId = "FF3CDF8C-30AF-45D8-A678-B4DEB13CF6DF";
shapes = (
{
closed = 1;
nodes = (
(269,-12,o),
(377,24,o),
(377,216,cs),
(377,768,l),
(293,768,l),
(293,216,ls),
(293,120,o),
(257,60,o),
(184,60,cs),
(136,60,o),
(100,96,o),
(88,144,c),
(16,108,l),
(40,36,o),
(112,-12,o),
(184,-12,cs)
);
}
);
width = 429;
},
{
layerId = m002;
shapes = (
{
closed = 1;
nodes = (
(324,-12,o),
(432,48,o),
(432,216,cs),
(432,768,l),
(216,768,l),
(216,264,ls),
(216,204,o),
(180,180,o),
(132,180,cs),
(108,180,o),
(72,184,o),
(48,192,c),
(48,12,l),
(96,0,o),
(156,-12,o),
(216,-12,cs)
);
}
);
width = 480;
},
{
layerId = "91CAC535-5FDC-455D-97CC-19853562EC83";
shapes = (
{
closed = 1;
nodes = (
(346,-12,o),
(396,57,o),
(396,216,cs),
(396,768,l),
(352,768,l),
(352,216,ls),
(352,85,o),
(315,28,o),
(231,28,cs),
(147,28,o),
(110,85,o),
(110,216,c),
(66,216,l),
(66,57,o),
(116,-12,o),
(231,-12,cs)
);
}
);
width = 462;
},
{
layerId = m004;
shapes = (
{
closed = 1;
nodes = (
(422,-12,o),
(475,43,o),
(475,216,cs),
(475,768,l),
(433,768,l),
(433,211,ls),
(433,89,o),
(389,27,o),
(286,27,cs),
(182,27,o),
(135,77,o),
(137,185,c),
(84,187,l),
(80,52,o),
(139,-12,o),
(282,-12,cs)
);
}
);
width = 556;
},
{
layerId = m005;
shapes = (
{
closed = 1;
nodes = (
(363,-12,o),
(463,48,o),
(463,216,cs),
(463,768,l),
(380,768,l),
(380,227,ls),
(380,120,o),
(336,69,o),
(243,69,cs),
(171,69,o),
(124,106,o),
(115,196,c),
(45,147,l),
(62,38,o),
(139,-12,o),
(245,-12,cs)
);
}
);
width = 532;
},
{
layerId = m006;
shapes = (
{
closed = 1;
nodes = (
(390,-12,o),
(507,48,o),
(507,216,cs),
(507,768,l),
(294,768,l),
(294,265,ls),
(294,206,o),
(250,183,o),
(184,183,cs),
(140,183,o),
(96,186,o),
(74,192,c),
(60,9,l),
(110,-2,o),
(180,-12,o),
(261,-12,cs)
);
}
);
width = 569;
}
);
unicode = 74;
},
{
glyphname = K;
lastChange = "2023-07-29 11:00:45 +0000";
layers = (
{
layerId = m002;
shapes = (
{
closed = 1;
nodes = (
(264,0,l),
(264,768,l),
(48,768,l),
(48,0,l)
);
},
{
closed = 1;
nodes = (
(733,0,l),
(493,552,l),
(342,372,l),
(498,0,l)
);
},
{
closed = 1;
nodes = (
(685,768,l),
(486,768,l),
(240,420,l),
(240,163,l)
);
}
);
width = 757;
},
{
layerId = "FF3CDF8C-30AF-45D8-A678-B4DEB13CF6DF";
shapes = (
{
closed = 1;
nodes = (
(130,0,l),
(130,768,l),
(46,768,l),
(46,0,l)
);
},
{
closed = 1;
nodes = (
(550,0,l),
(296,496,l),
(239,433,l),
(459,0,l)
);
},
{
closed = 1;
nodes = (
(526,768,l),
(435,768,l),
(106,329,l),
(106,216,l)
);
}
);
width = 572;
},
{
layerId = "91CAC535-5FDC-455D-97CC-19853562EC83";
shapes = (
{
closed = 1;
nodes = (
(110,0,l),
(110,768,l),
(66,768,l),
(66,0,l)
);
},
{
closed = 1;
nodes = (
(561,0,l),
(269,489,l),
(243,455,l),
(511,0,l)
);
},
{
closed = 1;
nodes = (
(539,768,l),
(479,768,l),
(86,312,l),
(86,248,l)
);
}
);
width = 605;
},
{
layerId = m004;
shapes = (
{
closed = 1;
nodes = (
(123,0,l),
(123,768,l),
(81,768,l),
(81,0,l)
);
},
{
closed = 1;
nodes = (
(665,0,l),
(310,486,l),
(287,454,l),
(617,0,l)
);
},
{
closed = 1;
nodes = (
(640,768,l),
(577,768,l),
(94,308,l),
(94,242,l)
);
}
);
width = 720;
},
{
layerId = m005;
shapes = (
{
closed = 1;
nodes = (
(148,0,l),
(148,768,l),
(65,768,l),
(65,0,l)
);
},
{
closed = 1;
nodes = (
(669,0,l),
(345,505,l),
(291,431,l),
(578,0,l)
);
},
{
closed = 1;
nodes = (
(641,768,l),
(545,768,l),
(120,340,l),
(120,222,l)
);
}
);
width = 707;
},
{
layerId = m006;
shapes = (
{
closed = 1;
nodes = (
(275,0,l),
(275,768,l),
(62,768,l),
(62,0,l)
);
},
{
closed = 1;
nodes = (
(831,0,l),
(531,553,l),
(383,371,l),
(599,0,l)
);
},
{
closed = 1;
nodes = (
(781,768,l),
(579,768,l),
(246,422,l),
(246,162,l)
);
}
);
width = 864;
}
);
unicode = 75;
},
{
glyphname = L;
lastChange = "2023-07-29 11:00:45 +0000";
layers = (
{
hints = (
{
horizontal = 1;
origin = (0,0);
target = down;
type = TopGhost;
},
{
origin = (0,0);
target = (0,1);
type = Stem;
},
{
horizontal = 1;
origin = (0,5);
target = (0,4);
type = Stem;
}
);
layerId = m002;
shapes = (
{
closed = 1;
nodes = (
(48,768,l),
(264,768,l),
(264,120,l),
(216,168,l),
(600,168,l),
(600,0,l),
(48,0,l)
);
}
);
width = 648;
},
{
hints = (
{
horizontal = 1;
origin = (0,0);
target = down;
type = TopGhost;
},
{
origin = (0,0);
target = (0,1);
type = Stem;
},
{
horizontal = 1;
origin = (0,5);
target = (0,4);
type = Stem;
}
);
layerId = "FF3CDF8C-30AF-45D8-A678-B4DEB13CF6DF";
shapes = (
{
closed = 1;
nodes = (
(48,768,l),
(132,768,l),
(132,24,l),
(84,72,l),
(469,72,l),
(469,0,l),
(48,0,l)
);
}
);
width = 517;
},
{
hints = (
{
horizontal = 1;
origin = (0,0);
target = down;
type = TopGhost;
},
{
origin = (0,0);
target = (0,1);
type = Stem;
},
{
horizontal = 1;
origin = (0,5);
target = (0,4);
type = Stem;
}
);
layerId = "91CAC535-5FDC-455D-97CC-19853562EC83";
shapes = (
{
closed = 1;
nodes = (
(66,768,l),
(110,768,l),
(110,18,l),
(88,40,l),
(495,40,l),
(495,0,l),
(66,0,l)
);
}
);
width = 561;
},
{
hints = (
{
horizontal = 1;
origin = (0,0);
target = down;
type = TopGhost;
},
{
origin = (0,0);
target = (0,1);
type = Stem;
},
{
horizontal = 1;
origin = (0,5);
target = (0,4);
type = Stem;
}
);
layerId = m004;
shapes = (
{
closed = 1;
nodes = (
(81,768,l),
(123,768,l),
(123,10,l),
(99,41,l),
(590,41,l),
(590,0,l),
(81,0,l)
);
}
);
width = 671;
},
{
hints = (
{
horizontal = 1;
origin = (0,0);
target = down;
type = TopGhost;
},
{
origin = (0,0);
target = (0,1);
type = Stem;
},
{
horizontal = 1;
origin = (0,5);
target = (0,4);
type = Stem;
}
);
layerId = m005;
shapes = (
{
closed = 1;
nodes = (
(67,768,l),
(150,768,l),
(150,43,l),
(106,76,l),
(579,76,l),
(579,0,l),
(67,0,l)
);
}
);
width = 646;
},
{
hints = (
{
horizontal = 1;
origin = (0,0);
target = down;
type = TopGhost;
},
{
origin = (0,0);
target = (0,1);
type = Stem;
},
{
horizontal = 1;
origin = (0,5);
target = (0,4);
type = Stem;
}
);
layerId = m006;
shapes = (
{
closed = 1;
nodes = (
(62,768,l),
(275,768,l),
(275,122,l),
(223,170,l),
(690,170,l),
(690,0,l),
(62,0,l)
);
}
);
width = 752;
}
);
unicode = 76;
},
{
glyphname = M;
lastChange = "2023-07-29 11:00:45 +0000";
layers = (
{
layerId = m002;
shapes = (
{
closed = 1;
nodes = (
(216,0,l),
(216,528,l),
(384,0,l),
(517,0,l),
(685,528,l),
(685,0,l),
(901,0,l),
(901,768,l),
(589,768,l),
(474,401,l),
(360,768,l),
(48,768,l),
(48,0,l)
);
}
);
width = 949;
},
{
layerId = "FF3CDF8C-30AF-45D8-A678-B4DEB13CF6DF";
shapes = (
{
closed = 1;
nodes = (
(124,0,l),
(124,706,l),
(323,0,l),
(383,0,l),
(580,706,l),
(580,0,l),
(664,0,l),
(664,768,l),
(520,768,l),
(352,168,l),
(184,768,l),
(40,768,l),
(40,0,l)
);
}
);
width = 704;
},
{
layerId = "91CAC535-5FDC-455D-97CC-19853562EC83";
shapes = (
{
closed = 1;
nodes = (
(110,0,l),
(110,744,l),
(342,144,l),
(350,144,l),
(583,744,l),
(583,0,l),
(627,0,l),
(627,768,l),
(547,768,l),
(346,240,l),
(145,768,l),
(66,768,l),
(66,0,l)
);
}
);
width = 693;
},
{
layerId = m004;
shapes = (
{
closed = 1;
nodes = (
(126,0,l),
(126,749,l),
(410,92,l),
(410,92,l),
(695,749,l),
(695,0,l),
(737,0,l),
(737,768,l),
(656,768,l),
(409,189,l),
(161,768,l),
(82,768,l),
(82,0,l)
);
}
);
width = 819;
},
{
layerId = m005;
shapes = (
{
closed = 1;
nodes = (
(143,0,l),
(143,687,l),
(398,81,l),
(445,81,l),
(699,687,l),
(699,0,l),
(783,0,l),
(783,768,l),
(639,768,l),
(422,262,l),
(204,768,l),
(61,768,l),
(61,0,l)
);
}
);
width = 844;
},
{
layerId = m006;
shapes = (
{
closed = 1;
nodes = (
(230,0,l),
(230,524,l),
(448,-1,l),
(575,-1,l),
(793,524,l),
(793,0,l),
(1006,0,l),
(1006,768,l),
(693,768,l),
(533,405,l),
(373,768,l),
(61,768,l),
(61,0,l)
);
}
);
width = 1067;
}
);
unicode = 77;
},
{
glyphname = N;
lastChange = "2023-07-29 11:00:45 +0000";
layers = (
{
layerId = m002;
shapes = (
{
closed = 1;
nodes = (
(221,0,l),
(221,576,l),
(221,768,l),
(48,768,l),
(48,0,l)
);
},
{
closed = 1;
nodes = (
(553,0,l),
(553,334,l),
(240,768,l),
(192,768,l),
(192,470,l),
(513,0,l)
);
},
{
closed = 1;
nodes = (
(685,0,l),
(685,768,l),
(512,768,l),
(512,192,l),
(512,0,l)
);
}
);
width = 733;
},
{
layerId = "FF3CDF8C-30AF-45D8-A678-B4DEB13CF6DF";
shapes = (
{
closed = 1;
nodes = (
(128,0,l),
(128,672,l),
(116,768,l),
(44,768,l),
(44,0,l)
);
},
{
closed = 1;
nodes = (
(501,0,l),
(501,144,l),
(176,768,l),
(107,768,l),
(107,732,l),
(485,0,l)
);
},
{
closed = 1;
nodes = (
(561,0,l),
(561,768,l),
(477,768,l),
(477,288,l),
(489,0,l)
);
}
);
width = 605;
},
{
layerId = "91CAC535-5FDC-455D-97CC-19853562EC83";
shapes = (
{
closed = 1;
nodes = (
(110,0,l),
(110,672,l),
(110,768,l),
(66,768,l),
(66,0,l)
);
},
{
closed = 1;
nodes = (
(506,0,l),
(506,72,l),
(143,768,l),
(99,768,l),
(99,756,l),
(490,0,l)
);
},
{
closed = 1;
nodes = (
(539,0,l),
(539,768,l),
(495,768,l),
(495,288,l),
(495,0,l)
);
}
);
width = 605;
},
{
layerId = m004;
shapes = (
{
closed = 1;
nodes = (
(126,0,l),
(126,682,l),
(127,768,l),
(82,768,l),
(82,0,l)
);
},
{
closed = 1;
nodes = (
(606,0,l),
(606,78,l),
(165,768,l),
(114,768,l),
(114,756,l),
(588,0,l)
);
},
{
closed = 1;
nodes = (
(639,0,l),
(639,768,l),
(595,768,l),
(595,298,l),
(594,0,l)
);
}
);
width = 721;
},
{
layerId = m005;
shapes = (
{
closed = 1;
nodes = (
(146,0,l),
(146,650,l),
(138,768,l),
(64,768,l),
(64,0,l)
);
},
{
closed = 1;
nodes = (
(605,0,l),
(605,147,l),
(196,768,l),
(126,768,l),
(126,685,l),
(585,0,l)
);
},
{
closed = 1;
nodes = (
(665,0,l),
(665,768,l),
(582,768,l),
(582,266,l),
(590,0,l)
);
}
);
width = 729;
},
{
layerId = m006;
shapes = (
{
closed = 1;
nodes = (
(236,0,l),
(236,574,l),
(235,768,l),
(62,768,l),
(62,0,l)
);
},
{
closed = 1;
nodes = (
(651,0,l),
(651,339,l),
(263,768,l),
(205,768,l),
(205,464,l),
(609,0,l)
);
},
{
closed = 1;
nodes = (
(783,0,l),
(783,768,l),
(609,768,l),
(609,190,l),
(610,0,l)
);
}
);
width = 845;
}
);
unicode = 78;
},
{
glyphname = O;
kernLeft = u_r_r;
lastChange = "2023-07-29 11:00:45 +0000";
layers = (
{
layerId = m002;
shapes = (
{
closed = 1;
nodes = (
(591,-12,o),
(732,148,o),
(732,384,cs),
(732,620,o),
(591,780,o),
(384,780,cs),
(177,780,o),
(36,620,o),
(36,384,cs),
(36,148,o),
(177,-12,o),
(384,-12,cs)
);
},
{
closed = 1;
nodes = (
(297,144,o),
(264,209,o),
(264,384,cs),
(264,559,o),
(297,624,o),
(384,624,cs),
(471,624,o),
(504,559,o),
(504,384,cs),
(504,209,o),
(471,144,o),
(384,144,cs)
);
}
);
width = 768;
},
{
layerId = "FF3CDF8C-30AF-45D8-A678-B4DEB13CF6DF";
shapes = (
{
closed = 1;
nodes = (
(490,-12,o),
(607,148,o),
(607,384,cs),
(607,620,o),
(490,780,o),
(319,780,cs),
(148,780,o),
(31,620,o),
(31,384,cs),
(31,148,o),
(148,-12,o),
(319,-12,cs)
);
},
{
closed = 1;
nodes = (
(190,60,o),
(115,181,o),
(115,385,cs),
(115,588,o),
(190,708,o),
(319,708,cs),
(448,708,o),
(523,588,o),
(523,385,cs),
(523,181,o),
(448,60,o),
(319,60,cs)
);
}
);
width = 638;
},
{
layerId = "91CAC535-5FDC-455D-97CC-19853562EC83";
shapes = (
{
closed = 1;
nodes = (
(493,-12,o),
(605,149,o),
(605,384,cs),
(605,619,o),
(493,780,o),
(330,780,cs),
(167,780,o),
(55,619,o),
(55,384,cs),
(55,149,o),
(167,-12,o),
(330,-12,cs)
);
},
{
closed = 1;
nodes = (
(193,28,o),
(99,173,o),
(99,385,cs),
(99,596,o),
(193,740,o),
(330,740,cs),
(467,740,o),
(561,596,o),
(561,385,cs),
(561,173,o),
(467,28,o),
(330,28,cs)
);
}
);
width = 660;
},
{
layerId = m004;
shapes = (
{
closed = 1;
nodes = (
(587,-12,o),
(720,148,o),
(720,384,cs),
(720,620,o),
(587,780,o),
(395,780,cs),
(202,780,o),
(69,620,o),
(69,384,cs),
(69,148,o),
(202,-12,o),
(395,-12,cs)
);
},
{
closed = 1;
nodes = (
(227,31,o),
(110,174,o),
(110,385,cs),
(110,596,o),
(227,737,o),
(395,737,cs),
(562,737,o),
(679,596,o),
(679,385,cs),
(679,173,o),
(562,31,o),
(395,31,cs)
);
}
);
width = 789;
},
{
layerId = m005;
shapes = (
{
closed = 1;
nodes = (
(593,-12,o),
(731,149,o),
(731,384,cs),
(731,619,o),
(593,780,o),
(390,780,cs),
(188,780,o),
(50,619,o),
(50,384,cs),
(50,149,o),
(188,-12,o),
(390,-12,cs)
);
},
{
closed = 1;
nodes = (
(233,61,o),
(134,183,o),
(134,385,cs),
(134,586,o),
(233,707,o),
(390,707,cs),
(548,707,o),
(647,586,o),
(647,385,cs),
(647,183,o),
(548,61,o),
(390,61,cs)
);
}
);
width = 781;
},
{
layerId = m006;
shapes = (
{
closed = 1;
nodes = (
(681,-12,o),
(843,148,o),
(843,384,cs),
(843,620,o),
(681,780,o),
(445,780,cs),
(209,780,o),
(47,620,o),
(47,384,cs),
(47,148,o),
(209,-12,o),
(445,-12,cs)
);
},
{
closed = 1;
nodes = (
(327,146,o),
(271,210,o),
(271,384,cs),
(271,558,o),
(327,622,o),
(445,622,cs),
(563,622,o),
(619,558,o),
(619,384,cs),
(619,210,o),
(563,146,o),
(445,146,cs)
);
}
);
width = 890;
}
);
unicode = 79;
},
{
glyphname = P;
lastChange = "2023-07-29 11:00:45 +0000";
layers = (
{
layerId = m002;
shapes = (
{
closed = 1;
nodes = (
(264,0,l),
(264,608,l),
(385,608,ls),
(436,608,o),
(474,572,o),
(474,527,cs),
(474,482,o),
(437,449,o),
(383,449,cs),
(240,448,l),
(240,288,l),
(385,288,ls),
(524,288,o),
(697,344,o),
(697,528,cs),
(697,712,o),
(524,768,o),
(385,768,cs),
(48,768,l),
(48,0,l)
);
}
);
width = 733;
},
{
layerId = "FF3CDF8C-30AF-45D8-A678-B4DEB13CF6DF";
shapes = (
{
closed = 1;
nodes = (
(130,0,l),
(130,696,l),
(313,696,ls),
(390,696,o),
(443,637,o),
(443,550,cs),
(443,468,o),
(389,411,o),
(311,410,cs),
(106,408,l),
(106,336,l),
(274,336,ls),
(433,336,o),
(527,416,o),
(527,551,cs),
(527,687,o),
(433,768,o),
(274,768,cs),
(46,768,l),
(46,0,l)
);
}
);
width = 561;
},
{
layerId = "91CAC535-5FDC-455D-97CC-19853562EC83";
shapes = (
{
closed = 1;
nodes = (
(110,0,l),
(110,728,l),
(287,728,ls),
(390,728,o),
(451,662,o),
(451,550,cs),
(451,454,o),
(390,397,o),
(286,396,cs),
(84,394,l),
(84,355,l),
(275,355,ls),
(421,355,o),
(495,421,o),
(495,551,cs),
(495,695,o),
(421,768,o),
(275,768,cs),
(66,768,l),
(66,0,l)
);
}
);
width = 550;
},
{
layerId = m004;
shapes = (
{
closed = 1;
nodes = (
(123,0,l),
(123,726,l),
(337,726,ls),
(465,726,o),
(540,660,o),
(540,552,cs),
(540,453,o),
(459,398,o),
(336,397,cs),
(91,395,l),
(91,353,l),
(324,353,ls),
(499,353,o),
(582,427,o),
(582,553,cs),
(582,689,o),
(499,768,o),
(324,768,cs),
(81,768,l),
(81,0,l)
);
}
);
width = 650;
},
{
layerId = m005;
shapes = (
{
closed = 1;
nodes = (
(148,0,l),
(148,694,l),
(363,694,ls),
(469,694,o),
(536,636,o),
(536,545,cs),
(536,475,o),
(483,412,o),
(362,411,cs),
(118,409,l),
(118,336,l),
(331,336,ls),
(514,336,o),
(619,402,o),
(619,546,cs),
(619,697,o),
(515,768,o),
(331,768,cs),
(65,768,l),
(65,0,l)
);
}
);
width = 671;
},
{
layerId = m006;
shapes = (
{
closed = 1;
nodes = (
(275,0,l),
(275,606,l),
(436,606,ls),
(511,606,o),
(562,570,o),
(562,527,cs),
(562,485,o),
(515,450,o),
(434,450,cs),
(246,449,l),
(246,287,l),
(432,287,ls),
(601,287,o),
(782,343,o),
(782,528,cs),
(782,712,o),
(602,768,o),
(432,768,cs),
(62,768,l),
(62,0,l)
);
}
);
width = 829;
}
);
unicode = 80;
},
{
glyphname = Q;
kernLeft = u_r_r;
lastChange = "2023-07-29 11:00:45 +0000";
layers = (
{
layerId = m002;
shapes = (
{
closed = 1;
nodes = (
(591,-12,o),
(732,148,o),
(732,384,cs),
(732,620,o),
(591,780,o),
(384,780,cs),
(177,780,o),
(36,620,o),
(36,384,cs),
(36,148,o),
(177,-12,o),
(384,-12,cs)
);
},
{
closed = 1;
nodes = (
(720,24,l),
(684,24,o),
(624,48,o),
(612,84,c),
(468,0,l),
(528,-108,o),
(600,-132,o),
(720,-132,c)
);
},
{
closed = 1;
nodes = (
(297,144,o),
(264,209,o),
(264,384,cs),
(264,559,o),
(297,624,o),
(384,624,cs),
(471,624,o),
(504,559,o),
(504,384,cs),
(504,209,o),
(471,144,o),
(384,144,cs)
);
}
);
width = 768;
},
{
layerId = "FF3CDF8C-30AF-45D8-A678-B4DEB13CF6DF";
shapes = (
{
closed = 1;
nodes = (
(490,-12,o),
(607,148,o),
(607,384,cs),
(607,620,o),
(490,780,o),
(319,780,cs),
(148,780,o),
(31,620,o),
(31,384,cs),
(31,148,o),
(148,-12,o),
(319,-12,cs)
);
},
{
closed = 1;
nodes = (
(571,-120,l),
(451,-120,o),
(374,-120,o),
(362,0,c),
(278,0,l),
(290,-168,o),
(403,-192,o),
(571,-192,c)
);
},
{
closed = 1;
nodes = (
(190,60,o),
(115,181,o),
(115,385,cs),
(115,588,o),
(190,708,o),
(319,708,cs),
(448,708,o),
(523,588,o),
(523,385,cs),
(523,181,o),
(448,60,o),
(319,60,cs)
);
}
);
width = 638;
},
{
layerId = "91CAC535-5FDC-455D-97CC-19853562EC83";
shapes = (
{
closed = 1;
nodes = (
(493,-12,o),
(605,149,o),
(605,384,cs),
(605,619,o),
(493,780,o),
(330,780,cs),
(167,780,o),
(55,619,o),
(55,384,cs),
(55,149,o),
(167,-12,o),
(330,-12,cs)
);
},
{
closed = 1;
nodes = (
(572,-136,l),
(429,-136,o),
(350,-96,o),
(350,0,c),
(310,0,l),
(310,-120,o),
(404,-176,o),
(572,-176,c)
);
},
{
closed = 1;
nodes = (
(193,28,o),
(99,173,o),
(99,385,cs),
(99,596,o),
(193,740,o),
(330,740,cs),
(467,740,o),
(561,596,o),
(561,385,cs),
(561,173,o),
(467,28,o),
(330,28,cs)
);
}
);
width = 660;
},
{
layerId = m004;
shapes = (
{
closed = 1;
nodes = (
(587,-12,o),
(720,148,o),
(720,384,cs),
(720,620,o),
(587,780,o),
(395,780,cs),
(202,780,o),
(69,620,o),
(69,384,cs),
(69,148,o),
(202,-12,o),
(395,-12,cs)
);
},
{
closed = 1;
nodes = (
(680,-146,l),
(502,-146,o),
(406,-123,o),
(407,-9,c),
(367,0,l),
(363,-144,o),
(476,-188,o),
(680,-188,c)
);
},
{
closed = 1;
nodes = (
(227,31,o),
(110,174,o),
(110,385,cs),
(110,596,o),
(227,737,o),
(395,737,cs),
(562,737,o),
(679,596,o),
(679,385,cs),
(679,173,o),
(562,31,o),
(395,31,cs)
);
}
);
width = 789;
},
{
layerId = m005;
shapes = (
{
closed = 1;
nodes = (
(593,-12,o),
(731,149,o),
(731,384,cs),
(731,619,o),
(593,780,o),
(390,780,cs),
(188,780,o),
(50,619,o),
(50,384,cs),
(50,149,o),
(188,-12,o),
(390,-12,cs)
);
},
{
closed = 1;
nodes = (
(689,-96,l),
(535,-96,o),
(442,-68,o),
(434,19,c),
(355,0,l),
(364,-127,o),
(489,-169,o),
(689,-169,c)
);
},
{
closed = 1;
nodes = (
(233,61,o),
(134,183,o),
(134,385,cs),
(134,586,o),
(233,707,o),
(390,707,cs),
(548,707,o),
(647,586,o),
(647,385,cs),
(647,183,o),
(548,61,o),
(390,61,cs)
);
}
);
width = 781;
},
{
layerId = m006;
shapes = (
{
closed = 1;
nodes = (
(681,-12,o),
(843,148,o),
(843,384,cs),
(843,620,o),
(681,780,o),
(445,780,cs),
(209,780,o),
(47,620,o),
(47,384,cs),
(47,148,o),
(209,-12,o),
(445,-12,cs)
);
},
{
closed = 1;
nodes = (
(822,27,l),
(750,27,o),
(673,51,o),
(661,86,c),
(515,0,l),
(571,-107,o),
(664,-131,o),
(822,-131,c)
);
},
{
closed = 1;
nodes = (
(327,146,o),
(271,210,o),
(271,384,cs),
(271,558,o),
(327,622,o),
(445,622,cs),
(563,622,o),
(619,558,o),
(619,384,cs),
(619,210,o),
(563,146,o),
(445,146,cs)
);
}
);
width = 890;
}
);
unicode = 81;
},
{
glyphname = R;
lastChange = "2023-07-29 11:10:29 +0000";
layers = (
{
layerId = m002;
shapes = (
{
closed = 1;
nodes = (
(264,0,l),
(264,620,l),
(385,620,ls),
(436,620,o),
(474,584,o),
(474,539,cs),
(474,494,o),
(437,461,o),
(383,461,cs),
(240,460,l),
(240,312,l),
(385,312,ls),
(524,312,o),
(697,364,o),
(697,540,cs),
(697,716,o),
(524,768,o),
(385,768,cs),
(48,768,l),
(48,0,l)
);
},
{
closed = 1;
nodes = (
(701,0,l),
(554,359,l),
(338,359,l),
(461,0,l)
);
}
);
width = 737;
},
{
layerId = "FF3CDF8C-30AF-45D8-A678-B4DEB13CF6DF";
shapes = (
{
closed = 1;
nodes = (
(130,0,l),
(130,696,l),
(313,696,ls),
(390,696,o),
(443,639,o),
(443,556,cs),
(443,478,o),
(389,423,o),
(311,422,cs),
(106,420,l),
(106,348,l),
(274,348,ls),
(433,348,o),
(527,425,o),
(527,557,cs),
(527,689,o),
(433,768,o),
(274,768,cs),
(46,768,l),
(46,0,l)
);
},
{
closed = 1;
nodes = (
(521,0,l),
(365,384,l),
(281,384,l),
(433,0,l)
);
}
);
width = 561;
},
{
layerId = "91CAC535-5FDC-455D-97CC-19853562EC83";
shapes = (
{
closed = 1;
nodes = (
(110,0,l),
(110,728,l),
(332,728,ls),
(416,728,o),
(473,663,o),
(473,567,cs),
(473,476,o),
(415,413,o),
(330,412,cs),
(86,409,l),
(86,371,l),
(319,371,ls),
(443,371,o),
(517,445,o),
(517,569,cs),
(517,694,o),
(443,768,o),
(319,768,cs),
(66,768,l),
(66,0,l)
);
},
{
closed = 1;
nodes = (
(517,0,l),
(342,384,l),
(298,384,l),
(467,0,l)
);
}
);
width = 572;
},
{
layerId = m004;
shapes = (
{
closed = 1;
nodes = (
(123,0,l),
(123,725,l),
(397,725,ls),
(500,725,o),
(569,660,o),
(569,565,cs),
(569,478,o),
(503,412,o),
(394,411,cs),
(94,409,l),
(94,367,l),
(382,367,ls),
(528,367,o),
(611,445,o),
(611,566,cs),
(611,689,o),
(528,768,o),
(382,768,cs),
(81,768,l),
(81,0,l)
);
},
{
closed = 1;
nodes = (
(611,0,l),
(398,387,l),
(356,387,l),
(563,0,l)
);
}
);
width = 679;
},
{
layerId = m005;
shapes = (
{
closed = 1;
nodes = (
(148,0,l),
(148,697,l),
(386,697,ls),
(482,697,o),
(547,640,o),
(547,558,cs),
(547,484,o),
(486,426,o),
(384,425,cs),
(120,423,l),
(120,353,l),
(354,353,ls),
(525,353,o),
(631,422,o),
(631,560,cs),
(631,698,o),
(526,768,o),
(354,768,cs),
(65,768,l),
(65,0,l)
);
},
{
closed = 1;
nodes = (
(627,0,l),
(430,378,l),
(347,378,l),
(537,0,l)
);
}
);
width = 683;
},
{
layerId = m006;
shapes = (
{
closed = 1;
nodes = (
(275,0,l),
(275,618,l),
(447,618,ls),
(517,618,o),
(567,582,o),
(567,539,cs),
(567,494,o),
(516,462,o),
(444,462,cs),
(246,461,l),
(246,311,l),
(442,311,ls),
(607,311,o),
(787,363,o),
(787,540,cs),
(787,717,o),
(605,768,o),
(442,768,cs),
(62,768,l),
(62,0,l)
);
},
{
closed = 1;
nodes = (
(790,0,l),
(607,358,l),
(394,358,l),
(554,0,l)
);
}
);
width = 838;
}
);
unicode = 82;
},
{
glyphname = S;
lastChange = "2023-07-29 11:00:45 +0000";
layers = (
{
layerId = m002;
shapes = (
{
closed = 1;
nodes = (
(517,-12,o),
(636,96,o),
(636,240,cs),
(636,552,o),
(240,455,o),
(240,569,cs),
(240,603,o),
(276,624,o),
(337,624,cs),
(409,624,o),
(457,600,o),
(481,552,c),
(607,655,l),
(522,746,o),
(450,780,o),
(337,780,cs),
(159,781,o),
(36,684,o),
(36,540,cs),
(36,240,o),
(433,324,o),
(433,209,cs),
(433,161,o),
(397,144,o),
(312,144,cs),
(240,144,o),
(180,180,o),
(144,240,c),
(6,137,l),
(83,36,o),
(187,-12,o),
(337,-12,cs)
);
}
);
width = 672;
},
{
background = {
shapes = (
{
closed = 1;
nodes = (
(405,-9,o),
(488,64,o),
(488,187,cs),
(488,285,o),
(423,359,o),
(320,386,cs),
(181,422,o),
(121,468,o),
(121,539,cs),
(121,604,o),
(168,658,o),
(253,658,cs),
(327,658,o),
(388,604,o),
(402,525,c),
(469,546,l),
(421,670,o),
(364,715,o),
(257,715,cs),
(137,715,o),
(55,639,o),
(55,528,cs),
(55,428,o),
(118,368,o),
(263,328,cs),
(376,297,o),
(418,253,o),
(418,165,c),
(418,99,o),
(367,51,o),
(281,51,c),
(194,51,o),
(148,82,o),
(103,195,c),
(36,173,l),
(64,64,o),
(159,-11,o),
(270,-11,c)
);
}
);
};
layerId = "FF3CDF8C-30AF-45D8-A678-B4DEB13CF6DF";
shapes = (
{
closed = 1;
nodes = (
(408,-12,o),
(504,58,o),
(504,192,cs),
(504,504,o),
(107,372,o),
(107,588,cs),
(107,659,o),
(159,720,o),
(251,720,cs),
(332,720,o),
(396,660,o),
(420,576,c),
(492,600,l),
(432,732,o),
(373,780,o),
(256,780,cs),
(125,780,o),
(35,697,o),
(35,588,cs),
(35,300,o),
(432,432,o),
(432,192,cs),
(432,108,o),
(372,48,o),
(276,48,cs),
(203,48,o),
(119,101,o),
(83,209,c),
(11,185,l),
(47,65,o),
(154,-12,o),
(276,-12,cs)
);
}
);
width = 539;
},
{
layerId = "91CAC535-5FDC-455D-97CC-19853562EC83";
shapes = (
{
closed = 1;
nodes = (
(435,-12,o),
(528,71,o),
(528,192,cs),
(528,492,o),
(103,335,o),
(103,588,cs),
(103,673,o),
(179,740,o),
(275,740,cs),
(361,740,o),
(439,675,o),
(466,580,c),
(511,599,l),
(454,725,o),
(384,780,o),
(280,780,cs),
(156,780,o),
(59,696,o),
(59,588,cs),
(59,294,o),
(484,445,o),
(484,192,cs),
(484,100,o),
(403,28,o),
(300,28,cs),
(197,28,o),
(115,92,o),
(79,200,c),
(35,185,l),
(70,68,o),
(178,-12,o),
(300,-12,cs)
);
}
);
width = 583;
},
{
layerId = m004;
shapes = (
{
closed = 1;
nodes = (
(519,-12,o),
(630,62,o),
(630,187,cs),
(630,491,o),
(117,339,o),
(117,590,cs),
(117,674,o),
(212,743,o),
(329,743,cs),
(432,743,o),
(529,677,o),
(562,581,c),
(610,594,l),
(541,730,o),
(455,780,o),
(335,780,cs),
(190,780,o),
(74,698,o),
(74,593,cs),
(74,303,o),
(587,452,o),
(587,190,cs),
(587,97,o),
(485,25,o),
(361,25,cs),
(236,25,o),
(135,85,o),
(91,200,c),
(45,190,l),
(85,70,o),
(215,-12,o),
(360,-12,cs)
);
}
);
width = 698;
},
{
background = {
shapes = (
{
closed = 1;
nodes = (
(405,-9,o),
(488,64,o),
(488,187,cs),
(488,285,o),
(423,359,o),
(320,386,cs),
(181,422,o),
(121,468,o),
(121,539,cs),
(121,604,o),
(168,658,o),
(253,658,cs),
(327,658,o),
(388,604,o),
(402,525,c),
(469,546,l),
(421,670,o),
(364,715,o),
(257,715,cs),
(137,715,o),
(55,639,o),
(55,528,cs),
(55,428,o),
(118,368,o),
(263,328,cs),
(376,297,o),
(418,253,o),
(418,165,c),
(418,99,o),
(367,51,o),
(281,51,c),
(194,51,o),
(148,82,o),
(103,195,c),
(36,173,l),
(64,64,o),
(159,-11,o),
(270,-11,c)
);
}
);
};
layerId = m005;
shapes = (
{
closed = 1;
nodes = (
(505,-12,o),
(620,74,o),
(620,203,cs),
(620,508,o),
(129,370,o),
(129,584,cs),
(129,654,o),
(204,709,o),
(315,709,cs),
(417,709,o),
(499,653,o),
(529,573,c),
(602,612,l),
(530,733,o),
(453,780,o),
(321,780,cs),
(166,780,o),
(54,693,o),
(54,577,cs),
(54,283,o),
(545,415,o),
(545,196,cs),
(545,116,o),
(463,59,o),
(344,59,cs),
(240,59,o),
(142,115,o),
(99,211,c),
(25,174,l),
(69,59,o),
(199,-12,o),
(344,-12,cs)
);
}
);
width = 672;
},
{
layerId = m006;
shapes = (
{
closed = 1;
nodes = (
(596,-12,o),
(732,97,o),
(732,241,cs),
(732,553,o),
(250,457,o),
(250,569,cs),
(250,602,o),
(304,622,o),
(386,622,cs),
(471,622,o),
(540,601,o),
(571,551,c),
(700,656,l),
(606,746,o),
(521,780,o),
(387,780,cs),
(189,780,o),
(48,684,o),
(48,539,cs),
(48,239,o),
(531,322,o),
(531,209,cs),
(531,162,o),
(476,146,o),
(370,146,cs),
(276,146,o),
(198,182,o),
(155,241,c),
(14,136,l),
(95,35,o),
(221,-12,o),
(393,-12,cs)
);
}
);
width = 780;
}
);
unicode = 83;
},
{
glyphname = T;
lastChange = "2023-07-29 11:00:45 +0000";
layers = (
{
hints = (
{
horizontal = 1;
origin = (0,3);
target = up;
type = BottomGhost;
},
{
origin = (0,3);
target = (0,0);
type = Stem;
},
{
horizontal = 1;
origin = (1,2);
target = (1,3);
type = Stem;
}
);
layerId = m002;
shapes = (
{
closed = 1;
nodes = (
(444,0,l),
(444,624,l),
(228,624,l),
(228,0,l)
);
},
{
closed = 1;
nodes = (
(648,600,l),
(648,768,l),
(24,768,l),
(24,600,l)
);
}
);
width = 672;
},
{
hints = (
{
origin = (0,3);
target = (0,0);
type = Stem;
},
{
horizontal = 1;
origin = (1,2);
target = (1,3);
type = Stem;
},
{
horizontal = 1;
origin = (0,3);
target = up;
type = BottomGhost;
}
);
layerId = "FF3CDF8C-30AF-45D8-A678-B4DEB13CF6DF";
shapes = (
{
closed = 1;
nodes = (
(312,0,l),
(312,720,l),
(227,720,l),
(227,0,l)
);
},
{
closed = 1;
nodes = (
(528,696,l),
(528,768,l),
(11,768,l),
(11,696,l)
);
}
);
width = 539;
},
{
hints = (
{
origin = (0,3);
target = (0,0);
type = Stem;
},
{
horizontal = 1;
origin = (1,2);
target = (1,3);
type = Stem;
},
{
horizontal = 1;
origin = (0,3);
target = up;
type = BottomGhost;
}
);
layerId = "91CAC535-5FDC-455D-97CC-19853562EC83";
shapes = (
{
closed = 1;
nodes = (
(312,0,l),
(312,746,l),
(268,746,l),
(268,0,l)
);
},
{
closed = 1;
nodes = (
(539,728,l),
(539,768,l),
(44,768,l),
(44,728,l)
);
}
);
width = 583;
},
{
hints = (
{
origin = (0,3);
target = (0,0);
type = Stem;
},
{
horizontal = 1;
origin = (1,2);
target = (1,3);
type = Stem;
},
{
horizontal = 1;
origin = (0,3);
target = up;
type = BottomGhost;
}
);
layerId = m004;
shapes = (
{
closed = 1;
nodes = (
(368,0,l),
(368,747,l),
(326,747,l),
(326,0,l)
);
},
{
closed = 1;
nodes = (
(642,727,l),
(642,768,l),
(56,768,l),
(56,727,l)
);
}
);
width = 698;
},
{
hints = (
{
origin = (0,3);
target = (0,0);
type = Stem;
},
{
horizontal = 1;
origin = (1,2);
target = (1,3);
type = Stem;
},
{
horizontal = 1;
origin = (0,3);
target = up;
type = BottomGhost;
}
);
layerId = m005;
shapes = (
{
closed = 1;
nodes = (
(377,0,l),
(377,713,l),
(293,713,l),
(293,0,l)
);
},
{
closed = 1;
nodes = (
(642,692,l),
(642,768,l),
(30,768,l),
(30,692,l)
);
}
);
width = 672;
},
{
hints = (
{
horizontal = 1;
origin = (0,3);
target = up;
type = BottomGhost;
},
{
origin = (0,3);
target = (0,0);
type = Stem;
},
{
horizontal = 1;
origin = (1,2);
target = (1,3);
type = Stem;
}
);
layerId = m006;
shapes = (
{
closed = 1;
nodes = (
(496,0,l),
(496,622,l),
(283,622,l),
(283,0,l)
);
},
{
closed = 1;
nodes = (
(747,598,l),
(747,768,l),
(33,768,l),
(33,598,l)
);
}
);
width = 780;
}
);
unicode = 84;
},
{
glyphname = U;
lastChange = "2023-07-29 11:00:45 +0000";
layers = (
{
hints = (
{
horizontal = 1;
origin = (0,13);
target = down;
type = TopGhost;
},
{
origin = (0,13);
target = (0,12);
type = Stem;
},
{
origin = (0,4);
target = (0,3);
type = Stem;
}
);
layerId = m002;
shapes = (
{
closed = 1;
nodes = (
(556,-11,o),
(672,100,o),
(672,288,cs),
(672,768,l),
(497,768,l),
(497,288,ls),
(497,205,o),
(455,156,o),
(384,156,cs),
(309,156,o),
(264,205,o),
(264,288,cs),
(264,768,l),
(48,768,l),
(48,288,l),
(48,99,o),
(164,-12,o),
(360,-12,cs)
);
}
);
width = 720;
},
{
hints = (
{
origin = (0,13);
target = (0,12);
type = Stem;
},
{
origin = (0,4);
target = (0,3);
type = Stem;
},
{
horizontal = 1;
origin = (0,12);
target = down;
type = TopGhost;
}
);
layerId = "FF3CDF8C-30AF-45D8-A678-B4DEB13CF6DF";
shapes = (
{
closed = 1;
nodes = (
(446,-11,o),
(538,83,o),
(538,240,cs),
(538,768,l),
(454,768,l),
(454,237,ls),
(454,113,o),
(406,60,o),
(295,60,cs),
(180,60,o),
(129,113,o),
(129,237,cs),
(129,768,l),
(45,768,l),
(45,240,l),
(45,82,o),
(137,-12,o),
(291,-12,cs)
);
}
);
width = 583;
},
{
hints = (
{
origin = (0,13);
target = (0,12);
type = Stem;
},
{
origin = (0,4);
target = (0,3);
type = Stem;
},
{
horizontal = 1;
origin = (0,12);
target = down;
type = TopGhost;
}
);
layerId = "91CAC535-5FDC-455D-97CC-19853562EC83";
shapes = (
{
closed = 1;
nodes = (
(447,-12,o),
(539,91,o),
(539,240,cs),
(539,768,l),
(495,768,l),
(495,237,ls),
(495,113,o),
(416,28,o),
(302,28,cs),
(188,28,o),
(110,113,o),
(110,237,cs),
(110,768,l),
(66,768,l),
(66,240,l),
(66,90,o),
(157,-12,o),
(302,-12,cs)
);
}
);
width = 605;
},
{
hints = (
{
origin = (0,13);
target = (0,12);
type = Stem;
},
{
origin = (0,4);
target = (0,3);
type = Stem;
},
{
horizontal = 1;
origin = (0,12);
target = down;
type = TopGhost;
}
);
layerId = m004;
shapes = (
{
closed = 1;
nodes = (
(532,-12,o),
(641,87,o),
(641,235,cs),
(641,768,l),
(597,768,l),
(597,232,ls),
(597,103,o),
(498,29,o),
(359,29,cs),
(222,29,o),
(124,103,o),
(124,232,cs),
(124,768,l),
(82,768,l),
(82,235,l),
(82,85,o),
(191,-12,o),
(361,-12,cs)
);
}
);
width = 723;
},
{
hints = (
{
origin = (0,13);
target = (0,12);
type = Stem;
},
{
origin = (0,4);
target = (0,3);
type = Stem;
},
{
horizontal = 1;
origin = (0,12);
target = down;
type = TopGhost;
}
);
layerId = m005;
shapes = (
{
closed = 1;
nodes = (
(537,-12,o),
(649,91,o),
(649,251,cs),
(649,768,l),
(567,768,l),
(567,249,ls),
(567,134,o),
(493,64,o),
(360,64,cs),
(223,64,o),
(148,134,o),
(148,249,cs),
(148,768,l),
(65,768,l),
(65,251,l),
(65,90,o),
(176,-12,o),
(357,-12,cs)
);
}
);
width = 714;
},
{
hints = (
{
horizontal = 1;
origin = (0,13);
target = down;
type = TopGhost;
},
{
origin = (0,13);
target = (0,12);
type = Stem;
},
{
origin = (0,4);
target = (0,3);
type = Stem;
}
);
layerId = m006;
shapes = (
{
closed = 1;
nodes = (
(637,-12,o),
(770,100,o),
(770,289,cs),
(770,768,l),
(594,768,l),
(594,289,ls),
(594,207,o),
(535,158,o),
(438,158,cs),
(337,158,o),
(275,207,o),
(275,289,cs),
(275,768,l),
(62,768,l),
(62,289,l),
(62,100,o),
(194,-12,o),
(416,-12,cs)
);
}
);
width = 832;
}
);
unicode = 85;
},
{
glyphname = V;
lastChange = "2023-07-29 11:00:45 +0000";
layers = (
{
layerId = "FF3CDF8C-30AF-45D8-A678-B4DEB13CF6DF";
shapes = (
{
closed = 1;
nodes = (
(316,0,l),
(539,768,l),
(450,768,l),
(262,103,l),
(288,103,l),
(100,768,l),
(11,768,l),
(232,0,l)
);
}
);
width = 550;
},
{
layerId = m002;
shapes = (
{
closed = 1;
nodes = (
(505,0,l),
(757,768,l),
(565,768,l),
(393,228,l),
(423,228,l),
(264,768,l),
(24,768,l),
(276,0,l)
);
}
);
width = 781;
},
{
layerId = "91CAC535-5FDC-455D-97CC-19853562EC83";
shapes = (
{
closed = 1;
nodes = (
(326,0,l),
(561,768,l),
(515,768,l),
(288,5,l),
(320,5,l),
(90,768,l),
(44,768,l),
(282,0,l)
);
}
);
width = 605;
},
{
layerId = m004;
shapes = (
{
closed = 1;
nodes = (
(383,0,l),
(665,768,l),
(620,768,l),
(342,27,l),
(381,27,l),
(99,768,l),
(56,768,l),
(342,0,l)
);
}
);
width = 721;
},
{
layerId = m005;
shapes = (
{
closed = 1;
nodes = (
(388,0,l),
(663,768,l),
(575,768,l),
(330,76,l),
(365,76,l),
(118,768,l),
(30,768,l),
(305,0,l)
);
}
);
width = 693;
},
{
layerId = m006;
shapes = (
{
closed = 1;
nodes = (
(556,0,l),
(853,768,l),
(661,768,l),
(441,231,l),
(477,231,l),
(269,768,l),
(33,768,l),
(331,0,l)
);
}
);
width = 886;
}
);
unicode = 86;
},
{
glyphname = W;
lastChange = "2023-07-29 11:00:45 +0000";
layers = (
{
background = {
shapes = (
{
closed = 1;
nodes = (
(592,0,l),
(759,704,l),
(693,704,l),
(561,137,l),
(440,704,l),
(363,704,l),
(529,0,l)
);
}
);
};
layerId = "FF3CDF8C-30AF-45D8-A678-B4DEB13CF6DF";
shapes = (
{
closed = 1;
nodes = (
(250,0,l),
(432,768,l),
(360,768,l),
(216,149,l),
(84,768,l),
(0,768,l),
(181,0,l)
);
},
{
closed = 1;
nodes = (
(610,0,l),
(792,768,l),
(720,768,l),
(576,149,l),
(444,768,l),
(384,768,l),
(384,667,l),
(541,0,l)
);
}
);
width = 792;
},
{
layerId = m002;
shapes = (
{
closed = 1;
nodes = (
(426,0,l),
(642,768,l),
(480,768,l),
(360,300,l),
(240,768,l),
(24,768,l),
(240,0,l)
);
},
{
closed = 1;
nodes = (
(853,0,l),
(1069,768,l),
(901,768,l),
(781,300,l),
(661,768,l),
(492,768,l),
(492,612,l),
(667,0,l)
);
}
);
width = 1093;
},
{
layerId = "91CAC535-5FDC-455D-97CC-19853562EC83";
shapes = (
{
closed = 1;
nodes = (
(272,0,l),
(453,768,l),
(407,768,l),
(249,79,l),
(90,768,l),
(44,768,l),
(226,0,l)
);
},
{
closed = 1;
nodes = (
(643,0,l),
(825,768,l),
(779,768,l),
(620,79,l),
(453,768,l),
(416,768,l),
(432,667,l),
(597,0,l)
);
}
);
width = 869;
},
{
layerId = m004;
shapes = (
{
closed = 1;
nodes = (
(321,0,l),
(536,768,l),
(488,768,l),
(296,88,l),
(101,768,l),
(57,768,l),
(274,0,l)
);
},
{
closed = 1;
nodes = (
(764,0,l),
(981,768,l),
(933,768,l),
(740,88,l),
(534,768,l),
(498,768,l),
(519,673,l),
(717,0,l)
);
}
);
width = 1038;
},
{
background = {
shapes = (
{
closed = 1;
nodes = (
(592,0,l),
(759,704,l),
(693,704,l),
(561,137,l),
(440,704,l),
(363,704,l),
(529,0,l)
);
}
);
};
layerId = m005;
shapes = (
{
closed = 1;
nodes = (
(315,0,l),
(534,768,l),
(459,768,l),
(279,144,l),
(107,768,l),
(23,768,l),
(241,0,l)
);
},
{
closed = 1;
nodes = (
(754,0,l),
(973,768,l),
(898,768,l),
(718,144,l),
(542,768,l),
(480,768,l),
(488,654,l),
(681,0,l)
);
}
);
width = 996;
},
{
layerId = m006;
shapes = (
{
closed = 1;
nodes = (
(467,0,l),
(716,768,l),
(553,768,l),
(399,304,l),
(246,768,l),
(32,768,l),
(282,0,l)
);
},
{
closed = 1;
nodes = (
(963,0,l),
(1213,768,l),
(1044,768,l),
(890,304,l),
(734,768,l),
(567,768,l),
(571,611,l),
(778,0,l)
);
}
);
width = 1245;
}
);
unicode = 87;
},
{
glyphname = X;
lastChange = "2023-07-29 11:00:45 +0000";
layers = (
{
layerId = "FF3CDF8C-30AF-45D8-A678-B4DEB13CF6DF";
shapes = (
{
closed = 1;
nodes = (
(105,0,l),
(298,348,l),
(322,384,l),
(550,768,l),
(454,768,l),
(273,456,l),
(249,432,l),
(9,0,l)
);
},
{
closed = 1;
nodes = (
(574,0,l),
(117,770,l),
(21,770,l),
(478,0,l)
);
}
);
width = 583;
},
{
layerId = m002;
shapes = (
{
closed = 1;
nodes = (
(252,0,l),
(421,276,l),
(505,384,l),
(769,768,l),
(553,768,l),
(396,528,l),
(302,408,l),
(36,0,l)
);
},
{
closed = 1;
nodes = (
(793,0,l),
(288,770,l),
(36,770,l),
(541,0,l)
);
}
);
width = 829;
},
{
layerId = "91CAC535-5FDC-455D-97CC-19853562EC83";
shapes = (
{
closed = 1;
nodes = (
(107,0,l),
(297,365,l),
(320,396,l),
(517,768,l),
(466,768,l),
(290,432,l),
(271,409,l),
(55,0,l)
);
},
{
closed = 1;
nodes = (
(550,0,l),
(108,770,l),
(57,770,l),
(499,0,l)
);
}
);
width = 605;
},
{
layerId = m004;
shapes = (
{
closed = 1;
nodes = (
(121,0,l),
(350,367,l),
(375,392,l),
(606,768,l),
(556,768,l),
(344,433,l),
(325,420,l),
(70,0,l)
);
},
{
closed = 1;
nodes = (
(647,0,l),
(120,770,l),
(72,770,l),
(598,0,l)
);
}
);
width = 717;
},
{
layerId = m005;
shapes = (
{
closed = 1;
nodes = (
(130,0,l),
(360,341,l),
(390,391,l),
(648,768,l),
(553,768,l),
(339,459,l),
(311,413,l),
(35,0,l)
);
},
{
closed = 1;
nodes = (
(682,0,l),
(140,770,l),
(44,770,l),
(586,0,l)
);
}
);
width = 717;
},
{
layerId = m006;
shapes = (
{
closed = 1;
nodes = (
(262,0,l),
(470,274,l),
(554,384,l),
(854,768,l),
(638,768,l),
(444,530,l),
(352,408,l),
(46,0,l)
);
},
{
closed = 1;
nodes = (
(885,0,l),
(295,770,l),
(47,770,l),
(636,0,l)
);
}
);
width = 931;
}
);
unicode = 88;
},
{
glyphname = Y;
lastChange = "2023-07-29 11:00:45 +0000";
layers = (
{
layerId = "FF3CDF8C-30AF-45D8-A678-B4DEB13CF6DF";
shapes = (
{
closed = 1;
nodes = (
(562,768,l),
(466,768,l),
(285,396,l),
(106,768,l),
(10,768,l),
(286,228,l)
);
},
{
closed = 1;
nodes = (
(327,0,l),
(327,360,l),
(243,360,l),
(243,0,l)
);
}
);
width = 572;
},
{
layerId = m002;
shapes = (
{
closed = 1;
nodes = (
(744,768,l),
(540,768,l),
(408,516,l),
(264,768,l),
(24,768,l),
(384,144,l)
);
},
{
closed = 1;
nodes = (
(492,0,l),
(492,444,l),
(276,444,l),
(276,0,l)
);
}
);
width = 768;
},
{
layerId = "91CAC535-5FDC-455D-97CC-19853562EC83";
shapes = (
{
closed = 1;
nodes = (
(583,768,l),
(531,768,l),
(308,389,l),
(85,768,l),
(33,768,l),
(308,311,l)
);
},
{
closed = 1;
nodes = (
(330,0,l),
(330,372,l),
(286,372,l),
(286,0,l)
);
}
);
width = 616;
},
{
layerId = m004;
shapes = (
{
closed = 1;
nodes = (
(694,768,l),
(642,768,l),
(367,379,l),
(92,768,l),
(42,768,l),
(368,290,l)
);
},
{
closed = 1;
nodes = (
(389,0,l),
(389,359,l),
(347,359,l),
(347,0,l)
);
}
);
width = 736;
},
{
layerId = m005;
shapes = (
{
closed = 1;
nodes = (
(689,768,l),
(594,768,l),
(356,420,l),
(120,768,l),
(24,768,l),
(357,256,l)
);
},
{
closed = 1;
nodes = (
(398,0,l),
(398,386,l),
(314,386,l),
(314,0,l)
);
}
);
width = 713;
},
{
layerId = m006;
shapes = (
{
closed = 1;
nodes = (
(847,768,l),
(642,768,l),
(460,519,l),
(268,768,l),
(30,768,l),
(438,141,l)
);
},
{
closed = 1;
nodes = (
(545,0,l),
(545,446,l),
(332,446,l),
(332,0,l)
);
}
);
width = 877;
}
);
unicode = 89;
},
{
glyphname = Z;
lastChange = "2023-07-29 11:00:45 +0000";
layers = (
{
layerId = "FF3CDF8C-30AF-45D8-A678-B4DEB13CF6DF";
shapes = (
{
closed = 1;
nodes = (
(459,0,l),
(459,72,l),
(86,72,l),
(86,36,l),
(459,696,l),
(459,768,l),
(38,768,l),
(38,696,l),
(387,696,l),
(387,732,l),
(14,72,l),
(14,0,l)
);
}
);
width = 473;
},
{
layerId = m002;
shapes = (
{
closed = 1;
nodes = (
(684,0,l),
(684,156,l),
(276,156,l),
(276,60,l),
(696,684,l),
(696,768,l),
(72,768,l),
(72,612,l),
(456,612,l),
(456,696,l),
(48,96,l),
(48,0,l)
);
}
);
width = 744;
},
{
layerId = "91CAC535-5FDC-455D-97CC-19853562EC83";
shapes = (
{
closed = 1;
nodes = (
(528,0,l),
(528,40,l),
(89,40,l),
(89,20,l),
(528,720,l),
(528,768,l),
(66,768,l),
(66,728,l),
(493,728,l),
(493,748,l),
(44,36,l),
(44,0,l)
);
}
);
width = 594;
},
{
layerId = m004;
shapes = (
{
closed = 1;
nodes = (
(631,0,l),
(631,43,l),
(98,43,l),
(98,23,l),
(631,713,l),
(631,768,l),
(81,768,l),
(81,725,l),
(601,725,l),
(601,746,l),
(55,46,l),
(55,0,l)
);
}
);
width = 714;
},
{
layerId = m005;
shapes = (
{
closed = 1;
nodes = (
(591,0,l),
(591,73,l),
(109,73,l),
(109,32,l),
(592,707,l),
(592,768,l),
(61,768,l),
(61,695,l),
(520,695,l),
(520,733,l),
(33,57,l),
(33,0,l)
);
}
);
width = 636;
},
{
layerId = m006;
shapes = (
{
closed = 1;
nodes = (
(774,0,l),
(774,158,l),
(279,158,l),
(279,61,l),
(785,684,l),
(785,768,l),
(83,768,l),
(83,610,l),
(552,610,l),
(552,695,l),
(55,97,l),
(55,0,l)
);
}
);
width = 845;
}
);
unicode = 90;
},
{
glyphname = Q.ss02;
kernLeft = u_r_r;
lastChange = "2023-07-29 11:00:45 +0000";
layers = (
{
layerId = m002;
shapes = (
{
closed = 1;
nodes = (
(591,-12,o),
(732,148,o),
(732,384,cs),
(732,620,o),
(591,780,o),
(384,780,cs),
(177,780,o),
(36,620,o),
(36,384,cs),
(36,148,o),
(177,-12,o),
(384,-12,cs)
);
},
{
closed = 1;
nodes = (
(720,24,l),
(684,24,o),
(624,48,o),
(612,84,cs),
(604,108,o),
(596,132,o),
(588,156,c),
(428,72,l),
(441,48,o),
(455,24,o),
(468,0,cs),
(527,-106,o),
(600,-132,o),
(720,-132,c)
);
},
{
closed = 1;
nodes = (
(297,144,o),
(264,209,o),
(264,384,cs),
(264,559,o),
(297,624,o),
(384,624,cs),
(471,624,o),
(504,559,o),
(504,384,cs),
(504,209,o),
(471,144,o),
(384,144,cs)
);
}
);
width = 768;
},
{
layerId = "FF3CDF8C-30AF-45D8-A678-B4DEB13CF6DF";
shapes = (
{
closed = 1;
nodes = (
(490,-12,o),
(607,148,o),
(607,384,cs),
(607,620,o),
(490,780,o),
(319,780,cs),
(148,780,o),
(31,620,o),
(31,384,cs),
(31,148,o),
(148,-12,o),
(319,-12,cs)
);
},
{
closed = 1;
nodes = (
(571,-120,l),
(451,-120,o),
(372,-121,o),
(362,0,cs),
(361,8,o),
(361,16,o),
(360,24,c),
(276,24,l),
(277,16,o),
(277,8,o),
(278,0,cs),
(292,-168,o),
(403,-192,o),
(571,-192,c)
);
},
{
closed = 1;
nodes = (
(190,60,o),
(115,181,o),
(115,385,cs),
(115,588,o),
(190,708,o),
(319,708,cs),
(448,708,o),
(523,588,o),
(523,385,cs),
(523,181,o),
(448,60,o),
(319,60,cs)
);
}
);
width = 638;
},
{
layerId = "91CAC535-5FDC-455D-97CC-19853562EC83";
shapes = (
{
closed = 1;
nodes = (
(493,-12,o),
(605,149,o),
(605,384,cs),
(605,619,o),
(493,780,o),
(330,780,cs),
(167,780,o),
(55,619,o),
(55,384,cs),
(55,149,o),
(167,-12,o),
(330,-12,cs)
);
},
{
closed = 1;
nodes = (
(616,-66,l),
(556,-66,o),
(513,-14,o),
(471,46,cs),
(415,124,o),
(360,216,o),
(264,216,c),
(264,176,l),
(338,176,o),
(386,96,o),
(439,22,cs),
(486,-44,o),
(537,-106,o),
(616,-106,c)
);
},
{
closed = 1;
nodes = (
(193,28,o),
(99,173,o),
(99,385,cs),
(99,596,o),
(193,740,o),
(330,740,cs),
(467,740,o),
(561,596,o),
(561,385,cs),
(561,173,o),
(467,28,o),
(330,28,cs)
);
}
);
width = 660;
},
{
layerId = m004;
shapes = (
{
closed = 1;
nodes = (
(587,-12,o),
(720,148,o),
(720,384,cs),
(720,620,o),
(587,780,o),
(395,780,cs),
(202,780,o),
(69,620,o),
(69,384,cs),
(69,148,o),
(202,-12,o),
(395,-12,cs)
);
},
{
closed = 1;
nodes = (
(738,-101,l),
(671,-101,o),
(633,-68,o),
(564,10,cs),
(502,80,o),
(419,132,o),
(295,133,c),
(309,116,l),
(397,115,o),
(474,76,o),
(529,8,cs),
(609,-91,o),
(652,-143,o),
(738,-143,c)
);
},
{
closed = 1;
nodes = (
(227,31,o),
(110,174,o),
(110,385,cs),
(110,596,o),
(227,737,o),
(395,737,cs),
(562,737,o),
(679,596,o),
(679,385,cs),
(679,173,o),
(562,31,o),
(395,31,cs)
);
}
);
width = 789;
},
{
layerId = m005;
shapes = (
{
closed = 1;
nodes = (
(593,-12,o),
(731,149,o),
(731,384,cs),
(731,619,o),
(593,780,o),
(390,780,cs),
(188,780,o),
(50,619,o),
(50,384,cs),
(50,149,o),
(188,-12,o),
(390,-12,cs)
);
},
{
closed = 1;
nodes = (
(712,-56,l),
(607,-56,o),
(529,-25,o),
(495,44,cs),
(467,100,o),
(437,156,o),
(388,163,c),
(329,121,l),
(370,114,o),
(400,52,o),
(420,7,cs),
(461,-85,o),
(559,-130,o),
(712,-130,c)
);
},
{
closed = 1;
nodes = (
(233,61,o),
(134,183,o),
(134,385,cs),
(134,586,o),
(233,707,o),
(390,707,cs),
(548,707,o),
(647,586,o),
(647,385,cs),
(647,183,o),
(548,61,o),
(390,61,cs)
);
}
);
width = 781;
},
{
layerId = m006;
shapes = (
{
closed = 1;
nodes = (
(681,-12,o),
(843,148,o),
(843,384,cs),
(843,620,o),
(681,780,o),
(445,780,cs),
(209,780,o),
(47,620,o),
(47,384,cs),
(47,148,o),
(209,-12,o),
(445,-12,cs)
);
},
{
closed = 1;
nodes = (
(832,27,l),
(779,27,o),
(712,51,o),
(688,85,cs),
(671,109,o),
(646,135,o),
(619,157,c),
(468,72,l),
(501,44,o),
(526,22,o),
(545,-5,cs),
(615,-106,o),
(695,-132,o),
(832,-132,c)
);
},
{
closed = 1;
nodes = (
(327,146,o),
(271,210,o),
(271,384,cs),
(271,558,o),
(327,622,o),
(445,622,cs),
(563,622,o),
(619,558,o),
(619,384,cs),
(619,210,o),
(563,146,o),
(445,146,cs)
);
}
);
width = 890;
}
);
},
{
glyphname = a;
lastChange = "2023-07-29 11:00:45 +0000";
layers = (
{
layerId = m002;
shapes = (
{
closed = 1;
nodes = (
(267,-12,o),
(352,29,o),
(396,83,c),
(396,156,l),
(361,122,o),
(321,101,o),
(288,101,cs),
(250,101,o),
(228,123,o),
(228,161,cs),
(228,221,o),
(283,252,o),
(396,252,c),
(396,348,l),
(157,348,o),
(36,279,o),
(36,144,cs),
(36,57,o),
(110,-12,o),
(204,-12,cs)
);
},
{
closed = 1;
nodes = (
(564,0,l),
(554,29,o),
(552,45,o),
(552,72,cs),
(552,396,ls),
(552,507,o),
(476,564,o),
(324,564,cs),
(180,564,o),
(99,520,o),
(60,420,c),
(221,377,l),
(233,427,o),
(255,444,o),
(300,444,cs),
(348,445,o),
(372,424,o),
(372,383,cs),
(371,72,ls),
(371,45,o),
(374,29,o),
(384,0,c)
);
}
);
width = 600;
},
{
layerId = "FF3CDF8C-30AF-45D8-A678-B4DEB13CF6DF";
shapes = (
{
closed = 1;
nodes = (
(254,-12,o),
(312,27,o),
(386,119,c),
(386,180,l),
(331,105,o),
(258,53,o),
(206,53,cs),
(153,53,o),
(110,88,o),
(110,132,cs),
(110,225,o),
(174,267,o),
(386,312,c),
(386,372,l),
(132,322,o),
(38,260,o),
(38,144,cs),
(38,57,o),
(107,-12,o),
(194,-12,cs)
);
},
{
closed = 1;
nodes = (
(446,0,l),
(436,29,o),
(434,45,o),
(434,72,cs),
(434,372,ls),
(434,493,o),
(367,564,o),
(254,564,cs),
(168,564,o),
(84,515,o),
(55,444,c),
(110,408,l),
(150,478,o),
(185,504,o),
(242,504,cs),
(313,505,o),
(362,459,o),
(362,383,cs),
(362,72,ls),
(362,45,o),
(364,29,o),
(374,0,c)
);
}
);
width = 484;
},
{
layerId = "91CAC535-5FDC-455D-97CC-19853562EC83";
shapes = (
{
closed = 1;
nodes = (
(262,-12,o),
(299,13,o),
(375,108,c),
(375,156,l),
(321,81,o),
(267,24,o),
(194,24,cs),
(141,24,o),
(99,71,o),
(99,132,cs),
(99,264,o),
(236,275,o),
(375,324,c),
(375,360,l),
(236,312,o),
(55,300,o),
(55,132,cs),
(55,51,o),
(117,-12,o),
(194,-12,cs)
);
},
{
closed = 1;
nodes = (
(418,0,l),
(407,29,o),
(407,45,o),
(407,72,cs),
(407,396,ls),
(407,502,o),
(346,564,o),
(249,564,cs),
(168,564,o),
(105,518,o),
(73,440,c),
(106,420,l),
(143,496,o),
(185,528,o),
(249,528,cs),
(319,528,o),
(363,481,o),
(363,396,cs),
(363,72,ls),
(363,45,o),
(363,29,o),
(374,0,c)
);
}
);
width = 473;
},
{
layerId = m004;
shapes = (
{
closed = 1;
nodes = (
(315,-12,o),
(355,18,o),
(448,116,c),
(448,167,l),
(382,87,o),
(318,29,o),
(227,29,cs),
(163,29,o),
(112,74,o),
(112,129,cs),
(112,250,o),
(286,274,o),
(448,326,c),
(448,367,l),
(294,313,o),
(68,284,o),
(68,136,cs),
(68,53,o),
(142,-12,o),
(232,-12,cs)
);
},
{
closed = 1;
nodes = (
(493,0,l),
(479,28,o),
(479,45,o),
(479,72,cs),
(479,385,ls),
(479,497,o),
(407,564,o),
(295,564,cs),
(200,564,o),
(127,516,o),
(89,444,c),
(121,419,l),
(165,493,o),
(216,526,o),
(297,526,cs),
(381,526,o),
(435,477,o),
(435,391,cs),
(435,72,ls),
(435,45,o),
(434,32,o),
(448,0,c)
);
}
);
width = 561;
},
{
layerId = m005;
shapes = (
{
closed = 1;
nodes = (
(309,-12,o),
(369,20,o),
(458,105,c),
(458,161,l),
(392,95,o),
(315,48,o),
(243,48,cs),
(179,48,o),
(129,87,o),
(129,139,cs),
(129,246,o),
(243,268,o),
(458,305,c),
(458,360,l),
(214,323,o),
(54,288,o),
(54,137,cs),
(54,54,o),
(133,-12,o),
(233,-12,cs)
);
},
{
closed = 1;
nodes = (
(523,0,l),
(510,29,o),
(509,48,o),
(509,72,cs),
(509,391,ls),
(509,501,o),
(432,564,o),
(304,564,cs),
(199,564,o),
(111,516,o),
(75,436,c),
(132,408,l),
(178,477,o),
(224,504,o),
(295,504,cs),
(380,504,o),
(435,463,o),
(435,390,cs),
(435,72,ls),
(435,42,o),
(437,28,o),
(449,0,c)
);
}
);
width = 577;
},
{
layerId = m006;
shapes = (
{
closed = 1;
nodes = (
(318,-12,o),
(407,28,o),
(470,82,c),
(470,156,l),
(422,122,o),
(369,102,o),
(320,102,cs),
(270,102,o),
(238,124,o),
(238,162,cs),
(238,222,o),
(326,252,o),
(470,251,c),
(470,348,l),
(205,349,o),
(48,279,o),
(48,144,cs),
(48,57,o),
(134,-12,o),
(242,-12,cs)
);
},
{
closed = 1;
nodes = (
(638,0,l),
(626,29,o),
(624,44,o),
(624,72,cs),
(624,396,ls),
(624,507,o),
(537,564,o),
(368,564,cs),
(211,564,o),
(119,519,o),
(75,420,c),
(234,376,l),
(256,427,o),
(288,443,o),
(346,443,cs),
(416,443,o),
(444,419,o),
(444,383,cs),
(443,72,ls),
(443,43,o),
(446,28,o),
(458,0,c)
);
}
);
width = 686;
}
);
unicode = 97;
},
{
glyphname = b;
kernRight = r_r_r;
lastChange = "2023-07-29 11:00:45 +0000";
layers = (
{
layerId = m002;
shapes = (
{
closed = 1;
nodes = (
(517,-12,o),
(600,108,o),
(600,276,cs),
(600,444,o),
(541,564,o),
(397,564,cs),
(337,564,o),
(276,528,o),
(216,456,c),
(216,360,l),
(240,408,o),
(288,456,o),
(325,456,cs),
(385,456,o),
(409,396,o),
(409,276,cs),
(409,156,o),
(385,96,o),
(325,96,cs),
(276,96,o),
(240,120,o),
(240,192,c),
(204,96,l),
(228,24,o),
(325,-12,o),
(373,-12,cs)
);
},
{
closed = 1;
nodes = (
(180,0,l),
(198,48,o),
(224,108,o),
(240,156,c),
(240,768,l),
(48,768,l),
(48,120,ls),
(48,74,o),
(48,49,o),
(48,0,c)
);
}
);
width = 636;
},
{
layerId = "FF3CDF8C-30AF-45D8-A678-B4DEB13CF6DF";
shapes = (
{
closed = 1;
nodes = (
(380,-12,o),
(469,115,o),
(469,276,cs),
(469,437,o),
(380,564,o),
(265,564,cs),
(203,564,o),
(148,529,o),
(97,432,c),
(97,372,l),
(173,478,o),
(207,504,o),
(265,504,cs),
(339,504,o),
(397,404,o),
(397,276,cs),
(397,152,o),
(339,48,o),
(265,48,cs),
(204,48,o),
(170,79,o),
(97,180,c),
(97,120,l),
(148,23,o),
(203,-12,o),
(265,-12,cs)
);
},
{
closed = 1;
nodes = (
(109,0,l),
(119,49,o),
(121,74,o),
(121,120,cs),
(121,768,l),
(49,768,l),
(49,120,ls),
(49,74,o),
(47,49,o),
(37,0,c)
);
}
);
width = 506;
},
{
layerId = "91CAC535-5FDC-455D-97CC-19853562EC83";
shapes = (
{
closed = 1;
nodes = (
(370,-12,o),
(451,82,o),
(451,276,cs),
(451,470,o),
(370,564,o),
(248,564,cs),
(187,564,o),
(133,517,o),
(77,432,c),
(77,384,l),
(166,506,o),
(197,528,o),
(259,528,cs),
(337,528,o),
(407,442,o),
(407,276,cs),
(407,115,o),
(337,24,o),
(259,24,cs),
(197,24,o),
(166,46,o),
(77,168,c),
(77,120,l),
(133,35,o),
(187,-12,o),
(248,-12,cs)
);
},
{
closed = 1;
nodes = (
(99,0,l),
(109,49,o),
(110,74,o),
(110,120,cs),
(110,768,l),
(66,768,l),
(66,120,ls),
(66,74,o),
(65,49,o),
(55,0,c)
);
}
);
width = 506;
},
{
layerId = m004;
shapes = (
{
closed = 1;
nodes = (
(437,-12,o),
(533,95,o),
(533,276,cs),
(533,458,o),
(435,564,o),
(290,564,cs),
(214,564,o),
(150,518,o),
(85,429,c),
(85,381,l),
(195,502,o),
(231,524,o),
(308,524,cs),
(402,524,o),
(489,429,o),
(489,276,cs),
(489,128,o),
(402,28,o),
(308,28,cs),
(233,28,o),
(197,53,o),
(84,171,c),
(85,123,l),
(154,31,o),
(217,-12,o),
(291,-12,cs)
);
},
{
closed = 1;
nodes = (
(115,0,l),
(125,49,o),
(125,69,o),
(125,116,cs),
(125,768,l),
(82,768,l),
(82,120,ls),
(82,75,o),
(81,50,o),
(68,0,c)
);
}
);
width = 601;
},
{
layerId = m005;
shapes = (
{
closed = 1;
nodes = (
(454,-12,o),
(557,95,o),
(557,276,cs),
(557,457,o),
(455,564,o),
(312,564,cs),
(242,564,o),
(176,526,o),
(109,438,c),
(109,376,l),
(206,478,o),
(245,507,o),
(316,507,cs),
(407,507,o),
(482,424,o),
(482,276,cs),
(482,132,o),
(407,45,o),
(316,45,cs),
(244,45,o),
(205,68,o),
(110,176,c),
(109,114,l),
(175,26,o),
(242,-12,o),
(312,-12,cs)
);
},
{
closed = 1;
nodes = (
(127,0,l),
(140,51,o),
(142,84,o),
(142,128,cs),
(142,768,l),
(68,768,l),
(68,120,ls),
(68,74,o),
(66,48,o),
(54,0,c)
);
}
);
width = 611;
},
{
layerId = m006;
shapes = (
{
closed = 1;
nodes = (
(580,-12,o),
(680,108,o),
(680,276,cs),
(680,444,o),
(602,564,o),
(436,564,cs),
(367,564,o),
(295,531,o),
(222,457,c),
(222,360,l),
(271,409,o),
(322,455,o),
(372,455,cs),
(449,455,o),
(490,395,o),
(490,276,cs),
(490,157,o),
(449,97,o),
(372,97,cs),
(310,97,o),
(268,121,o),
(244,192,c),
(211,95,l),
(249,23,o),
(354,-12,o),
(414,-12,cs)
);
},
{
closed = 1;
nodes = (
(194,0,l),
(214,48,o),
(238,109,o),
(253,157,c),
(253,768,l),
(62,768,l),
(62,120,ls),
(62,63,o),
(61,40,o),
(59,0,c)
);
}
);
width = 728;
}
);
unicode = 98;
},
{
glyphname = c;
kernRight = r_r_r;
lastChange = "2023-07-29 11:00:45 +0000";
layers = (
{
layerId = "FF3CDF8C-30AF-45D8-A678-B4DEB13CF6DF";
shapes = (
{
closed = 1;
nodes = (
(347,-12,o),
(424,49,o),
(446,137,c),
(386,161,l),
(369,98,o),
(313,48,o),
(254,48,cs),
(169,48,o),
(110,141,o),
(110,276,c),
(110,411,o),
(169,504,o),
(254,504,cs),
(315,504,o),
(361,454,o),
(367,389,c),
(439,416,l),
(418,504,o),
(342,564,o),
(254,564,cs),
(125,564,o),
(38,447,o),
(38,276,cs),
(39,105,o),
(126,-12,o),
(254,-12,cs)
);
}
);
width = 484;
},
{
layerId = m002;
shapes = (
{
closed = 1;
nodes = (
(396,-12,o),
(504,36,o),
(540,180,c),
(420,204,l),
(408,143,o),
(372,113,o),
(324,113,cs),
(264,113,o),
(228,163,o),
(228,276,c),
(228,389,o),
(252,439,o),
(312,439,cs),
(360,439,o),
(379,401,o),
(379,359,c),
(540,368,l),
(528,488,o),
(444,564,o),
(312,564,cs),
(156,564,o),
(36,456,o),
(36,276,cs),
(36,96,o),
(156,-12,o),
(312,-12,cs)
);
}
);
width = 576;
},
{
layerId = "91CAC535-5FDC-455D-97CC-19853562EC83";
shapes = (
{
closed = 1;
nodes = (
(337,-12,o),
(406,43,o),
(429,137,c),
(391,154,l),
(369,70,o),
(319,28,o),
(254,28,cs),
(162,28,o),
(99,137,o),
(99,276,c),
(99,415,o),
(162,524,o),
(254,524,cs),
(314,524,o),
(374,468,o),
(381,397,c),
(423,412,l),
(400,502,o),
(327,564,o),
(254,564,cs),
(138,564,o),
(55,437,o),
(55,276,cs),
(56,115,o),
(139,-12,o),
(254,-12,cs)
);
}
);
width = 484;
},
{
layerId = m004;
shapes = (
{
closed = 1;
nodes = (
(400,-12,o),
(481,46,o),
(508,132,c),
(468,152,l),
(440,73,o),
(379,28,o),
(301,28,cs),
(189,28,o),
(112,136,o),
(112,276,c),
(112,416,o),
(190,524,o),
(302,524,cs),
(375,524,o),
(449,468,o),
(458,397,c),
(501,419,l),
(473,504,o),
(386,564,o),
(302,564,cs),
(166,564,o),
(68,440,o),
(68,276,cs),
(68,112,o),
(167,-12,o),
(302,-12,cs)
);
}
);
width = 576;
},
{
layerId = m005;
shapes = (
{
closed = 1;
nodes = (
(412,-12,o),
(501,43,o),
(528,147,c),
(466,167,l),
(443,92,o),
(379,52,o),
(306,52,cs),
(201,52,o),
(129,145,o),
(129,276,c),
(129,408,o),
(201,500,o),
(306,500,cs),
(379,500,o),
(441,449,o),
(448,387,c),
(521,403,l),
(495,499,o),
(405,564,o),
(306,564,cs),
(157,564,o),
(54,443,o),
(54,276,cs),
(54,109,o),
(158,-12,o),
(306,-12,cs)
);
}
);
width = 582;
},
{
layerId = m006;
shapes = (
{
closed = 1;
nodes = (
(462,-12,o),
(579,38,o),
(618,181,c),
(496,205,l),
(479,144,o),
(431,115,o),
(370,115,cs),
(289,115,o),
(238,164,o),
(238,276,c),
(238,388,o),
(278,437,o),
(359,437,cs),
(420,437,o),
(453,399,o),
(455,358,c),
(616,367,l),
(599,486,o),
(503,564,o),
(359,564,cs),
(182,564,o),
(48,456,o),
(48,276,cs),
(48,96,o),
(182,-12,o),
(359,-12,cs)
);
}
);
width = 666;
}
);
unicode = 99;
},
{
glyphname = d;
kernLeft = l_r_r;
lastChange = "2023-07-29 11:00:45 +0000";
layers = (
{
layerId = m002;
shapes = (
{
closed = 1;
nodes = (
(305,-12,o),
(361,12,o),
(421,84,c),
(421,168,l),
(397,120,o),
(337,108,o),
(312,108,cs),
(252,108,o),
(228,180,o),
(228,276,cs),
(228,372,o),
(252,444,o),
(312,444,cs),
(337,444,o),
(397,432,o),
(421,384,c),
(421,468,l),
(361,540,o),
(305,564,o),
(252,564,cs),
(128,564,o),
(36,437,o),
(36,276,cs),
(36,115,o),
(128,-12,o),
(252,-12,cs)
);
},
{
closed = 1;
nodes = (
(588,0,l),
(588,49,o),
(588,74,o),
(588,120,cs),
(588,768,l),
(396,768,l),
(396,120,ls),
(396,74,o),
(396,49,o),
(396,0,c)
);
}
);
width = 636;
},
{
layerId = "FF3CDF8C-30AF-45D8-A678-B4DEB13CF6DF";
shapes = (
{
closed = 1;
nodes = (
(303,-12,o),
(358,23,o),
(409,120,c),
(409,180,l),
(336,79,o),
(302,48,o),
(241,48,cs),
(167,48,o),
(109,152,o),
(109,276,cs),
(109,404,o),
(167,504,o),
(241,504,cs),
(299,504,o),
(333,478,o),
(409,372,c),
(409,432,l),
(358,529,o),
(303,564,o),
(241,564,cs),
(126,564,o),
(37,437,o),
(37,276,cs),
(37,115,o),
(126,-12,o),
(241,-12,cs)
);
},
{
closed = 1;
nodes = (
(469,0,l),
(459,49,o),
(457,74,o),
(457,120,cs),
(457,768,l),
(385,768,l),
(385,120,ls),
(385,74,o),
(387,49,o),
(397,0,c)
);
}
);
width = 506;
},
{
layerId = "91CAC535-5FDC-455D-97CC-19853562EC83";
shapes = (
{
closed = 1;
nodes = (
(319,-12,o),
(373,35,o),
(429,120,c),
(429,168,l),
(340,46,o),
(309,24,o),
(247,24,cs),
(169,24,o),
(99,115,o),
(99,276,cs),
(99,442,o),
(169,528,o),
(247,528,cs),
(309,528,o),
(340,506,o),
(429,384,c),
(429,432,l),
(373,517,o),
(319,564,o),
(258,564,cs),
(136,564,o),
(55,470,o),
(55,276,cs),
(55,82,o),
(136,-12,o),
(258,-12,cs)
);
},
{
closed = 1;
nodes = (
(440,0,l),
(440,49,o),
(440,74,o),
(440,120,cs),
(440,768,l),
(396,768,l),
(396,120,ls),
(396,74,o),
(396,49,o),
(396,0,c)
);
}
);
width = 506;
},
{
layerId = m004;
shapes = (
{
closed = 1;
nodes = (
(381,-12,o),
(446,28,o),
(516,124,c),
(516,174,l),
(406,54,o),
(370,26,o),
(294,26,cs),
(199,26,o),
(112,125,o),
(112,276,cs),
(112,432,o),
(199,526,o),
(294,526,cs),
(370,526,o),
(405,501,o),
(516,378,c),
(516,428,l),
(446,524,o),
(381,564,o),
(311,564,cs),
(164,564,o),
(68,458,o),
(68,276,cs),
(68,94,o),
(164,-12,o),
(311,-12,cs)
);
},
{
closed = 1;
nodes = (
(519,0,l),
(520,65,o),
(520,74,o),
(520,120,cs),
(520,768,l),
(476,768,l),
(476,120,ls),
(476,74,o),
(476,65,o),
(475,0,c)
);
}
);
width = 601;
},
{
layerId = m005;
shapes = (
{
closed = 1;
nodes = (
(371,-12,o),
(437,26,o),
(502,112,c),
(502,170,l),
(407,69,o),
(366,48,o),
(294,48,cs),
(204,48,o),
(129,137,o),
(129,276,cs),
(129,418,o),
(204,504,o),
(294,504,cs),
(367,504,o),
(408,481,o),
(502,382,c),
(502,440,l),
(437,526,o),
(371,564,o),
(299,564,cs),
(157,564,o),
(54,456,o),
(54,276,cs),
(54,96,o),
(157,-12,o),
(299,-12,cs)
);
},
{
closed = 1;
nodes = (
(551,0,l),
(544,53,o),
(543,74,o),
(543,120,cs),
(543,768,l),
(468,768,l),
(468,120,ls),
(468,74,o),
(469,53,o),
(476,0,c)
);
}
);
width = 610;
},
{
layerId = m006;
shapes = (
{
closed = 1;
nodes = (
(370,-12,o),
(437,12,o),
(507,83,c),
(507,168,l),
(461,121,o),
(397,109,o),
(356,109,cs),
(279,109,o),
(238,181,o),
(238,276,cs),
(238,371,o),
(279,443,o),
(356,443,cs),
(398,443,o),
(462,430,o),
(507,384,c),
(507,469,l),
(437,540,o),
(370,564,o),
(304,564,cs),
(156,564,o),
(48,437,o),
(48,276,cs),
(48,115,o),
(156,-12,o),
(304,-12,cs)
);
},
{
closed = 1;
nodes = (
(666,0,l),
(665,65,o),
(665,74,o),
(665,120,cs),
(665,768,l),
(475,768,l),
(475,120,ls),
(475,74,o),
(475,65,o),
(476,0,c)
);
}
);
width = 727;
}
);
unicode = 100;
},
{
glyphname = e;
kernLeft = l_r_r;
kernRight = r_r_r;
lastChange = "2023-07-29 11:00:45 +0000";
layers = (
{
layerId = m002;
shapes = (
{
closed = 1;
nodes = (
(428,-14,o),
(514,35,o),
(569,132,c),
(452,188,l),
(438,157,o),
(407,115,o),
(342,115,cs),
(283,115,o),
(227,154,o),
(227,264,cs),
(227,373,o),
(243,449,o),
(318,449,cs),
(366,449,o),
(406,397,o),
(382,287,c),
(438,341,l),
(204,341,l),
(204,240,l),
(576,240,l),
(576,248,o),
(576,256,o),
(576,276,cs),
(576,437,o),
(462,565,o),
(317,565,cs),
(160,565,o),
(36,437,o),
(36,276,cs),
(38,108,o),
(150,-9,o),
(313,-12,cs)
);
}
);
width = 612;
},
{
layerId = "FF3CDF8C-30AF-45D8-A678-B4DEB13CF6DF";
shapes = (
{
closed = 1;
nodes = (
(344,-14,o),
(415,32,o),
(464,120,c),
(410,147,l),
(383,92,o),
(331,48,o),
(266,48,cs),
(172,48,o),
(109,133,o),
(109,276,cs),
(109,420,o),
(169,504,o),
(260,504,cs),
(339,504,o),
(386,420,o),
(386,276,c),
(434,324,l),
(87,324,l),
(87,264,l),
(458,264,l),
(458,268,o),
(458,272,o),
(458,276,cs),
(458,467,o),
(390,564,o),
(258,564,cs),
(127,564,o),
(37,447,o),
(37,276,cs),
(39,108,o),
(127,-9,o),
(255,-12,cs)
);
}
);
width = 495;
},
{
layerId = "91CAC535-5FDC-455D-97CC-19853562EC83";
shapes = (
{
closed = 1;
nodes = (
(342,-12,o),
(390,25,o),
(439,113,c),
(404,132,l),
(378,70,o),
(330,24,o),
(265,24,cs),
(155,24,o),
(99,108,o),
(99,276,cs),
(99,426,o),
(160,528,o),
(247,528,cs),
(346,528,o),
(396,444,o),
(396,276,c),
(432,314,l),
(86,314,l),
(86,271,l),
(440,271,l),
(440,275,o),
(440,272,o),
(440,276,cs),
(440,467,o),
(374,564,o),
(247,564,cs),
(134,564,o),
(55,447,o),
(55,276,cs),
(55,89,o),
(123,-12,o),
(253,-12,cs)
);
}
);
width = 495;
},
{
layerId = m004;
shapes = (
{
closed = 1;
nodes = (
(411,-13,o),
(465,33,o),
(519,114,c),
(482,133,l),
(450,71,o),
(392,26,o),
(314,26,cs),
(179,26,o),
(112,115,o),
(112,277,cs),
(112,429,o),
(188,525,o),
(292,525,cs),
(406,525,o),
(475,449,o),
(476,275,c),
(518,316,l),
(97,316,l),
(97,271,l),
(520,271,l),
(520,275,o),
(520,274,o),
(520,276,cs),
(520,470,o),
(443,564,o),
(292,564,cs),
(160,564,o),
(68,448,o),
(68,276,cs),
(68,142,o),
(113,-11,o),
(301,-12,cs)
);
}
);
width = 588;
},
{
layerId = m005;
shapes = (
{
closed = 1;
nodes = (
(434,-13,o),
(501,48,o),
(547,119,c),
(490,148,l),
(458,94,o),
(398,50,o),
(321,50,cs),
(201,50,o),
(129,124,o),
(129,273,cs),
(129,413,o),
(201,505,o),
(307,505,cs),
(405,505,o),
(470,437,o),
(469,279,c),
(520,322,l),
(107,322,l),
(107,262,l),
(543,262,l),
(543,267,o),
(543,268,o),
(543,276,cs),
(543,460,o),
(461,564,o),
(306,564,cs),
(157,564,o),
(54,444,o),
(54,276,cs),
(54,75,o),
(172,-11,o),
(307,-12,cs)
);
}
);
width = 597;
},
{
layerId = m006;
shapes = (
{
closed = 1;
nodes = (
(498,-14,o),
(588,41,o),
(648,132,c),
(530,189,l),
(508,156,o),
(465,117,o),
(389,117,cs),
(305,117,o),
(237,155,o),
(237,264,cs),
(237,372,o),
(269,448,o),
(363,448,cs),
(434,448,o),
(484,396,o),
(462,287,c),
(524,341,l),
(212,341,l),
(212,239,l),
(654,239,l),
(654,247,o),
(654,255,o),
(654,276,cs),
(654,436,o),
(531,565,o),
(362,565,cs),
(185,565,o),
(48,437,o),
(48,276,cs),
(48,127,o),
(153,-9,o),
(360,-12,cs)
);
}
);
width = 702;
}
);
unicode = 101;
},
{
glyphname = f;
lastChange = "2023-07-29 11:00:45 +0000";
layers = (
{
layerId = m002;
shapes = (
{
closed = 1;
nodes = (
(325,0,l),
(325,576,ls),
(325,633,o),
(349,660,o),
(385,660,cs),
(399,660,o),
(413,657,o),
(420,653,c),
(420,780,l),
(386,790,o),
(367,792,o),
(325,792,cs),
(190,792,o),
(132,745,o),
(132,636,cs),
(132,0,l)
);
},
{
closed = 1;
nodes = (
(420,420,l),
(420,552,l),
(48,552,l),
(48,420,l)
);
}
);
width = 468;
},
{
layerId = "FF3CDF8C-30AF-45D8-A678-B4DEB13CF6DF";
shapes = (
{
closed = 1;
nodes = (
(189,0,l),
(189,660,ls),
(189,697,o),
(215,720,o),
(248,720,cs),
(271,720,o),
(289,718,o),
(309,715,c),
(309,768,l),
(298,775,o),
(266,780,o),
(237,780,cs),
(155,780,o),
(117,734,o),
(117,660,cs),
(117,0,l)
);
},
{
closed = 1;
nodes = (
(297,491,l),
(297,552,l),
(33,552,l),
(33,491,l)
);
}
);
width = 330;
},
{
layerId = "91CAC535-5FDC-455D-97CC-19853562EC83";
shapes = (
{
closed = 1;
nodes = (
(189,0,l),
(189,660,ls),
(189,705,o),
(215,740,o),
(258,740,cs),
(270,740,o),
(286,737,o),
(308,733,c),
(308,774,l),
(297,777,o),
(279,780,o),
(261,780,cs),
(190,780,o),
(145,731,o),
(145,660,cs),
(145,0,l)
);
},
{
closed = 1;
nodes = (
(297,512,l),
(297,552,l),
(55,552,l),
(55,512,l)
);
}
);
width = 374;
},
{
layerId = m004;
shapes = (
{
closed = 1;
nodes = (
(220,0,l),
(220,669,ls),
(220,709,o),
(252,739,o),
(304,739,cs),
(319,739,o),
(340,736,o),
(364,733,c),
(364,771,l),
(352,775,o),
(332,779,o),
(312,779,cs),
(231,779,o),
(177,731,o),
(177,663,cs),
(177,0,l)
);
},
{
closed = 1;
nodes = (
(351,512,l),
(351,552,l),
(68,552,l),
(68,512,l)
);
}
);
width = 447;
},
{
layerId = m005;
shapes = (
{
closed = 1;
nodes = (
(230,0,l),
(230,641,ls),
(230,687,o),
(261,718,o),
(306,718,cs),
(326,718,o),
(347,715,o),
(373,711,c),
(373,774,l),
(358,780,o),
(327,783,o),
(298,783,cs),
(205,783,o),
(155,735,o),
(155,654,cs),
(155,0,l)
);
},
{
closed = 1;
nodes = (
(359,487,l),
(359,552,l),
(51,552,l),
(51,487,l)
);
}
);
width = 422;
},
{
layerId = m006;
shapes = (
{
closed = 1;
nodes = (
(351,0,l),
(351,574,ls),
(351,632,o),
(381,659,o),
(425,659,cs),
(442,659,o),
(460,656,o),
(472,652,c),
(472,780,l),
(438,790,o),
(415,792,o),
(370,792,cs),
(226,792,o),
(160,745,o),
(160,635,cs),
(160,0,l)
);
},
{
closed = 1;
nodes = (
(469,418,l),
(469,552,l),
(58,552,l),
(58,418,l)
);
}
);
width = 532;
}
);
unicode = 102;
},
{
glyphname = g;
lastChange = "2023-07-29 11:00:45 +0000";
layers = (
{
layerId = m002;
shapes = (
{
closed = 1;
nodes = (
(511,-168,o),
(600,-107,o),
(600,12,cs),
(600,115,o),
(520,159,o),
(336,161,cs),
(230,163,o),
(204,170,o),
(204,197,cs),
(204,221,o),
(224,228,o),
(300,228,c),
(300,264,l),
(152,264,o),
(36,201,o),
(36,120,cs),
(36,52,o),
(110,24,o),
(312,12,cs),
(404,8,o),
(444,-4,o),
(444,-28,cs),
(444,-59,o),
(408,-72,o),
(324,-72,cs),
(211,-72,o),
(161,-58,o),
(161,-24,cs),
(161,2,o),
(184,15,o),
(247,24,c),
(247,40,l),
(91,40,o),
(12,8,o),
(12,-56,cs),
(12,-130,o),
(113,-168,o),
(312,-168,cs)
);
},
{
closed = 1;
nodes = (
(458,228,o),
(552,289,o),
(552,393,cs),
(552,501,o),
(458,564,o),
(300,564,cs),
(142,564,o),
(48,501,o),
(48,395,cs),
(48,290,o),
(142,228,o),
(300,228,cs)
);
},
{
closed = 1;
nodes = (
(253,312,o),
(216,348,o),
(216,396,cs),
(216,443,o),
(253,480,o),
(300,480,cs),
(347,480,o),
(384,444,o),
(384,396,cs),
(384,349,o),
(347,312,o),
(300,312,cs)
);
},
{
closed = 1;
nodes = (
(636,564,l),
(564,564,o),
(492,528,o),
(480,468,c),
(516,444,l),
(528,460,o),
(542,467,o),
(564,467,cs),
(590,467,o),
(610,454,o),
(636,420,c)
);
}
);
width = 648;
},
{
layerId = "FF3CDF8C-30AF-45D8-A678-B4DEB13CF6DF";
shapes = (
{
closed = 1;
nodes = (
(409,-182,o),
(493,-129,o),
(493,-38,cs),
(493,51,o),
(409,106,o),
(266,108,cs),
(164,109,o),
(120,121,o),
(120,149,cs),
(120,180,o),
(152,204,o),
(192,204,c),
(192,240,l),
(111,228,o),
(54,187,o),
(54,137,cs),
(54,77,o),
(117,47,o),
(265,39,cs),
(375,34,o),
(431,7,o),
(431,-41,cs),
(431,-94,o),
(376,-120,o),
(266,-120,cs),
(153,-120,o),
(96,-95,o),
(96,-47,cs),
(96,7,o),
(140,33,o),
(259,50,c),
(259,79,l),
(119,79,o),
(24,24,o),
(24,-56,cs),
(24,-131,o),
(123,-182,o),
(266,-182,cs)
);
},
{
closed = 1;
nodes = (
(367,192,o),
(445,266,o),
(445,374,cs),
(445,487,o),
(367,564,o),
(252,564,cs),
(138,564,o),
(60,488,o),
(60,376,cs),
(60,267,o),
(138,192,o),
(252,192,cs)
);
},
{
closed = 1;
nodes = (
(177,245,o),
(126,298,o),
(126,374,cs),
(126,451,o),
(177,503,o),
(252,503,cs),
(328,503,o),
(379,451,o),
(379,374,cs),
(379,298,o),
(328,245,o),
(252,245,cs)
);
},
{
closed = 1;
nodes = (
(493,564,l),
(463,578,o),
(397,556,o),
(361,504,c),
(385,479,l),
(404,495,o),
(441,508,o),
(467,508,cs),
(476,508,o),
(487,506,o),
(493,504,c)
);
}
);
width = 517;
},
{
layerId = "91CAC535-5FDC-455D-97CC-19853562EC83";
shapes = (
{
closed = 1;
nodes = (
(402,-182,o),
(484,-129,o),
(484,-38,cs),
(484,47,o),
(411,98,o),
(288,100,cs),
(181,101,o),
(127,120,o),
(127,156,cs),
(127,187,o),
(145,216,o),
(185,216,c),
(185,240,l),
(117,230,o),
(83,200,o),
(83,151,cs),
(83,93,o),
(138,68,o),
(287,60,cs),
(394,55,o),
(440,25,o),
(440,-41,cs),
(440,-108,o),
(381,-142,o),
(264,-142,cs),
(153,-142,o),
(88,-107,o),
(88,-47,cs),
(88,16,o),
(135,53,o),
(211,68,c),
(211,92,l),
(108,76,o),
(44,31,o),
(44,-56,cs),
(44,-131,o),
(133,-182,o),
(264,-182,cs)
);
},
{
closed = 1;
nodes = (
(371,192,o),
(445,266,o),
(445,374,cs),
(445,487,o),
(371,564,o),
(263,564,cs),
(156,564,o),
(82,488,o),
(82,376,cs),
(82,267,o),
(156,192,o),
(263,192,cs)
);
},
{
closed = 1;
nodes = (
(181,232,o),
(126,292,o),
(126,378,cs),
(126,465,o),
(181,524,o),
(263,524,cs),
(346,524,o),
(401,465,o),
(401,378,c),
(401,292,o),
(346,232,o),
(263,232,cs)
);
},
{
closed = 1;
nodes = (
(495,560,l),
(465,574,o),
(399,552,o),
(363,500,c),
(387,487,l),
(406,503,o),
(443,516,o),
(469,516,cs),
(478,516,o),
(489,514,o),
(495,512,c)
);
}
);
width = 539;
},
{
layerId = m004;
shapes = (
{
closed = 1;
nodes = (
(477,-183,o),
(575,-131,o),
(575,-43,cs),
(575,18,o),
(524,95,o),
(346,97,cs),
(255,98,o),
(149,107,o),
(149,148,cs),
(149,180,o),
(170,209,o),
(216,209,c),
(216,237,l),
(138,225,o),
(104,193,o),
(104,148,cs),
(104,90,o),
(169,63,o),
(354,55,cs),
(470,50,o),
(529,22,o),
(529,-42,cs),
(529,-107,o),
(455,-139,o),
(314,-139,cs),
(180,-139,o),
(102,-106,o),
(102,-49,cs),
(102,15,o),
(163,48,o),
(248,64,c),
(248,91,l),
(131,81,o),
(56,31,o),
(56,-56,cs),
(56,-131,o),
(162,-183,o),
(315,-183,cs)
);
},
{
closed = 1;
nodes = (
(441,188,o),
(529,263,o),
(529,372,cs),
(529,486,o),
(441,564,o),
(315,564,cs),
(190,564,o),
(102,487,o),
(102,374,cs),
(102,264,o),
(190,188,o),
(315,188,cs)
);
},
{
closed = 1;
nodes = (
(215,230,o),
(147,289,o),
(147,374,cs),
(147,461,o),
(215,519,o),
(315,519,cs),
(417,519,o),
(484,460,o),
(484,374,c),
(484,289,o),
(417,230,o),
(315,230,cs)
);
},
{
closed = 1;
nodes = (
(588,561,l),
(554,576,o),
(475,556,o),
(430,505,c),
(459,488,l),
(481,503,o),
(526,517,o),
(559,517,cs),
(569,517,o),
(581,516,o),
(588,518,c)
);
}
);
width = 644;
},
{
layerId = m005;
shapes = (
{
closed = 1;
nodes = (
(490,-179,o),
(590,-124,o),
(590,-27,cs),
(590,66,o),
(492,112,o),
(354,115,cs),
(216,118,o),
(150,129,o),
(150,164,cs),
(150,193,o),
(181,216,o),
(229,216,c),
(229,246,l),
(137,238,o),
(79,198,o),
(79,141,cs),
(79,80,o),
(153,53,o),
(333,45,cs),
(468,39,o),
(522,12,o),
(522,-38,cs),
(522,-94,o),
(453,-121,o),
(320,-121,cs),
(185,-121,o),
(113,-93,o),
(113,-42,cs),
(113,11,o),
(167,40,o),
(286,54,c),
(286,77,l),
(139,68,o),
(39,25,o),
(39,-56,cs),
(39,-131,o),
(153,-179,o),
(319,-179,cs)
);
},
{
closed = 1;
nodes = (
(445,200,o),
(537,271,o),
(537,378,cs),
(537,490,o),
(445,564,o),
(309,564,cs),
(175,564,o),
(83,491,o),
(83,380,cs),
(83,272,o),
(175,200,o),
(309,200,cs)
);
},
{
closed = 1;
nodes = (
(216,253,o),
(153,306,o),
(153,381,cs),
(153,457,o),
(216,510,o),
(309,510,cs),
(402,510,o),
(466,458,o),
(466,381,cs),
(466,306,o),
(403,253,o),
(309,253,cs)
);
},
{
closed = 1;
nodes = (
(596,562,l),
(559,573,o),
(480,547,o),
(437,493,c),
(466,475,l),
(490,492,o),
(534,503,o),
(564,503,cs),
(574,503,o),
(588,499,o),
(596,489,c)
);
}
);
width = 635;
},
{
layerId = m006;
shapes = (
{
closed = 1;
nodes = (
(582,-168,o),
(688,-107,o),
(688,13,cs),
(688,103,o),
(618,158,o),
(409,162,cs),
(264,165,o),
(223,170,o),
(223,198,cs),
(223,221,o),
(246,228,o),
(328,228,c),
(328,265,l),
(173,265,o),
(55,202,o),
(55,120,cs),
(55,54,o),
(130,23,o),
(363,12,cs),
(490,6,o),
(531,-6,o),
(531,-28,cs),
(531,-58,o),
(482,-71,o),
(372,-71,cs),
(236,-71,o),
(173,-57,o),
(173,-24,cs),
(173,1,o),
(205,14,o),
(288,23,c),
(288,39,l),
(143,39,o),
(22,17,o),
(22,-56,cs),
(22,-130,o),
(140,-168,o),
(361,-168,cs)
);
},
{
closed = 1;
nodes = (
(525,229,o),
(632,290,o),
(632,393,cs),
(632,501,o),
(525,564,o),
(349,564,cs),
(173,564,o),
(66,501,o),
(66,395,cs),
(66,291,o),
(173,229,o),
(349,229,cs)
);
},
{
closed = 1;
nodes = (
(284,314,o),
(234,349,o),
(234,396,cs),
(234,442,o),
(283,479,o),
(349,479,cs),
(415,479,o),
(464,443,o),
(464,396,cs),
(464,351,o),
(415,314,o),
(349,314,cs)
);
},
{
closed = 1;
nodes = (
(723,564,l),
(649,564,o),
(564,527,o),
(543,467,c),
(583,443,l),
(599,459,o),
(622,466,o),
(650,466,cs),
(677,466,o),
(698,452,o),
(723,418,c)
);
}
);
width = 745;
}
);
unicode = 103;
},
{
glyphname = h;
kernLeft = l_a_s;
lastChange = "2023-07-29 11:00:45 +0000";
layers = (
{
layerId = m002;
shapes = (
{
closed = 1;
nodes = (
(240,0,l),
(240,372,l),
(234,420,l),
(234,768,l),
(48,768,l),
(48,0,l)
);
},
{
closed = 1;
nodes = (
(565,0,l),
(565,372,ls),
(565,508,o),
(498,564,o),
(414,564,cs),
(314,564,o),
(256,491,o),
(216,443,c),
(216,353,l),
(232,381,o),
(274,425,o),
(318,425,cs),
(359,425,o),
(375,399,o),
(375,348,c),
(373,0,l)
);
}
);
width = 613;
},
{
layerId = "FF3CDF8C-30AF-45D8-A678-B4DEB13CF6DF";
shapes = (
{
closed = 1;
nodes = (
(127,0,l),
(127,420,l),
(121,444,l),
(121,768,l),
(49,768,l),
(49,0,l)
);
},
{
closed = 1;
nodes = (
(446,0,l),
(446,372,ls),
(446,508,o),
(379,564,o),
(295,564,cs),
(195,564,o),
(137,479,o),
(97,431,c),
(97,372,l),
(125,404,o),
(197,495,o),
(275,495,cs),
(348,495,o),
(374,432,o),
(374,372,c),
(374,0,l)
);
}
);
width = 495;
},
{
layerId = "91CAC535-5FDC-455D-97CC-19853562EC83";
shapes = (
{
closed = 1;
nodes = (
(110,0,l),
(110,420,l),
(110,444,l),
(110,768,l),
(66,768,l),
(66,0,l)
);
},
{
closed = 1;
nodes = (
(418,0,l),
(418,384,ls),
(418,497,o),
(360,564,o),
(264,564,cs),
(164,564,o),
(113,468,o),
(77,420,c),
(77,367,l),
(112,415,o),
(177,520,o),
(255,520,cs),
(342,520,o),
(374,463,o),
(374,372,cs),
(374,0,l)
);
}
);
width = 484;
},
{
layerId = m004;
shapes = (
{
closed = 1;
nodes = (
(124,0,l),
(124,425,l),
(125,447,l),
(125,768,l),
(81,768,l),
(81,0,l)
);
},
{
closed = 1;
nodes = (
(492,0,l),
(492,380,ls),
(492,501,o),
(423,564,o),
(307,564,cs),
(187,564,o),
(127,471,o),
(84,423,c),
(84,371,l),
(128,414,o),
(206,518,o),
(301,518,cs),
(409,518,o),
(449,455,o),
(449,375,cs),
(449,0,l)
);
}
);
width = 573;
},
{
layerId = m005;
shapes = (
{
closed = 1;
nodes = (
(146,0,l),
(146,409,l),
(142,438,l),
(142,768,l),
(67,768,l),
(67,0,l)
);
},
{
closed = 1;
nodes = (
(523,0,l),
(523,379,ls),
(523,502,o),
(447,564,o),
(340,564,cs),
(220,564,o),
(153,475,o),
(108,428,c),
(108,365,l),
(147,407,o),
(228,493,o),
(320,493,cs),
(414,493,o),
(448,442,o),
(448,366,c),
(448,0,l)
);
}
);
width = 590;
},
{
layerId = m006;
shapes = (
{
closed = 1;
nodes = (
(253,0,l),
(253,371,l),
(247,419,l),
(247,768,l),
(62,768,l),
(62,0,l)
);
},
{
closed = 1;
nodes = (
(638,0,l),
(638,372,ls),
(638,508,o),
(560,564,o),
(457,564,cs),
(337,564,o),
(270,492,o),
(222,443,c),
(222,353,l),
(248,383,o),
(306,423,o),
(365,423,cs),
(426,423,o),
(450,398,o),
(450,347,c),
(448,0,l)
);
}
);
width = 700;
}
);
unicode = 104;
},
{
glyphname = i;
kernLeft = l_a_s;
lastChange = "2023-07-29 11:00:45 +0000";
layers = (
{
layerId = m002;
shapes = (
{
closed = 1;
nodes = (
(240,0,l),
(240,552,l),
(48,552,l),
(48,0,l)
);
},
{
closed = 1;
nodes = (
(240,600,l),
(240,768,l),
(48,768,l),
(48,600,l)
);
}
);
width = 288;
},
{
layerId = "FF3CDF8C-30AF-45D8-A678-B4DEB13CF6DF";
shapes = (
{
closed = 1;
nodes = (
(135,0,l),
(135,552,l),
(63,552,l),
(63,0,l)
);
},
{
closed = 1;
nodes = (
(135,696,l),
(135,768,l),
(63,768,l),
(63,696,l)
);
}
);
width = 198;
},
{
layerId = "91CAC535-5FDC-455D-97CC-19853562EC83";
shapes = (
{
closed = 1;
nodes = (
(110,0,l),
(110,552,l),
(66,552,l),
(66,0,l)
);
},
{
closed = 1;
nodes = (
(110,684,l),
(110,768,l),
(66,768,l),
(66,684,l)
);
}
);
width = 176;
},
{
layerId = m004;
shapes = (
{
closed = 1;
nodes = (
(124,0,l),
(124,552,l),
(80,552,l),
(80,0,l)
);
},
{
closed = 1;
nodes = (
(124,698,l),
(124,768,l),
(80,768,l),
(80,698,l)
);
}
);
width = 204;
},
{
layerId = m005;
shapes = (
{
closed = 1;
nodes = (
(152,0,l),
(152,552,l),
(77,552,l),
(77,0,l)
);
},
{
closed = 1;
nodes = (
(152,667,l),
(152,768,l),
(77,768,l),
(77,667,l)
);
}
);
width = 229;
},
{
layerId = m006;
shapes = (
{
closed = 1;
nodes = (
(252,0,l),
(252,552,l),
(62,552,l),
(62,0,l)
);
},
{
closed = 1;
nodes = (
(252,598,l),
(252,768,l),
(62,768,l),
(62,598,l)
);
}
);
width = 314;
}
);
unicode = 105;
},
{
glyphname = j;
kernLeft = l_a_s;
lastChange = "2023-07-29 11:00:45 +0000";
layers = (
{
layerId = m002;
shapes = (
{
closed = 1;
nodes = (
(120,-204,o),
(240,-168,o),
(240,0,cs),
(240,552,l),
(48,552,l),
(48,12,ls),
(48,-36,o),
(24,-55,o),
(0,-55,cs),
(-8,-55,o),
(-12,-55,o),
(-24,-48,c),
(-24,-199,l),
(-5,-202,o),
(3,-204,o),
(24,-204,cs)
);
},
{
closed = 1;
nodes = (
(240,600,l),
(240,768,l),
(48,768,l),
(48,600,l)
);
}
);
width = 288;
},
{
layerId = "FF3CDF8C-30AF-45D8-A678-B4DEB13CF6DF";
shapes = (
{
closed = 1;
nodes = (
(111,-137,o),
(135,-82,o),
(135,0,cs),
(135,552,l),
(63,552,l),
(63,12,ls),
(63,-60,o),
(51,-72,o),
(27,-72,cs),
(15,-72,o),
(3,-71,o),
(-9,-67,c),
(-9,-132,l),
(3,-136,o),
(15,-137,o),
(27,-137,cs)
);
},
{
closed = 1;
nodes = (
(135,696,l),
(135,768,l),
(63,768,l),
(63,696,l)
);
}
);
width = 198;
},
{
layerId = "91CAC535-5FDC-455D-97CC-19853562EC83";
shapes = (
{
closed = 1;
nodes = (
(92,-185,o),
(88,-125,o),
(88,-43,cs),
(88,552,l),
(44,552,l),
(44,-57,ls),
(44,-129,o),
(32,-141,o),
(4,-141,cs),
(-4,-141,o),
(-31,-139,o),
(-43,-135,c),
(-55,-171,l),
(-43,-175,o),
(-14,-180,o),
(-8,-180,cs)
);
},
{
closed = 1;
nodes = (
(88,684,l),
(88,768,l),
(44,768,l),
(44,684,l)
);
}
);
width = 132;
},
{
layerId = m004;
shapes = (
{
closed = 1;
nodes = (
(108,-157,o),
(95,-100,o),
(95,-28,cs),
(95,552,l),
(51,552,l),
(51,-32,ls),
(51,-107,o),
(37,-118,o),
(3,-118,cs),
(-10,-118,o),
(-42,-116,o),
(-55,-113,c),
(-71,-150,l),
(-56,-154,o),
(-19,-157,o),
(-14,-157,cs)
);
},
{
closed = 1;
nodes = (
(95,698,l),
(95,768,l),
(51,768,l),
(51,698,l)
);
}
);
width = 146;
},
{
layerId = m005;
shapes = (
{
closed = 1;
nodes = (
(123,-177,o),
(140,-126,o),
(140,-24,cs),
(140,552,l),
(65,552,l),
(65,-27,ls),
(65,-94,o),
(50,-107,o),
(20,-107,cs),
(9,-107,o),
(-13,-106,o),
(-29,-101,c),
(-35,-169,l),
(-21,-173,o),
(2,-177,o),
(14,-177,cs)
);
},
{
closed = 1;
nodes = (
(140,667,l),
(140,768,l),
(65,768,l),
(65,667,l)
);
}
);
width = 206;
},
{
layerId = m006;
shapes = (
{
closed = 1;
nodes = (
(138,-205,o),
(248,-169,o),
(248,0,cs),
(248,552,l),
(58,552,l),
(58,13,ls),
(58,-35,o),
(32,-54,o),
(2,-54,cs),
(-7,-54,o),
(-18,-54,o),
(-32,-47,c),
(-35,-200,l),
(-14,-203,o),
(1,-205,o),
(22,-205,cs)
);
},
{
closed = 1;
nodes = (
(248,598,l),
(248,768,l),
(58,768,l),
(58,598,l)
);
}
);
width = 305;
}
);
unicode = 106;
},
{
glyphname = k;
lastChange = "2023-07-29 11:00:45 +0000";
layers = (
{
layerId = m002;
shapes = (
{
closed = 1;
nodes = (
(240,0,l),
(240,768,l),
(48,768,l),
(48,0,l)
);
},
{
closed = 1;
nodes = (
(618,0,l),
(433,420,l),
(300,276,l),
(415,0,l)
);
},
{
closed = 1;
nodes = (
(601,552,l),
(433,552,l),
(216,299,l),
(216,119,l)
);
}
);
width = 666;
},
{
layerId = "FF3CDF8C-30AF-45D8-A678-B4DEB13CF6DF";
shapes = (
{
closed = 1;
nodes = (
(122,0,l),
(122,768,l),
(50,768,l),
(50,0,l)
);
},
{
closed = 1;
nodes = (
(436,0,l),
(251,398,l),
(206,336,l),
(357,0,l)
);
},
{
closed = 1;
nodes = (
(416,552,l),
(332,552,l),
(98,251,l),
(98,156,l)
);
}
);
width = 474;
},
{
layerId = "91CAC535-5FDC-455D-97CC-19853562EC83";
shapes = (
{
closed = 1;
nodes = (
(110,0,l),
(110,768,l),
(66,768,l),
(66,0,l)
);
},
{
closed = 1;
nodes = (
(440,0,l),
(234,384,l),
(211,346,l),
(395,0,l)
);
},
{
closed = 1;
nodes = (
(416,552,l),
(363,552,l),
(86,236,l),
(86,175,l)
);
}
);
width = 484;
},
{
layerId = m004;
shapes = (
{
closed = 1;
nodes = (
(125,0,l),
(125,768,l),
(81,768,l),
(81,0,l)
);
},
{
closed = 1;
nodes = (
(520,0,l),
(270,387,l),
(249,349,l),
(476,0,l)
);
},
{
closed = 1;
nodes = (
(490,552,l),
(434,552,l),
(96,236,l),
(96,172,l)
);
}
);
width = 573;
},
{
layerId = m005;
shapes = (
{
closed = 1;
nodes = (
(143,0,l),
(143,768,l),
(68,768,l),
(68,0,l)
);
},
{
closed = 1;
nodes = (
(529,0,l),
(296,395,l),
(252,328,l),
(449,0,l)
);
},
{
closed = 1;
nodes = (
(503,552,l),
(416,552,l),
(114,254,l),
(114,158,l)
);
}
);
width = 578;
},
{
layerId = m006;
shapes = (
{
closed = 1;
nodes = (
(252,0,l),
(252,768,l),
(62,768,l),
(62,0,l)
);
},
{
closed = 1;
nodes = (
(692,0,l),
(465,421,l),
(335,275,l),
(491,0,l)
);
},
{
closed = 1;
nodes = (
(670,552,l),
(499,552,l),
(224,300,l),
(224,118,l)
);
}
);
width = 748;
}
);
unicode = 107;
},
{
glyphname = l;
kernLeft = l_a_s;
lastChange = "2023-07-29 11:00:45 +0000";
layers = (
{
layerId = m002;
shapes = (
{
closed = 1;
nodes = (
(240,0,l),
(240,768,l),
(48,768,l),
(48,0,l)
);
}
);
width = 288;
},
{
layerId = "FF3CDF8C-30AF-45D8-A678-B4DEB13CF6DF";
shapes = (
{
closed = 1;
nodes = (
(135,0,l),
(135,768,l),
(63,768,l),
(63,0,l)
);
}
);
width = 198;
},
{
layerId = "91CAC535-5FDC-455D-97CC-19853562EC83";
shapes = (
{
closed = 1;
nodes = (
(110,0,l),
(110,768,l),
(66,768,l),
(66,0,l)
);
}
);
width = 176;
},
{
layerId = m004;
shapes = (
{
closed = 1;
nodes = (
(124,0,l),
(124,768,l),
(80,768,l),
(80,0,l)
);
}
);
width = 204;
},
{
layerId = m005;
shapes = (
{
closed = 1;
nodes = (
(152,0,l),
(152,768,l),
(77,768,l),
(77,0,l)
);
}
);
width = 229;
},
{
layerId = m006;
shapes = (
{
closed = 1;
nodes = (
(252,0,l),
(252,768,l),
(62,768,l),
(62,0,l)
);
}
);
width = 314;
}
);
unicode = 108;
},
{
glyphname = m;
kernLeft = l_s_s;
lastChange = "2023-07-29 11:00:45 +0000";
layers = (
{
layerId = m002;
shapes = (
{
closed = 1;
nodes = (
(240,2,l),
(240,408,l),
(233,432,l),
(233,552,l),
(48,552,l),
(48,2,l)
);
},
{
closed = 1;
nodes = (
(564,0,l),
(564,372,ls),
(564,508,o),
(497,564,o),
(413,564,cs),
(313,564,o),
(255,491,o),
(216,443,c),
(216,353,l),
(231,381,o),
(274,425,o),
(317,425,cs),
(359,425,o),
(372,399,o),
(372,348,cs),
(372,0,l)
);
},
{
closed = 1;
nodes = (
(888,0,l),
(888,372,ls),
(888,508,o),
(821,564,o),
(737,564,cs),
(637,564,o),
(579,491,o),
(540,443,c),
(540,353,l),
(555,381,o),
(598,425,o),
(641,425,cs),
(683,425,o),
(696,399,o),
(696,348,cs),
(696,0,l)
);
}
);
width = 936;
},
{
layerId = "FF3CDF8C-30AF-45D8-A678-B4DEB13CF6DF";
shapes = (
{
closed = 1;
nodes = (
(114,0,l),
(114,420,l),
(108,444,l),
(108,552,l),
(36,552,l),
(36,0,l)
);
},
{
closed = 1;
nodes = (
(429,0,l),
(429,372,ls),
(429,508,o),
(363,564,o),
(282,564,cs),
(182,564,o),
(124,479,o),
(84,431,c),
(84,372,l),
(112,404,o),
(184,495,o),
(262,495,cs),
(331,495,o),
(357,432,o),
(357,372,c),
(357,0,l)
);
},
{
closed = 1;
nodes = (
(745,0,l),
(745,372,ls),
(745,508,o),
(681,564,o),
(597,564,cs),
(497,564,o),
(439,479,o),
(400,431,c),
(400,372,l),
(427,404,o),
(499,495,o),
(578,495,cs),
(651,495,o),
(673,432,o),
(673,372,c),
(673,0,l)
);
}
);
width = 781;
},
{
layerId = "91CAC535-5FDC-455D-97CC-19853562EC83";
shapes = (
{
closed = 1;
nodes = (
(110,0,l),
(110,420,l),
(110,444,l),
(110,552,l),
(66,552,l),
(66,0,l)
);
},
{
closed = 1;
nodes = (
(418,0,l),
(418,384,ls),
(418,497,o),
(360,564,o),
(264,564,cs),
(164,564,o),
(114,468,o),
(78,420,c),
(78,367,l),
(113,415,o),
(177,520,o),
(255,520,cs),
(342,520,o),
(374,464,o),
(374,372,cs),
(374,0,l)
);
},
{
closed = 1;
nodes = (
(726,0,l),
(726,384,ls),
(726,497,o),
(668,564,o),
(572,564,cs),
(472,564,o),
(422,468,o),
(386,420,c),
(386,367,l),
(421,415,o),
(485,520,o),
(563,520,cs),
(650,520,o),
(682,464,o),
(682,372,cs),
(682,0,l)
);
}
);
width = 792;
},
{
layerId = m004;
shapes = (
{
closed = 1;
nodes = (
(125,0,l),
(125,421,l),
(126,445,l),
(126,552,l),
(82,552,l),
(82,0,l)
);
},
{
closed = 1;
nodes = (
(494,0,l),
(494,380,ls),
(494,501,o),
(425,564,o),
(308,564,cs),
(188,564,o),
(129,471,o),
(86,423,c),
(86,371,l),
(129,413,o),
(207,518,o),
(302,518,cs),
(410,518,o),
(450,456,o),
(450,375,cs),
(450,0,l)
);
},
{
closed = 1;
nodes = (
(862,0,l),
(862,380,ls),
(862,501,o),
(793,564,o),
(677,564,cs),
(557,564,o),
(498,471,o),
(455,423,c),
(455,371,l),
(499,414,o),
(576,518,o),
(671,518,cs),
(778,518,o),
(818,456,o),
(818,375,cs),
(818,0,l)
);
}
);
width = 944;
},
{
layerId = m005;
shapes = (
{
closed = 1;
nodes = (
(138,0,l),
(138,417,l),
(134,441,l),
(134,552,l),
(59,552,l),
(59,0,l)
);
},
{
closed = 1;
nodes = (
(512,0,l),
(512,379,ls),
(512,502,o),
(437,564,o),
(332,564,cs),
(212,564,o),
(146,475,o),
(101,428,c),
(101,365,l),
(138,405,o),
(220,493,o),
(312,493,cs),
(404,493,o),
(438,442,o),
(438,366,c),
(438,0,l)
);
},
{
closed = 1;
nodes = (
(888,0,l),
(888,379,ls),
(888,502,o),
(814,564,o),
(707,564,cs),
(587,564,o),
(523,477,o),
(476,428,c),
(476,365,l),
(515,408,o),
(595,493,o),
(688,493,cs),
(782,493,o),
(813,442,o),
(813,366,c),
(813,0,l)
);
}
);
width = 947;
},
{
layerId = m006;
shapes = (
{
closed = 1;
nodes = (
(252,2,l),
(252,408,l),
(245,432,l),
(245,552,l),
(61,552,l),
(61,2,l)
);
},
{
closed = 1;
nodes = (
(636,0,l),
(636,372,ls),
(636,508,o),
(558,564,o),
(455,564,cs),
(335,564,o),
(268,492,o),
(221,443,c),
(221,353,l),
(246,383,o),
(305,423,o),
(363,423,cs),
(425,423,o),
(446,398,o),
(446,347,cs),
(446,0,l)
);
},
{
closed = 1;
nodes = (
(1021,0,l),
(1021,372,ls),
(1021,508,o),
(943,564,o),
(839,564,cs),
(719,564,o),
(651,491,o),
(605,443,c),
(605,353,l),
(628,380,o),
(686,423,o),
(748,423,cs),
(810,423,o),
(831,398,o),
(831,347,cs),
(831,0,l)
);
}
);
width = 1082;
}
);
unicode = 109;
},
{
glyphname = n;
kernLeft = l_s_s;
lastChange = "2023-07-29 11:00:45 +0000";
layers = (
{
layerId = m002;
shapes = (
{
closed = 1;
nodes = (
(240,2,l),
(240,372,l),
(234,420,l),
(234,552,l),
(48,552,l),
(48,2,l)
);
},
{
closed = 1;
nodes = (
(565,0,l),
(565,372,ls),
(565,508,o),
(498,564,o),
(414,564,cs),
(314,564,o),
(256,491,o),
(216,443,c),
(216,353,l),
(232,381,o),
(274,425,o),
(318,425,cs),
(359,425,o),
(375,399,o),
(375,348,c),
(373,0,l)
);
}
);
width = 613;
},
{
layerId = "FF3CDF8C-30AF-45D8-A678-B4DEB13CF6DF";
shapes = (
{
closed = 1;
nodes = (
(127,0,l),
(127,420,l),
(121,444,l),
(121,552,l),
(49,552,l),
(49,0,l)
);
},
{
closed = 1;
nodes = (
(446,0,l),
(446,372,ls),
(446,508,o),
(379,564,o),
(295,564,cs),
(195,564,o),
(137,479,o),
(97,431,c),
(97,372,l),
(125,404,o),
(197,495,o),
(275,495,cs),
(348,495,o),
(374,432,o),
(374,372,c),
(374,0,l)
);
}
);
width = 495;
},
{
layerId = "91CAC535-5FDC-455D-97CC-19853562EC83";
shapes = (
{
closed = 1;
nodes = (
(110,0,l),
(110,420,l),
(110,444,l),
(110,552,l),
(66,552,l),
(66,0,l)
);
},
{
closed = 1;
nodes = (
(418,0,l),
(418,384,ls),
(418,497,o),
(360,564,o),
(264,564,cs),
(164,564,o),
(114,468,o),
(78,420,c),
(78,367,l),
(113,415,o),
(177,520,o),
(255,520,cs),
(342,520,o),
(374,464,o),
(374,372,cs),
(374,0,l)
);
}
);
width = 484;
},
{
layerId = m004;
shapes = (
{
closed = 1;
nodes = (
(124,0,l),
(124,425,l),
(125,447,l),
(125,552,l),
(81,552,l),
(81,0,l)
);
},
{
closed = 1;
nodes = (
(492,0,l),
(492,380,ls),
(492,501,o),
(423,564,o),
(307,564,cs),
(187,564,o),
(128,471,o),
(85,423,c),
(85,371,l),
(128,413,o),
(206,518,o),
(301,518,cs),
(409,518,o),
(449,456,o),
(449,375,cs),
(449,0,l)
);
}
);
width = 573;
},
{
layerId = m005;
shapes = (
{
closed = 1;
nodes = (
(146,0,l),
(146,409,l),
(142,438,l),
(142,552,l),
(67,552,l),
(67,0,l)
);
},
{
closed = 1;
nodes = (
(523,0,l),
(523,379,ls),
(523,502,o),
(447,564,o),
(340,564,cs),
(220,564,o),
(154,475,o),
(109,428,c),
(109,365,l),
(146,405,o),
(228,493,o),
(320,493,cs),
(414,493,o),
(448,442,o),
(448,366,c),
(448,0,l)
);
}
);
width = 590;
},
{
layerId = m006;
shapes = (
{
closed = 1;
nodes = (
(253,2,l),
(253,371,l),
(247,419,l),
(247,552,l),
(62,552,l),
(62,2,l)
);
},
{
closed = 1;
nodes = (
(638,0,l),
(638,372,ls),
(638,508,o),
(560,564,o),
(457,564,cs),
(337,564,o),
(269,491,o),
(222,443,c),
(222,353,l),
(248,383,o),
(306,423,o),
(365,423,cs),
(426,423,o),
(450,398,o),
(450,347,c),
(448,0,l)
);
}
);
width = 700;
}
);
unicode = 110;
},
{
glyphname = o;
kernLeft = l_r_r;
kernRight = r_r_r;
lastChange = "2023-07-29 11:00:45 +0000";
layers = (
{
layerId = m002;
shapes = (
{
closed = 1;
nodes = (
(477,-12,o),
(588,105,o),
(588,276,cs),
(588,447,o),
(477,564,o),
(312,564,c),
(148,564,o),
(36,447,o),
(36,276,cs),
(36,105,o),
(148,-12,o),
(312,-12,cs)
);
},
{
closed = 1;
nodes = (
(254,108,o),
(228,159,o),
(228,276,cs),
(230,393,o),
(256,444,o),
(312,444,cs),
(371,442,o),
(396,391,o),
(396,276,cs),
(396,159,o),
(371,108,o),
(312,108,cs)
);
}
);
width = 624;
},
{
layerId = "FF3CDF8C-30AF-45D8-A678-B4DEB13CF6DF";
shapes = (
{
closed = 1;
nodes = (
(395,-12,o),
(481,95,o),
(481,276,cs),
(481,457,o),
(395,564,o),
(252,564,c),
(117,564,o),
(36,457,o),
(36,276,cs),
(36,95,o),
(117,-12,o),
(252,-12,cs)
);
},
{
closed = 1;
nodes = (
(158,48,o),
(108,124,o),
(108,276,cs),
(113,428,o),
(161,504,o),
(252,504,cs),
(355,501,o),
(407,424,o),
(407,276,cs),
(407,124,o),
(355,48,o),
(252,48,cs)
);
}
);
width = 517;
},
{
layerId = "91CAC535-5FDC-455D-97CC-19853562EC83";
shapes = (
{
closed = 1;
nodes = (
(377,-12,o),
(462,105,o),
(462,276,cs),
(462,447,o),
(377,564,o),
(253,564,c),
(135,564,o),
(55,447,o),
(55,276,cs),
(55,105,o),
(135,-12,o),
(253,-12,cs)
);
},
{
closed = 1;
nodes = (
(155,24,o),
(98,118,o),
(98,276,cs),
(102,434,o),
(159,528,o),
(252,528,cs),
(356,528,o),
(418,434,o),
(418,276,cs),
(418,118,o),
(356,24,o),
(252,24,cs)
);
}
);
width = 517;
},
{
layerId = m004;
shapes = (
{
closed = 1;
nodes = (
(446,-12,o),
(547,100,o),
(547,276,cs),
(547,452,o),
(446,564,o),
(301,564,c),
(163,564,o),
(68,452,o),
(68,276,cs),
(68,100,o),
(163,-12,o),
(301,-12,cs)
);
},
{
closed = 1;
nodes = (
(181,26,o),
(110,116,o),
(110,276,cs),
(110,436,o),
(186,526,o),
(299,526,cs),
(426,526,o),
(503,434,o),
(503,276,cs),
(503,116,o),
(426,26,o),
(299,26,cs)
);
}
);
width = 615;
},
{
layerId = m005;
shapes = (
{
closed = 1;
nodes = (
(467,-12,o),
(570,103,o),
(570,276,cs),
(570,449,o),
(467,564,o),
(304,564,c),
(150,564,o),
(53,449,o),
(53,276,cs),
(53,104,o),
(150,-12,o),
(304,-12,cs)
);
},
{
closed = 1;
nodes = (
(190,48,o),
(127,129,o),
(127,276,cs),
(127,423,o),
(194,504,o),
(304,504,cs),
(427,504,o),
(494,422,o),
(494,276,cs),
(494,129,o),
(427,48,o),
(304,48,cs)
);
}
);
width = 623;
},
{
layerId = m006;
shapes = (
{
closed = 1;
nodes = (
(546,-12,o),
(672,105,o),
(672,276,cs),
(672,447,o),
(546,564,o),
(358,564,c),
(173,564,o),
(48,447,o),
(48,276,cs),
(48,105,o),
(174,-12,o),
(358,-12,cs)
);
},
{
closed = 1;
nodes = (
(278,109,o),
(238,159,o),
(238,276,cs),
(238,393,o),
(281,443,o),
(358,443,cs),
(441,443,o),
(481,391,o),
(481,276,cs),
(481,159,o),
(441,109,o),
(358,109,cs)
);
}
);
width = 720;
}
);
unicode = 111;
},
{
glyphname = p;
kernRight = r_r_r;
lastChange = "2023-07-29 11:00:45 +0000";
layers = (
{
layerId = m002;
shapes = (
{
closed = 1;
nodes = (
(509,-12,o),
(601,115,o),
(601,276,cs),
(601,437,o),
(509,564,o),
(385,564,cs),
(332,564,o),
(276,540,o),
(216,468,c),
(216,384,l),
(240,432,o),
(300,444,o),
(325,444,cs),
(385,444,o),
(409,372,o),
(409,276,cs),
(409,180,o),
(385,108,o),
(325,108,cs),
(300,108,o),
(240,120,o),
(216,168,c),
(216,84,l),
(276,12,o),
(332,-12,o),
(385,-12,cs)
);
},
{
closed = 1;
nodes = (
(240,-216,l),
(240,432,ls),
(240,478,o),
(240,503,o),
(240,552,c),
(48,552,l),
(48,503,o),
(48,478,o),
(48,432,cs),
(48,-216,l)
);
}
);
width = 637;
},
{
layerId = "FF3CDF8C-30AF-45D8-A678-B4DEB13CF6DF";
shapes = (
{
closed = 1;
nodes = (
(380,-12,o),
(469,115,o),
(469,276,cs),
(469,437,o),
(380,564,o),
(265,564,cs),
(203,564,o),
(148,529,o),
(97,432,c),
(97,372,l),
(170,473,o),
(204,504,o),
(265,504,cs),
(339,504,o),
(397,400,o),
(397,276,cs),
(397,148,o),
(339,48,o),
(265,48,cs),
(207,48,o),
(173,74,o),
(97,180,c),
(97,120,l),
(148,23,o),
(203,-12,o),
(265,-12,cs)
);
},
{
closed = 1;
nodes = (
(121,-216,l),
(121,432,ls),
(121,478,o),
(119,503,o),
(109,552,c),
(37,552,l),
(47,503,o),
(49,478,o),
(49,432,cs),
(49,-216,l)
);
}
);
width = 506;
},
{
layerId = "91CAC535-5FDC-455D-97CC-19853562EC83";
shapes = (
{
closed = 1;
nodes = (
(370,-12,o),
(451,82,o),
(451,276,cs),
(451,470,o),
(370,564,o),
(248,564,cs),
(187,564,o),
(133,519,o),
(77,434,c),
(77,385,l),
(166,507,o),
(197,529,o),
(259,529,cs),
(337,529,o),
(407,437,o),
(407,276,cs),
(407,110,o),
(337,23,o),
(259,23,cs),
(197,23,o),
(166,45,o),
(77,167,c),
(77,118,l),
(133,33,o),
(187,-12,o),
(248,-12,cs)
);
},
{
closed = 1;
nodes = (
(110,-216,l),
(110,432,ls),
(110,478,o),
(110,503,o),
(110,552,c),
(66,552,l),
(66,503,o),
(66,478,o),
(66,432,cs),
(66,-216,l)
);
}
);
width = 506;
},
{
layerId = m004;
shapes = (
{
closed = 1;
nodes = (
(437,-12,o),
(533,94,o),
(533,276,cs),
(533,458,o),
(437,564,o),
(290,564,cs),
(217,564,o),
(152,522,o),
(84,429,c),
(84,379,l),
(195,499,o),
(231,526,o),
(307,526,cs),
(402,526,o),
(489,426,o),
(489,276,cs),
(489,121,o),
(402,26,o),
(307,26,cs),
(230,26,o),
(194,52,o),
(84,173,c),
(84,123,l),
(152,30,o),
(217,-12,o),
(290,-12,cs)
);
},
{
closed = 1;
nodes = (
(125,-216,l),
(125,432,ls),
(125,468,o),
(125,492,o),
(126,552,c),
(82,552,l),
(81,492,o),
(81,468,o),
(81,432,cs),
(81,-216,l)
);
}
);
width = 601;
},
{
layerId = m005;
shapes = (
{
closed = 1;
nodes = (
(453,-12,o),
(556,96,o),
(556,276,cs),
(556,456,o),
(453,564,o),
(312,564,cs),
(239,564,o),
(173,527,o),
(108,441,c),
(108,382,l),
(203,483,o),
(244,504,o),
(316,504,cs),
(406,504,o),
(481,414,o),
(481,276,cs),
(481,134,o),
(406,48,o),
(316,48,cs),
(245,48,o),
(207,67,o),
(108,170,c),
(108,111,l),
(173,25,o),
(239,-12,o),
(312,-12,cs)
);
},
{
closed = 1;
nodes = (
(142,-216,l),
(142,432,ls),
(142,473,o),
(141,502,o),
(134,552,c),
(59,552,l),
(66,502,o),
(67,473,o),
(67,432,cs),
(67,-216,l)
);
}
);
width = 610;
},
{
layerId = m006;
shapes = (
{
closed = 1;
nodes = (
(572,-12,o),
(680,115,o),
(680,276,cs),
(680,437,o),
(572,564,o),
(424,564,cs),
(358,564,o),
(291,540,o),
(221,469,c),
(221,384,l),
(267,431,o),
(331,443,o),
(372,443,cs),
(449,443,o),
(490,371,o),
(490,276,cs),
(490,181,o),
(449,109,o),
(372,109,cs),
(330,109,o),
(266,122,o),
(221,168,c),
(221,83,l),
(291,12,o),
(358,-12,o),
(424,-12,cs)
);
},
{
closed = 1;
nodes = (
(252,-216,l),
(252,432,ls),
(252,468,o),
(252,492,o),
(251,552,c),
(61,552,l),
(62,492,o),
(62,468,o),
(62,432,cs),
(62,-216,l)
);
}
);
width = 728;
}
);
unicode = 112;
},
{
glyphname = q;
lastChange = "2023-07-29 11:00:45 +0000";
layers = (
{
layerId = m002;
shapes = (
{
closed = 1;
nodes = (
(300,-12,o),
(361,24,o),
(421,96,c),
(421,192,l),
(397,144,o),
(349,96,o),
(312,96,cs),
(252,96,o),
(228,156,o),
(228,276,cs),
(228,396,o),
(252,456,o),
(312,456,cs),
(361,456,o),
(397,432,o),
(397,360,c),
(433,456,l),
(409,528,o),
(312,564,o),
(264,564,cs),
(120,564,o),
(36,444,o),
(36,276,cs),
(36,108,o),
(96,-12,o),
(240,-12,cs)
);
},
{
closed = 1;
nodes = (
(589,-216,l),
(589,432,ls),
(589,478,o),
(589,503,o),
(589,552,c),
(457,552,l),
(439,504,o),
(413,444,o),
(397,396,c),
(397,-216,l)
);
}
);
width = 637;
},
{
layerId = "FF3CDF8C-30AF-45D8-A678-B4DEB13CF6DF";
shapes = (
{
closed = 1;
nodes = (
(303,-12,o),
(358,23,o),
(409,120,c),
(409,180,l),
(333,74,o),
(299,48,o),
(241,48,cs),
(167,48,o),
(109,148,o),
(109,276,cs),
(109,400,o),
(167,504,o),
(241,504,cs),
(302,504,o),
(336,473,o),
(409,372,c),
(409,432,l),
(358,529,o),
(303,564,o),
(241,564,cs),
(126,564,o),
(37,437,o),
(37,276,cs),
(37,115,o),
(126,-12,o),
(241,-12,cs)
);
},
{
closed = 1;
nodes = (
(457,-216,l),
(457,432,ls),
(457,478,o),
(459,503,o),
(469,552,c),
(397,552,l),
(387,503,o),
(385,478,o),
(385,432,cs),
(385,-216,l)
);
}
);
width = 506;
},
{
layerId = "91CAC535-5FDC-455D-97CC-19853562EC83";
shapes = (
{
closed = 1;
nodes = (
(319,-11,o),
(373,36,o),
(429,121,c),
(429,169,l),
(340,47,o),
(309,25,o),
(247,25,cs),
(169,25,o),
(99,111,o),
(99,277,cs),
(99,438,o),
(169,529,o),
(247,529,cs),
(309,529,o),
(340,507,o),
(429,385,c),
(429,433,l),
(373,518,o),
(319,565,o),
(258,565,cs),
(136,565,o),
(55,471,o),
(55,277,cs),
(55,83,o),
(136,-11,o),
(258,-11,cs)
);
},
{
closed = 1;
nodes = (
(440,-216,l),
(440,432,ls),
(440,478,o),
(441,503,o),
(451,552,c),
(407,552,l),
(397,503,o),
(396,478,o),
(396,432,cs),
(396,-216,l)
);
}
);
width = 506;
},
{
layerId = m004;
shapes = (
{
closed = 1;
nodes = (
(386,-11,o),
(450,33,o),
(516,123,c),
(516,172,l),
(406,50,o),
(370,28,o),
(294,28,cs),
(199,28,o),
(112,123,o),
(112,277,cs),
(112,425,o),
(199,525,o),
(294,525,cs),
(369,525,o),
(407,498,o),
(518,382,c),
(516,430,l),
(447,522,o),
(384,565,o),
(310,565,cs),
(164,565,o),
(68,457,o),
(68,277,cs),
(68,95,o),
(166,-11,o),
(311,-11,cs)
);
},
{
closed = 1;
nodes = (
(520,-216,l),
(520,432,ls),
(520,478,o),
(521,502,o),
(533,552,c),
(487,552,l),
(476,503,o),
(476,482,o),
(476,436,cs),
(476,-216,l)
);
}
);
width = 601;
},
{
layerId = m005;
shapes = (
{
closed = 1;
nodes = (
(369,-11,o),
(435,27,o),
(502,115,c),
(502,177,l),
(405,75,o),
(366,46,o),
(294,46,cs),
(204,46,o),
(129,129,o),
(129,277,cs),
(129,420,o),
(204,507,o),
(294,507,cs),
(367,507,o),
(406,484,o),
(501,377,c),
(502,438,l),
(441,520,o),
(375,565,o),
(299,565,cs),
(157,565,o),
(54,458,o),
(54,277,cs),
(54,96,o),
(156,-11,o),
(298,-11,cs)
);
},
{
closed = 1;
nodes = (
(543,-216,l),
(543,432,ls),
(543,478,o),
(545,504,o),
(557,552,c),
(483,552,l),
(470,501,o),
(468,468,o),
(468,424,cs),
(468,-216,l)
);
}
);
width = 611;
},
{
layerId = m006;
shapes = (
{
closed = 1;
nodes = (
(362,-12,o),
(434,21,o),
(507,95,c),
(507,192,l),
(459,144,o),
(407,97,o),
(356,97,cs),
(279,97,o),
(238,157,o),
(238,276,cs),
(238,395,o),
(279,455,o),
(356,455,cs),
(419,455,o),
(461,431,o),
(485,360,c),
(518,456,l),
(480,528,o),
(376,564,o),
(315,564,cs),
(149,564,o),
(48,444,o),
(48,276,cs),
(48,109,o),
(126,-12,o),
(293,-12,cs)
);
},
{
closed = 1;
nodes = (
(666,-216,l),
(666,432,ls),
(666,489,o),
(667,512,o),
(669,552,c),
(534,552,l),
(515,504,o),
(491,443,o),
(476,395,c),
(476,-216,l)
);
}
);
width = 728;
}
);
unicode = 113;
},
{
glyphname = r;
kernLeft = l_s_s;
lastChange = "2023-07-29 13:24:50 +0000";
layers = (
{
layerId = m002;
shapes = (
{
closed = 1;
nodes = (
(240,0,l),
(240,384,l),
(234,408,l),
(234,552,l),
(48,552,l),
(48,0,l)
);
},
{
closed = 1;
nodes = (
(239,356,o),
(290,389,o),
(337,389,cs),
(376,389,o),
(398,385,o),
(445,365,c),
(445,551,l),
(441,554,o),
(425,557,o),
(409,557,cs),
(344,557,o),
(263,497,o),
(223,420,c),
(223,312,l)
);
}
);
width = 493;
},
{
layerId = "FF3CDF8C-30AF-45D8-A678-B4DEB13CF6DF";
shapes = (
{
closed = 1;
nodes = (
(132,0,l),
(132,348,l),
(127,372,l),
(127,552,l),
(55,552,l),
(55,0,l)
);
},
{
closed = 1;
nodes = (
(139,382,o),
(225,485,o),
(283,485,cs),
(296,485,o),
(303,485,o),
(319,480,c),
(319,552,l),
(316,556,o),
(298,557,o),
(283,557,cs),
(202,557,o),
(156,481,o),
(115,383,c),
(115,247,l)
);
}
);
width = 374;
},
{
layerId = "91CAC535-5FDC-455D-97CC-19853562EC83";
shapes = (
{
closed = 1;
nodes = (
(110,0,l),
(110,348,l),
(110,372,l),
(110,552,l),
(66,552,l),
(66,0,l)
);
},
{
closed = 1;
nodes = (
(116,382,o),
(212,516,o),
(275,516,cs),
(288,516,o),
(295,516,o),
(308,516,c),
(308,557,l),
(295,557,o),
(288,557,o),
(275,557,cs),
(205,557,o),
(133,446,o),
(92,348,c),
(92,247,l)
);
}
);
width = 374;
},
{
layerId = m004;
shapes = (
{
closed = 1;
nodes = (
(124,0,l),
(124,344,l),
(125,368,l),
(125,552,l),
(81,552,l),
(81,0,l)
);
},
{
closed = 1;
nodes = (
(132,384,o),
(250,515,o),
(327,515,cs),
(341,515,o),
(348,515,o),
(362,515,c),
(362,555,l),
(349,556,o),
(334,557,o),
(323,557,cs),
(241,557,o),
(153,459,o),
(103,357,c),
(103,240,l)
);
}
);
width = 443;
},
{
layerId = m005;
shapes = (
{
closed = 1;
nodes = (
(149,0,l),
(149,356,l),
(146,380,l),
(146,552,l),
(71,552,l),
(71,0,l)
);
},
{
closed = 1;
nodes = (
(157,377,o),
(265,480,o),
(336,480,cs),
(353,480,o),
(362,479,o),
(380,474,c),
(380,555,l),
(373,556,o),
(358,557,o),
(338,557,cs),
(249,557,o),
(180,470,o),
(128,372,c),
(128,262,l)
);
}
);
width = 451;
},
{
layerId = m006;
shapes = (
{
closed = 1;
nodes = (
(253,0,l),
(253,385,l),
(247,409,l),
(247,552,l),
(62,552,l),
(62,0,l)
);
},
{
closed = 1;
nodes = (
(253,355,o),
(326,387,o),
(387,387,cs),
(428,387,o),
(451,382,o),
(496,362,c),
(496,551,l),
(489,554,o),
(472,557,o),
(454,557,cs),
(373,557,o),
(280,497,o),
(232,421,c),
(232,313,l)
);
}
);
width = 558;
}
);
unicode = 114;
},
{
glyphname = s;
kernLeft = l_r_r;
lastChange = "2023-07-29 11:00:45 +0000";
layers = (
{
layerId = m002;
shapes = (
{
closed = 1;
nodes = (
(445,-12,o),
(540,60,o),
(540,180,cs),
(540,420,o),
(204,324,o),
(204,408,cs),
(204,435,o),
(230,449,o),
(288,449,cs),
(345,449,o),
(389,408,o),
(401,384,c),
(516,449,l),
(473,519,o),
(410,564,o),
(288,564,cs),
(140,564,o),
(36,496,o),
(36,377,cs),
(36,149,o),
(372,240,o),
(372,156,cs),
(372,127,o),
(348,101,o),
(288,101,cs),
(228,101,o),
(161,125,o),
(137,173,c),
(24,108,l),
(60,36,o),
(139,-12,o),
(288,-12,c)
);
}
);
width = 576;
},
{
layerId = "FF3CDF8C-30AF-45D8-A678-B4DEB13CF6DF";
shapes = (
{
closed = 1;
nodes = (
(353,-11,o),
(423,52,o),
(423,149,cs),
(423,363,o),
(123,269,o),
(123,425,cs),
(123,477,o),
(158,504,o),
(232,504,cs),
(289,504,o),
(335,475,o),
(351,434,c),
(410,468,l),
(367,538,o),
(317,564,o),
(223,564,cs),
(119,564,o),
(51,503,o),
(51,416,cs),
(51,208,o),
(351,299,o),
(351,137,cs),
(351,87,o),
(304,48,o),
(243,48,cs),
(185,48,o),
(124,87,o),
(101,137,c),
(39,101,l),
(72,38,o),
(147,-12,o),
(235,-12,c)
);
}
);
width = 462;
},
{
layerId = "91CAC535-5FDC-455D-97CC-19853562EC83";
shapes = (
{
closed = 1;
nodes = (
(319,-12,o),
(396,54,o),
(396,137,cs),
(396,347,o),
(95,269,o),
(95,425,cs),
(95,487,o),
(145,528,o),
(220,528,cs),
(277,528,o),
(323,480,o),
(339,440,c),
(379,461,l),
(333,536,o),
(288,564,o),
(212,564,cs),
(124,564,o),
(55,505,o),
(55,431,cs),
(55,224,o),
(352,318,o),
(352,137,cs),
(352,73,o),
(298,24,o),
(231,24,cs),
(163,24,o),
(101,67,o),
(79,130,c),
(39,109,l),
(79,33,o),
(147,-12,o),
(224,-12,c)
);
}
);
width = 451;
},
{
layerId = m004;
shapes = (
{
closed = 1;
nodes = (
(375,-12,o),
(467,53,o),
(467,138,cs),
(467,347,o),
(107,263,o),
(107,427,cs),
(107,488,o),
(170,525,o),
(260,525,cs),
(330,525,o),
(384,484,o),
(403,443,c),
(447,466,l),
(392,538,o),
(339,564,o),
(250,564,cs),
(149,564,o),
(68,505,o),
(68,430,cs),
(68,225,o),
(422,317,o),
(422,135,cs),
(422,74,o),
(355,27,o),
(274,27,cs),
(190,27,o),
(117,71,o),
(91,129,c),
(48,105,l),
(97,35,o),
(177,-12,o),
(265,-12,c)
);
}
);
width = 535;
},
{
layerId = m005;
shapes = (
{
closed = 1;
nodes = (
(408,-12,o),
(496,55,o),
(496,149,cs),
(496,367,o),
(135,282,o),
(135,421,cs),
(135,473,o),
(185,505,o),
(273,505,cs),
(342,505,o),
(397,462,o),
(416,426,c),
(478,460,l),
(427,530,o),
(370,564,o),
(263,564,cs),
(145,564,o),
(62,502,o),
(62,416,cs),
(62,204,o),
(422,296,o),
(422,141,cs),
(422,88,o),
(361,47,o),
(286,47,cs),
(210,47,o),
(137,85,o),
(110,141,c),
(46,107,l),
(89,35,o),
(176,-12,o),
(277,-12,c)
);
}
);
width = 551;
},
{
layerId = m006;
shapes = (
{
closed = 1;
nodes = (
(500,-12,o),
(609,60,o),
(609,181,cs),
(609,421,o),
(216,325,o),
(216,408,cs),
(216,434,o),
(253,448,o),
(327,448,cs),
(394,448,o),
(448,408,o),
(464,383,c),
(582,449,l),
(528,521,o),
(456,564,o),
(325,564,cs),
(164,564,o),
(48,496,o),
(48,376,cs),
(48,148,o),
(441,239,o),
(441,156,cs),
(441,128,o),
(404,102,o),
(330,102,cs),
(256,102,o),
(177,126,o),
(149,174,c),
(33,108,l),
(77,36,o),
(169,-12,o),
(328,-12,c)
);
}
);
width = 657;
}
);
unicode = 115;
},
{
glyphname = t;
lastChange = "2023-07-29 11:00:45 +0000";
layers = (
{
layerId = m002;
shapes = (
{
closed = 1;
nodes = (
(365,-12,o),
(389,-10,o),
(432,0,c),
(432,132,l),
(424,129,o),
(403,125,o),
(384,125,cs),
(339,122,o),
(312,151,o),
(312,204,cs),
(312,744,l),
(137,744,l),
(120,552,l),
(120,144,ls),
(120,35,o),
(178,-12,o),
(312,-12,cs)
);
},
{
closed = 1;
nodes = (
(432,420,l),
(432,552,l),
(24,552,l),
(24,420,l)
);
}
);
width = 480;
},
{
layerId = "FF3CDF8C-30AF-45D8-A678-B4DEB13CF6DF";
shapes = (
{
closed = 1;
nodes = (
(277,-12,o),
(309,-7,o),
(320,0,c),
(320,53,l),
(300,50,o),
(282,48,o),
(259,48,cs),
(226,48,o),
(200,71,o),
(200,108,cs),
(200,744,l),
(133,744,l),
(128,552,l),
(128,84,ls),
(128,25,o),
(166,-12,o),
(248,-12,cs)
);
},
{
closed = 1;
nodes = (
(320,491,l),
(320,552,l),
(32,552,l),
(32,491,l)
);
}
);
width = 352;
},
{
layerId = "91CAC535-5FDC-455D-97CC-19853562EC83";
shapes = (
{
closed = 1;
nodes = (
(274,-12,o),
(304,-9,o),
(330,0,c),
(330,41,l),
(304,33,o),
(277,24,o),
(242,24,cs),
(212,24,o),
(187,47,o),
(187,84,cs),
(187,780,l),
(147,756,l),
(143,552,l),
(143,84,ls),
(143,25,o),
(161,-12,o),
(239,-12,cs)
);
},
{
closed = 1;
nodes = (
(319,516,l),
(319,552,l),
(55,552,l),
(55,516,l)
);
}
);
width = 396;
},
{
layerId = m004;
shapes = (
{
closed = 1;
nodes = (
(325,-12,o),
(360,-8,o),
(392,0,c),
(392,37,l),
(356,30,o),
(324,24,o),
(282,24,cs),
(247,24,o),
(217,47,o),
(217,82,cs),
(217,767,l),
(178,752,l),
(174,552,l),
(174,78,ls),
(174,24,o),
(192,-12,o),
(283,-12,cs)
);
},
{
closed = 1;
nodes = (
(377,515,l),
(377,552,l),
(69,552,l),
(69,515,l)
);
}
);
width = 474;
},
{
layerId = m005;
shapes = (
{
closed = 1;
nodes = (
(332,-12,o),
(370,-9,o),
(392,0,c),
(392,64,l),
(363,58,o),
(339,52,o),
(305,52,cs),
(267,52,o),
(236,76,o),
(236,116,cs),
(236,764,l),
(167,751,l),
(161,552,l),
(161,98,ls),
(161,27,o),
(197,-12,o),
(294,-12,cs)
);
},
{
closed = 1;
nodes = (
(386,489,l),
(386,552,l),
(50,552,l),
(50,489,l)
);
}
);
width = 448;
},
{
layerId = m006;
shapes = (
{
closed = 1;
nodes = (
(413,-12,o),
(443,-10,o),
(489,0,c),
(489,134,l),
(475,131,o),
(448,127,o),
(422,127,cs),
(372,127,o),
(340,153,o),
(340,206,cs),
(340,744,l),
(166,744,l),
(149,552,l),
(149,145,ls),
(149,35,o),
(209,-12,o),
(354,-12,cs)
);
},
{
closed = 1;
nodes = (
(487,418,l),
(487,552,l),
(36,552,l),
(36,418,l)
);
}
);
width = 550;
}
);
unicode = 116;
},
{
glyphname = u;
lastChange = "2023-07-29 11:00:45 +0000";
layers = (
{
layerId = m002;
shapes = (
{
closed = 1;
nodes = (
(293,-12,o),
(351,62,o),
(390,110,c),
(390,200,l),
(375,172,o),
(332,124,o),
(288,124,cs),
(247,124,o),
(238,153,o),
(238,204,c),
(240,552,l),
(48,552,l),
(48,180,ls),
(48,44,o),
(108,-12,o),
(192,-12,cs)
);
},
{
closed = 1;
nodes = (
(565,0,l),
(565,550,l),
(373,550,l),
(373,144,l),
(378,108,l),
(378,0,l)
);
}
);
width = 613;
},
{
layerId = "FF3CDF8C-30AF-45D8-A678-B4DEB13CF6DF";
shapes = (
{
closed = 1;
nodes = (
(300,-12,o),
(358,73,o),
(398,121,c),
(398,180,l),
(370,148,o),
(298,57,o),
(220,57,cs),
(147,57,o),
(121,120,o),
(121,180,c),
(121,552,l),
(49,552,l),
(49,180,ls),
(49,44,o),
(116,-12,o),
(200,-12,cs)
);
},
{
closed = 1;
nodes = (
(446,0,l),
(446,552,l),
(368,552,l),
(368,132,l),
(374,108,l),
(374,0,l)
);
}
);
width = 495;
},
{
layerId = "91CAC535-5FDC-455D-97CC-19853562EC83";
shapes = (
{
closed = 1;
nodes = (
(320,-12,o),
(370,84,o),
(406,132,c),
(406,185,l),
(371,137,o),
(307,31,o),
(229,31,cs),
(142,31,o),
(110,89,o),
(110,180,cs),
(110,552,l),
(66,552,l),
(66,168,ls),
(66,54,o),
(124,-12,o),
(220,-12,cs)
);
},
{
closed = 1;
nodes = (
(418,0,l),
(418,552,l),
(374,552,l),
(374,132,l),
(374,108,l),
(374,0,l)
);
}
);
width = 484;
},
{
layerId = m004;
shapes = (
{
closed = 1;
nodes = (
(386,-12,o),
(444,80,o),
(488,129,c),
(488,181,l),
(447,140,o),
(367,33,o),
(272,33,cs),
(165,33,o),
(125,97,o),
(125,177,cs),
(125,552,l),
(81,552,l),
(81,172,ls),
(81,51,o),
(150,-12,o),
(266,-12,cs)
);
},
{
closed = 1;
nodes = (
(492,0,l),
(492,552,l),
(449,552,l),
(449,131,l),
(448,108,l),
(448,0,l)
);
}
);
width = 573;
},
{
layerId = m005;
shapes = (
{
closed = 1;
nodes = (
(370,-12,o),
(434,76,o),
(481,125,c),
(481,187,l),
(442,145,o),
(362,58,o),
(270,58,cs),
(176,58,o),
(142,110,o),
(142,186,c),
(142,552,l),
(67,552,l),
(67,173,ls),
(67,50,o),
(143,-12,o),
(250,-12,cs)
);
},
{
closed = 1;
nodes = (
(523,0,l),
(523,552,l),
(444,552,l),
(444,135,l),
(448,108,l),
(448,0,l)
);
}
);
width = 590;
},
{
layerId = m006;
shapes = (
{
closed = 1;
nodes = (
(358,-12,o),
(426,62,o),
(472,110,c),
(472,200,l),
(447,170,o),
(389,126,o),
(329,126,cs),
(268,126,o),
(251,154,o),
(251,205,c),
(252,552,l),
(62,552,l),
(62,180,ls),
(62,44,o),
(134,-12,o),
(237,-12,cs)
);
},
{
closed = 1;
nodes = (
(638,0,l),
(638,550,l),
(448,550,l),
(448,144,l),
(453,108,l),
(453,0,l)
);
}
);
width = 700;
}
);
unicode = 117;
},
{
glyphname = v;
kernLeft = vwy;
kernRight = vwy;
lastChange = "2023-07-29 11:00:45 +0000";
layers = (
{
layerId = "FF3CDF8C-30AF-45D8-A678-B4DEB13CF6DF";
shapes = (
{
closed = 1;
nodes = (
(268,0,l),
(436,552,l),
(357,552,l),
(225,108,l),
(93,552,l),
(15,552,l),
(183,0,l)
);
}
);
width = 451;
},
{
layerId = m002;
shapes = (
{
closed = 1;
nodes = (
(373,0,l),
(589,552,l),
(445,552,l),
(337,257,l),
(228,552,l),
(24,552,l),
(240,0,l)
);
}
);
width = 613;
},
{
layerId = "91CAC535-5FDC-455D-97CC-19853562EC83";
shapes = (
{
closed = 1;
nodes = (
(268,0,l),
(440,552,l),
(392,552,l),
(248,76,l),
(103,552,l),
(55,552,l),
(227,0,l)
);
}
);
width = 495;
},
{
layerId = m004;
shapes = (
{
closed = 1;
nodes = (
(316,0,l),
(521,552,l),
(470,552,l),
(295,72,l),
(118,552,l),
(70,552,l),
(275,0,l)
);
}
);
width = 591;
},
{
layerId = m005;
shapes = (
{
closed = 1;
nodes = (
(324,0,l),
(529,552,l),
(449,552,l),
(285,124,l),
(120,552,l),
(39,552,l),
(244,0,l)
);
}
);
width = 568;
},
{
layerId = m006;
shapes = (
{
closed = 1;
nodes = (
(418,0,l),
(664,552,l),
(517,552,l),
(378,260,l),
(238,552,l),
(35,552,l),
(282,0,l)
);
}
);
width = 699;
}
);
unicode = 118;
},
{
glyphname = w;
kernLeft = vwy;
kernRight = vwy;
lastChange = "2023-07-29 11:00:45 +0000";
layers = (
{
layerId = "FF3CDF8C-30AF-45D8-A678-B4DEB13CF6DF";
shapes = (
{
closed = 1;
nodes = (
(222,0,l),
(366,552,l),
(292,552,l),
(186,108,l),
(80,552,l),
(6,552,l),
(150,0,l)
);
},
{
closed = 1;
nodes = (
(510,0,l),
(654,552,l),
(580,552,l),
(474,108,l),
(368,552,l),
(318,552,l),
(318,456,l),
(438,0,l)
);
}
);
width = 660;
},
{
layerId = m002;
shapes = (
{
closed = 1;
nodes = (
(348,0,l),
(540,552,l),
(396,552,l),
(312,257,l),
(228,552,l),
(24,552,l),
(216,0,l)
);
},
{
closed = 1;
nodes = (
(672,0,l),
(864,552,l),
(720,552,l),
(636,257,l),
(552,552,l),
(417,552,l),
(417,359,l),
(540,0,l)
);
}
);
width = 888;
},
{
layerId = "91CAC535-5FDC-455D-97CC-19853562EC83";
shapes = (
{
closed = 1;
nodes = (
(220,0,l),
(363,552,l),
(319,552,l),
(198,84,l),
(88,552,l),
(44,552,l),
(176,0,l)
);
},
{
closed = 1;
nodes = (
(506,0,l),
(638,552,l),
(594,552,l),
(484,84,l),
(363,552,l),
(319,552,l),
(335,492,l),
(462,0,l)
);
}
);
width = 682;
},
{
layerId = m004;
shapes = (
{
closed = 1;
nodes = (
(257,0,l),
(427,552,l),
(381,552,l),
(233,77,l),
(99,552,l),
(56,552,l),
(211,0,l)
);
},
{
closed = 1;
nodes = (
(599,0,l),
(753,552,l),
(707,552,l),
(574,77,l),
(426,552,l),
(378,552,l),
(399,489,l),
(552,0,l)
);
}
);
width = 809;
},
{
layerId = m005;
shapes = (
{
closed = 1;
nodes = (
(268,0,l),
(442,552,l),
(367,552,l),
(232,129,l),
(103,552,l),
(27,552,l),
(195,0,l)
);
},
{
closed = 1;
nodes = (
(614,0,l),
(781,552,l),
(706,552,l),
(578,129,l),
(443,552,l),
(384,552,l),
(392,454,l),
(540,0,l)
);
}
);
width = 808;
},
{
layerId = m006;
shapes = (
{
closed = 1;
nodes = (
(381,0,l),
(598,552,l),
(452,552,l),
(341,260,l),
(234,552,l),
(32,552,l),
(246,0,l)
);
},
{
closed = 1;
nodes = (
(760,0,l),
(974,552,l),
(828,552,l),
(720,260,l),
(609,552,l),
(472,552,l),
(476,357,l),
(624,0,l)
);
}
);
width = 1006;
}
);
unicode = 119;
},
{
glyphname = x;
lastChange = "2023-07-29 11:00:45 +0000";
layers = (
{
layerId = "FF3CDF8C-30AF-45D8-A678-B4DEB13CF6DF";
shapes = (
{
closed = 1;
nodes = (
(99,0,l),
(230,235,l),
(262,277,l),
(411,552,l),
(327,552,l),
(214,344,l),
(185,305,l),
(15,0,l)
);
},
{
closed = 1;
nodes = (
(447,0,l),
(99,552,l),
(15,552,l),
(363,0,l)
);
}
);
width = 462;
},
{
layerId = m002;
shapes = (
{
closed = 1;
nodes = (
(192,0,l),
(312,180,l),
(408,288,l),
(610,552,l),
(432,552,l),
(336,408,l),
(252,312,l),
(24,0,l)
);
},
{
closed = 1;
nodes = (
(648,0,l),
(252,552,l),
(24,552,l),
(420,0,l)
);
}
);
width = 672;
},
{
layerId = "91CAC535-5FDC-455D-97CC-19853562EC83";
shapes = (
{
closed = 1;
nodes = (
(95,0,l),
(248,264,l),
(254,288,l),
(408,552,l),
(357,552,l),
(229,324,l),
(223,300,l),
(44,0,l)
);
},
{
closed = 1;
nodes = (
(440,0,l),
(106,552,l),
(55,552,l),
(389,0,l)
);
}
);
width = 484;
},
{
layerId = m004;
shapes = (
{
closed = 1;
nodes = (
(109,0,l),
(296,259,l),
(297,283,l),
(480,552,l),
(427,552,l),
(271,324,l),
(269,301,l),
(56,0,l)
);
},
{
closed = 1;
nodes = (
(518,0,l),
(121,552,l),
(70,552,l),
(467,0,l)
);
}
);
width = 574;
},
{
layerId = m005;
shapes = (
{
closed = 1;
nodes = (
(119,0,l),
(287,239,l),
(314,286,l),
(496,552,l),
(410,552,l),
(267,347,l),
(243,304,l),
(33,0,l)
);
},
{
closed = 1;
nodes = (
(537,0,l),
(126,552,l),
(39,552,l),
(450,0,l)
);
}
);
width = 570;
},
{
layerId = m006;
shapes = (
{
closed = 1;
nodes = (
(204,0,l),
(356,179,l),
(447,288,l),
(676,552,l),
(496,552,l),
(373,410,l),
(292,312,l),
(33,0,l)
);
},
{
closed = 1;
nodes = (
(720,0,l),
(261,552,l),
(36,552,l),
(494,0,l)
);
}
);
width = 753;
}
);
unicode = 120;
},
{
glyphname = y;
kernLeft = vwy;
kernRight = vwy;
lastChange = "2023-07-29 11:00:45 +0000";
layers = (
{
layerId = "FF3CDF8C-30AF-45D8-A678-B4DEB13CF6DF";
shapes = (
{
closed = 1;
nodes = (
(209,-228,o),
(261,-105,o),
(295,0,cs),
(472,552,l),
(393,552,l),
(205,-36,ls),
(186,-98,o),
(147,-161,o),
(87,-161,cs),
(63,-161,o),
(39,-159,o),
(15,-156,c),
(15,-216,l),
(51,-225,o),
(63,-228,o),
(99,-228,cs)
);
},
{
closed = 1;
nodes = (
(282,-12,l),
(93,552,l),
(15,552,l),
(219,-48,l)
);
}
);
width = 451;
},
{
layerId = m002;
shapes = (
{
closed = 1;
nodes = (
(331,-228,o),
(361,-120,o),
(408,0,cs),
(624,552,l),
(468,552,l),
(264,36,ls),
(231,-47,o),
(231,-84,o),
(144,-84,cs),
(100,-84,o),
(104,-84,o),
(60,-84,c),
(60,-228,l),
(84,-228,o),
(120,-228,o),
(144,-228,cs)
);
},
{
closed = 1;
nodes = (
(372,168,l),
(240,552,l),
(24,552,l),
(240,-36,l)
);
}
);
width = 648;
},
{
layerId = "91CAC535-5FDC-455D-97CC-19853562EC83";
shapes = (
{
closed = 1;
nodes = (
(189,-228,o),
(233,-104,o),
(265,0,cs),
(435,552,l),
(391,552,l),
(219,-36,ls),
(200,-99,o),
(157,-193,o),
(98,-193,cs),
(86,-193,o),
(75,-192,o),
(62,-189,c),
(55,-223,l),
(70,-227,o),
(87,-228,o),
(102,-228,cs)
);
},
{
closed = 1;
nodes = (
(258,32,l),
(103,552,l),
(60,552,l),
(248,-48,l)
);
}
);
width = 490;
},
{
layerId = m004;
shapes = (
{
closed = 1;
nodes = (
(219,-228,o),
(272,-101,o),
(309,0,cs),
(511,552,l),
(466,552,l),
(262,-44,ls),
(240,-108,o),
(185,-190,o),
(117,-190,cs),
(103,-190,o),
(90,-188,o),
(78,-185,c),
(69,-219,l),
(85,-226,o),
(106,-228,o),
(121,-228,cs)
);
},
{
closed = 1;
nodes = (
(303,-3,l),
(118,552,l),
(77,552,l),
(300,-49,l)
);
}
);
width = 584;
},
{
layerId = m005;
shapes = (
{
closed = 1;
nodes = (
(241,-228,o),
(299,-111,o),
(341,0,cs),
(550,552,l),
(472,552,l),
(254,-20,ls),
(227,-91,o),
(179,-161,o),
(111,-161,cs),
(87,-161,o),
(65,-160,o),
(43,-158,c),
(39,-223,l),
(72,-227,o),
(90,-228,o),
(121,-228,cs)
);
},
{
closed = 1;
nodes = (
(328,54,l),
(120,552,l),
(41,552,l),
(278,-45,l)
);
}
);
width = 565;
},
{
layerId = m006;
shapes = (
{
closed = 1;
nodes = (
(358,-228,o),
(398,-121,o),
(452,0,cs),
(698,552,l),
(541,552,l),
(304,37,ls),
(267,-44,o),
(255,-82,o),
(160,-82,cs),
(116,-82,o),
(115,-82,o),
(71,-82,c),
(69,-228,l),
(96,-228,o),
(134,-228,o),
(161,-228,cs)
);
},
{
closed = 1;
nodes = (
(416,171,l),
(250,552,l),
(37,552,l),
(289,-36,l)
);
}
);
width = 732;
}
);
unicode = 121;
},
{
glyphname = z;
lastChange = "2023-07-29 11:00:45 +0000";
layers = (
{
layerId = "FF3CDF8C-30AF-45D8-A678-B4DEB13CF6DF";
shapes = (
{
closed = 1;
nodes = (
(401,0,l),
(401,60,l),
(89,60,l),
(89,36,l),
(401,504,l),
(401,552,l),
(41,552,l),
(41,492,l),
(329,492,l),
(329,516,l),
(17,48,l),
(17,0,l)
);
}
);
width = 418;
},
{
layerId = m002;
shapes = (
{
closed = 1;
nodes = (
(564,0,l),
(564,120,l),
(243,120,l),
(243,36,l),
(552,456,l),
(552,552,l),
(72,552,l),
(72,432,l),
(373,432,l),
(373,516,l),
(48,84,l),
(48,0,l)
);
}
);
width = 612;
},
{
layerId = "91CAC535-5FDC-455D-97CC-19853562EC83";
shapes = (
{
closed = 1;
nodes = (
(429,0,l),
(429,40,l),
(105,40,l),
(105,16,l),
(429,516,l),
(429,552,l),
(90,552,l),
(90,512,l),
(390,512,l),
(390,536,l),
(66,36,l),
(66,0,l)
);
}
);
width = 495;
},
{
layerId = m004;
shapes = (
{
closed = 1;
nodes = (
(511,0,l),
(511,41,l),
(121,41,l),
(121,23,l),
(511,517,l),
(511,552,l),
(113,552,l),
(113,511,l),
(474,511,l),
(474,529,l),
(84,36,l),
(84,0,l)
);
}
);
width = 594;
},
{
layerId = m005;
shapes = (
{
closed = 1;
nodes = (
(499,0,l),
(499,62,l),
(118,62,l),
(118,25,l),
(499,500,l),
(499,552,l),
(75,552,l),
(75,490,l),
(427,490,l),
(427,527,l),
(46,49,l),
(46,0,l)
);
}
);
width = 545;
},
{
layerId = m006;
shapes = (
{
closed = 1;
nodes = (
(637,0,l),
(637,121,l),
(252,121,l),
(252,36,l),
(626,455,l),
(626,552,l),
(89,552,l),
(89,431,l),
(449,431,l),
(449,516,l),
(60,85,l),
(60,0,l)
);
}
);
width = 697;
}
);
unicode = 122;
},
{
glyphname = a.ss01;
kernLeft = l_r_r;
lastChange = "2023-07-29 11:00:45 +0000";
layers = (
{
layerId = m002;
shapes = (
{
closed = 1;
nodes = (
(300,-12,o),
(361,24,o),
(421,96,c),
(421,192,l),
(397,144,o),
(349,96,o),
(312,96,cs),
(252,96,o),
(228,156,o),
(228,276,cs),
(228,396,o),
(252,456,o),
(312,456,cs),
(361,456,o),
(397,432,o),
(397,360,c),
(433,456,l),
(409,528,o),
(312,564,o),
(264,564,cs),
(120,564,o),
(36,444,o),
(36,276,cs),
(36,108,o),
(96,-12,o),
(240,-12,cs)
);
},
{
closed = 1;
nodes = (
(588,0,l),
(588,40,o),
(588,80,o),
(588,120,c),
(588,552,l),
(456,552,l),
(396,396,l),
(396,120,l),
(396,80,o),
(396,40,o),
(396,0,c)
);
}
);
width = 636;
},
{
layerId = "FF3CDF8C-30AF-45D8-A678-B4DEB13CF6DF";
shapes = (
{
closed = 1;
nodes = (
(303,-12,o),
(358,23,o),
(409,120,c),
(409,180,l),
(333,74,o),
(299,48,o),
(241,48,cs),
(167,48,o),
(109,148,o),
(109,276,cs),
(109,400,o),
(167,504,o),
(241,504,cs),
(302,504,o),
(336,473,o),
(409,372,c),
(409,432,l),
(358,529,o),
(303,564,o),
(241,564,cs),
(126,564,o),
(37,437,o),
(37,276,cs),
(37,115,o),
(126,-12,o),
(241,-12,cs)
);
},
{
closed = 1;
nodes = (
(469,0,l),
(459,49,o),
(457,74,o),
(457,120,cs),
(457,552,l),
(385,552,l),
(385,432,l),
(385,120,ls),
(385,74,o),
(387,49,o),
(397,0,c)
);
}
);
width = 506;
},
{
layerId = "91CAC535-5FDC-455D-97CC-19853562EC83";
shapes = (
{
closed = 1;
nodes = (
(319,-12,o),
(373,35,o),
(429,120,c),
(429,168,l),
(340,46,o),
(309,24,o),
(247,24,cs),
(169,24,o),
(99,115,o),
(99,276,cs),
(99,442,o),
(169,528,o),
(247,528,cs),
(309,528,o),
(340,506,o),
(429,384,c),
(429,432,l),
(373,517,o),
(319,564,o),
(258,564,cs),
(136,564,o),
(55,470,o),
(55,276,cs),
(55,82,o),
(136,-12,o),
(258,-12,cs)
);
},
{
closed = 1;
nodes = (
(451,0,l),
(441,49,o),
(440,74,o),
(440,120,cs),
(440,552,l),
(396,552,l),
(396,432,l),
(396,120,ls),
(396,74,o),
(397,49,o),
(407,0,c)
);
}
);
width = 506;
},
{
layerId = m004;
shapes = (
{
closed = 1;
nodes = (
(385,-12,o),
(449,31,o),
(516,123,c),
(516,171,l),
(406,50,o),
(370,28,o),
(294,28,cs),
(199,28,o),
(112,126,o),
(112,276,cs),
(112,427,o),
(199,524,o),
(294,524,cs),
(369,524,o),
(407,497,o),
(518,381,c),
(516,429,l),
(447,521,o),
(384,564,o),
(310,564,cs),
(164,564,o),
(68,457,o),
(68,276,cs),
(68,94,o),
(166,-12,o),
(311,-12,cs)
);
},
{
closed = 1;
nodes = (
(533,0,l),
(521,50,o),
(520,75,o),
(520,120,cs),
(520,552,l),
(473,552,l),
(476,436,l),
(476,120,ls),
(476,75,o),
(477,50,o),
(489,0,c)
);
}
);
width = 601;
},
{
layerId = m005;
shapes = (
{
closed = 1;
nodes = (
(369,-12,o),
(435,26,o),
(502,114,c),
(502,176,l),
(405,74,o),
(366,45,o),
(294,45,cs),
(204,45,o),
(129,131,o),
(129,276,cs),
(129,423,o),
(204,507,o),
(294,507,cs),
(368,507,o),
(406,483,o),
(501,376,c),
(502,438,l),
(436,526,o),
(369,564,o),
(299,564,cs),
(157,564,o),
(54,457,o),
(54,276,cs),
(54,95,o),
(156,-12,o),
(298,-12,cs)
);
},
{
closed = 1;
nodes = (
(557,0,l),
(545,47,o),
(543,74,o),
(543,120,cs),
(543,552,l),
(470,552,l),
(468,424,l),
(468,120,ls),
(468,74,o),
(470,47,o),
(482,0,c)
);
}
);
width = 611;
},
{
layerId = m006;
shapes = (
{
closed = 1;
nodes = (
(362,-12,o),
(434,21,o),
(507,95,c),
(507,192,l),
(459,144,o),
(407,97,o),
(356,97,cs),
(279,97,o),
(238,157,o),
(238,276,cs),
(238,395,o),
(279,455,o),
(356,455,cs),
(419,455,o),
(461,431,o),
(485,360,c),
(518,457,l),
(480,529,o),
(375,564,o),
(315,564,cs),
(149,564,o),
(48,444,o),
(48,276,cs),
(48,109,o),
(126,-12,o),
(293,-12,cs)
);
},
{
closed = 1;
nodes = (
(669,0,l),
(665,40,o),
(665,80,o),
(665,120,c),
(665,552,l),
(530,552,l),
(475,395,l),
(475,120,l),
(475,80,o),
(475,40,o),
(478,0,c)
);
}
);
width = 728;
}
);
},
{
glyphname = g.ss01;
lastChange = "2023-07-29 11:00:45 +0000";
layers = (
{
layerId = m002;
shapes = (
{
closed = 1;
nodes = (
(432,-228,o),
(588,-143,o),
(588,0,cs),
(588,396,l),
(588,448,o),
(588,500,o),
(588,552,c),
(456,552,l),
(438,504,o),
(412,444,o),
(396,396,c),
(396,0,ls),
(396,-72,o),
(348,-108,o),
(251,-108,cs),
(203,-108,o),
(155,-96,o),
(107,-60,c),
(59,-156,l),
(107,-192,o),
(173,-228,o),
(275,-228,cs)
);
},
{
closed = 1;
nodes = (
(300,-12,o),
(361,24,o),
(421,96,c),
(421,192,l),
(397,144,o),
(349,96,o),
(312,96,cs),
(252,96,o),
(228,156,o),
(228,276,cs),
(228,396,o),
(252,456,o),
(312,456,cs),
(361,456,o),
(397,432,o),
(397,360,c),
(433,456,l),
(409,528,o),
(312,564,o),
(264,564,cs),
(120,564,o),
(36,444,o),
(36,276,cs),
(36,108,o),
(96,-12,o),
(240,-12,cs)
);
}
);
width = 636;
},
{
layerId = "FF3CDF8C-30AF-45D8-A678-B4DEB13CF6DF";
shapes = (
{
closed = 1;
nodes = (
(361,-228,o),
(457,-151,o),
(457,0,cs),
(457,432,ls),
(457,478,o),
(459,503,o),
(469,552,c),
(397,552,l),
(387,503,o),
(385,478,o),
(385,432,cs),
(385,0,ls),
(385,-121,o),
(301,-168,o),
(241,-168,cs),
(184,-168,o),
(121,-144,o),
(85,-108,c),
(49,-156,l),
(85,-194,o),
(169,-228,o),
(241,-228,cs)
);
},
{
closed = 1;
nodes = (
(303,-12,o),
(358,23,o),
(409,120,c),
(409,180,l),
(333,74,o),
(299,48,o),
(241,48,cs),
(167,48,o),
(109,148,o),
(109,276,cs),
(109,400,o),
(167,504,o),
(241,504,cs),
(302,504,o),
(336,473,o),
(409,372,c),
(409,432,l),
(358,529,o),
(303,564,o),
(241,564,cs),
(126,564,o),
(37,437,o),
(37,276,cs),
(37,115,o),
(126,-12,o),
(241,-12,cs)
);
}
);
width = 506;
},
{
layerId = "91CAC535-5FDC-455D-97CC-19853562EC83";
shapes = (
{
closed = 1;
nodes = (
(372,-228,o),
(440,-151,o),
(440,0,cs),
(440,432,ls),
(440,478,o),
(441,503,o),
(451,552,c),
(407,552,l),
(397,503,o),
(396,478,o),
(396,432,cs),
(396,0,ls),
(396,-121,o),
(347,-188,o),
(252,-188,cs),
(187,-188,o),
(119,-160,o),
(83,-123,c),
(60,-156,l),
(96,-195,o),
(180,-228,o),
(252,-228,cs)
);
},
{
closed = 1;
nodes = (
(319,-12,o),
(373,35,o),
(429,120,c),
(429,168,l),
(340,46,o),
(309,24,o),
(247,24,cs),
(169,24,o),
(99,115,o),
(99,276,cs),
(99,442,o),
(169,528,o),
(247,528,cs),
(309,528,o),
(340,506,o),
(429,384,c),
(429,432,l),
(373,517,o),
(319,564,o),
(258,564,cs),
(136,564,o),
(55,470,o),
(55,276,cs),
(55,82,o),
(136,-12,o),
(258,-12,cs)
);
}
);
width = 506;
},
{
layerId = m004;
shapes = (
{
closed = 1;
nodes = (
(444,-228,o),
(520,-152,o),
(520,0,cs),
(520,436,ls),
(520,480,o),
(521,503,o),
(533,552,c),
(487,552,l),
(476,503,o),
(476,482,o),
(476,436,cs),
(476,0,ls),
(476,-125,o),
(420,-187,o),
(303,-187,cs),
(223,-187,o),
(140,-159,o),
(98,-123,c),
(73,-156,l),
(116,-195,o),
(217,-228,o),
(302,-228,cs)
);
},
{
closed = 1;
nodes = (
(385,-12,o),
(449,31,o),
(516,123,c),
(516,171,l),
(406,50,o),
(370,28,o),
(294,28,cs),
(199,28,o),
(112,126,o),
(112,276,cs),
(112,427,o),
(199,524,o),
(294,524,cs),
(369,524,o),
(407,497,o),
(518,381,c),
(516,429,l),
(447,521,o),
(384,564,o),
(310,564,cs),
(164,564,o),
(68,457,o),
(68,276,cs),
(68,94,o),
(166,-12,o),
(311,-12,cs)
);
}
);
width = 601;
},
{
layerId = m005;
shapes = (
{
closed = 1;
nodes = (
(441,-228,o),
(543,-149,o),
(543,0,cs),
(543,424,ls),
(543,471,o),
(545,503,o),
(557,552,c),
(483,552,l),
(470,501,o),
(468,468,o),
(468,424,cs),
(468,0,ls),
(468,-110,o),
(386,-166,o),
(295,-166,cs),
(223,-166,o),
(145,-142,o),
(102,-105,c),
(65,-156,l),
(108,-194,o),
(209,-228,o),
(296,-228,cs)
);
},
{
closed = 1;
nodes = (
(369,-12,o),
(435,26,o),
(502,114,c),
(502,176,l),
(405,74,o),
(366,45,o),
(294,45,cs),
(204,45,o),
(129,131,o),
(129,276,cs),
(129,423,o),
(204,507,o),
(294,507,cs),
(368,507,o),
(406,483,o),
(501,376,c),
(502,438,l),
(436,526,o),
(369,564,o),
(299,564,cs),
(157,564,o),
(54,457,o),
(54,276,cs),
(54,95,o),
(156,-12,o),
(298,-12,cs)
);
}
);
width = 611;
},
{
layerId = m006;
shapes = (
{
closed = 1;
nodes = (
(501,-228,o),
(665,-143,o),
(665,0,cs),
(665,395,l),
(665,447,o),
(665,500,o),
(669,552,c),
(533,552,l),
(514,504,o),
(490,443,o),
(475,395,c),
(475,0,ls),
(475,-71,o),
(415,-107,o),
(301,-107,cs),
(244,-107,o),
(179,-97,o),
(122,-59,c),
(71,-156,l),
(124,-191,o),
(208,-228,o),
(323,-228,cs)
);
},
{
closed = 1;
nodes = (
(362,-12,o),
(434,21,o),
(507,95,c),
(507,192,l),
(459,144,o),
(407,97,o),
(356,97,cs),
(279,97,o),
(238,157,o),
(238,276,cs),
(238,395,o),
(279,455,o),
(356,455,cs),
(419,455,o),
(461,431,o),
(485,360,c),
(518,457,l),
(480,529,o),
(375,564,o),
(315,564,cs),
(149,564,o),
(48,444,o),
(48,276,cs),
(48,109,o),
(126,-12,o),
(293,-12,cs)
);
}
);
width = 728;
}
);
},
{
glyphname = zero;
lastChange = "2023-07-29 11:00:45 +0000";
layers = (
{
layerId = "FF3CDF8C-30AF-45D8-A678-B4DEB13CF6DF";
shapes = (
{
closed = 1;
nodes = (
(435,-12,o),
(538,148,o),
(538,384,cs),
(538,620,o),
(435,780,o),
(286,780,cs),
(137,780,o),
(34,620,o),
(34,384,cs),
(34,148,o),
(137,-12,o),
(286,-12,cs)
);
},
{
closed = 1;
nodes = (
(180,60,o),
(118,181,o),
(118,385,cs),
(118,588,o),
(180,708,o),
(286,708,cs),
(392,708,o),
(454,588,o),
(454,385,cs),
(454,181,o),
(392,60,o),
(286,60,cs)
);
}
);
width = 572;
},
{
layerId = m002;
shapes = (
{
closed = 1;
nodes = (
(553,-12,o),
(684,148,o),
(684,384,cs),
(684,620,o),
(553,780,o),
(360,780,cs),
(167,780,o),
(36,620,o),
(36,384,cs),
(36,148,o),
(167,-12,o),
(360,-12,cs)
);
},
{
closed = 1;
nodes = (
(281,144,o),
(252,209,o),
(252,384,cs),
(252,559,o),
(281,624,o),
(360,624,cs),
(439,624,o),
(468,559,o),
(468,384,cs),
(468,209,o),
(439,144,o),
(360,144,cs)
);
}
);
width = 720;
},
{
layerId = "91CAC535-5FDC-455D-97CC-19853562EC83";
shapes = (
{
closed = 1;
nodes = (
(438,-12,o),
(535,148,o),
(535,384,cs),
(535,620,o),
(438,780,o),
(295,780,cs),
(152,780,o),
(55,620,o),
(55,384,cs),
(55,148,o),
(152,-12,o),
(295,-12,cs)
);
},
{
closed = 1;
nodes = (
(171,28,o),
(99,161,o),
(99,385,cs),
(99,608,o),
(171,740,o),
(295,740,cs),
(419,740,o),
(491,608,o),
(491,385,cs),
(491,161,o),
(419,28,o),
(295,28,cs)
);
}
);
width = 590;
},
{
layerId = m004;
shapes = (
{
closed = 1;
nodes = (
(520,-12,o),
(634,149,o),
(634,384,cs),
(634,619,o),
(520,780,o),
(351,780,cs),
(182,780,o),
(68,619,o),
(68,384,cs),
(68,149,o),
(182,-12,o),
(351,-12,cs)
);
},
{
closed = 1;
nodes = (
(199,31,o),
(110,166,o),
(110,385,cs),
(110,603,o),
(199,737,o),
(351,737,cs),
(504,737,o),
(593,603,o),
(593,385,cs),
(593,166,o),
(504,31,o),
(351,31,cs)
);
}
);
width = 702;
},
{
layerId = m005;
shapes = (
{
closed = 1;
nodes = (
(527,-12,o),
(648,149,o),
(648,384,cs),
(648,619,o),
(527,780,o),
(350,780,cs),
(173,780,o),
(52,620,o),
(52,384,cs),
(52,148,o),
(173,-12,o),
(350,-12,cs)
);
},
{
closed = 1;
nodes = (
(214,61,o),
(135,176,o),
(135,385,cs),
(135,593,o),
(214,707,o),
(350,707,cs),
(485,707,o),
(564,593,o),
(564,385,cs),
(564,176,o),
(485,61,o),
(350,61,cs)
);
}
);
width = 700;
},
{
layerId = m006;
shapes = (
{
closed = 1;
nodes = (
(631,-12,o),
(779,148,o),
(779,384,cs),
(779,620,o),
(631,780,o),
(413,780,cs),
(195,780,o),
(47,620,o),
(47,384,cs),
(47,148,o),
(195,-12,o),
(413,-12,cs)
);
},
{
closed = 1;
nodes = (
(306,146,o),
(260,211,o),
(260,384,cs),
(260,557,o),
(306,622,o),
(413,622,cs),
(520,622,o),
(566,557,o),
(566,384,cs),
(566,211,o),
(520,146,o),
(413,146,cs)
);
}
);
width = 826;
}
);
unicode = 48;
},
{
glyphname = one;
lastChange = "2023-07-29 11:00:45 +0000";
layers = (
{
layerId = "FF3CDF8C-30AF-45D8-A678-B4DEB13CF6DF";
shapes = (
{
closed = 1;
nodes = (
(377,0,l),
(377,72,l),
(233,72,l),
(257,48,l),
(257,768,l),
(196,768,l),
(52,708,l),
(52,648,l),
(221,684,l),
(172,684,l),
(172,48,l),
(196,72,l),
(52,72,l),
(52,0,l)
);
}
);
width = 429;
},
{
layerId = m002;
shapes = (
{
closed = 1;
nodes = (
(492,0,l),
(492,156,l),
(324,156,l),
(372,108,l),
(372,768,l),
(276,768,l),
(48,648,l),
(48,516,l),
(216,552,l),
(168,552,l),
(168,108,l),
(216,156,l),
(48,156,l),
(48,0,l)
);
}
);
width = 540;
},
{
layerId = "91CAC535-5FDC-455D-97CC-19853562EC83";
shapes = (
{
closed = 1;
nodes = (
(374,0,l),
(374,40,l),
(231,40,l),
(242,16,l),
(242,768,l),
(198,768,l),
(33,668,l),
(54,636,l),
(223,732,l),
(198,732,l),
(198,16,l),
(209,40,l),
(66,40,l),
(66,0,l)
);
}
);
width = 440;
},
{
layerId = m004;
shapes = (
{
closed = 1;
nodes = (
(443,0,l),
(443,43,l),
(273,43,l),
(284,21,l),
(284,768,l),
(234,768,l),
(38,689,l),
(66,654,l),
(269,729,l),
(241,729,l),
(241,21,l),
(252,43,l),
(81,43,l),
(81,0,l)
);
}
);
width = 524;
},
{
layerId = m005;
shapes = (
{
closed = 1;
nodes = (
(454,0,l),
(454,73,l),
(281,73,l),
(304,44,l),
(304,768,l),
(238,768,l),
(53,672,l),
(64,611,l),
(267,681,l),
(220,681,l),
(220,44,l),
(243,73,l),
(70,73,l),
(70,0,l)
);
}
);
width = 523;
},
{
layerId = m006;
shapes = (
{
closed = 1;
nodes = (
(557,0,l),
(557,158,l),
(362,158,l),
(410,110,l),
(410,768,l),
(309,768,l),
(54,647,l),
(59,513,l),
(261,549,l),
(208,549,l),
(208,110,l),
(256,158,l),
(62,158,l),
(62,0,l)
);
}
);
width = 619;
}
);
unicode = 49;
},
{
glyphname = two;
lastChange = "2023-07-29 11:00:45 +0000";
layers = (
{
layerId = "FF3CDF8C-30AF-45D8-A678-B4DEB13CF6DF";
shapes = (
{
closed = 1;
nodes = (
(515,0,l),
(515,72,l),
(107,72,l),
(131,48,l),
(131,132,o),
(323,275,o),
(407,348,cs),
(476,408,o),
(515,456,o),
(515,564,c),
(515,684,o),
(431,780,o),
(311,780,cs),
(179,780,o),
(107,708,o),
(59,552,c),
(143,528,l),
(167,648,o),
(227,708,o),
(299,708,cs),
(383,708,o),
(431,636,o),
(431,540,cs),
(431,492,o),
(399,437,o),
(348,396,cs),
(263,326,o),
(47,160,o),
(47,36,c),
(47,0,l)
);
}
);
width = 550;
},
{
layerId = m002;
shapes = (
{
closed = 1;
nodes = (
(648,0,l),
(648,180,l),
(276,180,l),
(276,156,l),
(364,224,o),
(452,292,o),
(540,360,cs),
(592,400,o),
(648,459,o),
(648,552,c),
(648,643,o),
(589,780,o),
(360,780,cs),
(130,779,o),
(72,624,o),
(48,588,c),
(197,504,l),
(233,574,o),
(275,636,o),
(341,636,cs),
(409,635,o),
(432,583,o),
(432,540,cs),
(432,499,o),
(405,445,o),
(349,396,cs),
(249,308,o),
(148,220,o),
(48,132,c),
(48,0,l)
);
}
);
width = 696;
},
{
layerId = "91CAC535-5FDC-455D-97CC-19853562EC83";
shapes = (
{
closed = 1;
nodes = (
(495,0,l),
(495,40,l),
(74,40,l),
(106,16,l),
(106,135,o),
(271,244,o),
(404,360,cs),
(472,419,o),
(506,456,o),
(506,564,c),
(506,685,o),
(419,780,o),
(308,780,cs),
(189,780,o),
(108,711,o),
(66,576,c),
(110,564,l),
(130,669,o),
(205,740,o),
(296,740,cs),
(395,740,o),
(462,669,o),
(462,564,cs),
(462,451,o),
(396,404,o),
(345,362,cs),
(260,292,o),
(66,168,o),
(66,24,c),
(66,0,l)
);
}
);
width = 572;
},
{
layerId = m004;
shapes = (
{
closed = 1;
nodes = (
(585,0,l),
(585,40,l),
(77,40,l),
(117,16,l),
(113,125,o),
(317,252,o),
(477,357,cs),
(561,412,o),
(600,456,o),
(600,565,c),
(600,689,o),
(494,780,o),
(367,780,cs),
(234,780,o),
(133,722,o),
(81,564,c),
(126,554,l),
(149,670,o),
(242,736,o),
(353,736,cs),
(474,736,o),
(558,663,o),
(558,555,cs),
(558,466,o),
(476,416,o),
(415,375,cs),
(314,307,o),
(77,159,o),
(82,18,c),
(82,0,l)
);
}
);
width = 682;
},
{
layerId = m005;
shapes = (
{
closed = 1;
nodes = (
(611,0,l),
(611,79,l),
(115,79,l),
(148,55,l),
(150,154,o),
(323,235,o),
(489,355,cs),
(574,417,o),
(616,457,o),
(616,561,c),
(616,675,o),
(514,780,o),
(373,780,cs),
(219,780,o),
(128,691,o),
(74,574,c),
(156,543,l),
(183,643,o),
(262,710,o),
(358,710,cs),
(466,710,o),
(533,643,o),
(533,554,cs),
(533,470,o),
(476,420,o),
(418,378,cs),
(313,302,o),
(68,179,o),
(66,51,c),
(66,0,l)
);
}
);
width = 674;
},
{
layerId = m006;
shapes = (
{
closed = 1;
nodes = (
(736,0,l),
(736,183,l),
(277,183,l),
(285,159,l),
(366,226,o),
(454,269,o),
(610,360,cs),
(675,398,o),
(739,457,o),
(739,552,c),
(739,642,o),
(660,780,o),
(418,780,cs),
(172,780,o),
(98,623,o),
(63,589,c),
(214,503,l),
(253,572,o),
(312,634,o),
(397,634,cs),
(487,634,o),
(526,581,o),
(526,540,cs),
(526,501,o),
(486,447,o),
(417,395,cs),
(304,310,o),
(154,221,o),
(62,134,c),
(62,0,l)
);
}
);
width = 800;
}
);
unicode = 50;
},
{
glyphname = three;
lastChange = "2023-07-29 11:00:45 +0000";
layers = (
{
layerId = "FF3CDF8C-30AF-45D8-A678-B4DEB13CF6DF";
shapes = (
{
closed = 1;
nodes = (
(420,-12,o),
(515,81,o),
(515,216,cs),
(515,384,o),
(382,420,o),
(330,420,c),
(330,396,l),
(382,396,o),
(491,456,o),
(491,581,cs),
(491,713,o),
(382,780,o),
(267,780,cs),
(186,780,o),
(103,724,o),
(64,653,c),
(131,600,l),
(160,668,o),
(214,708,o),
(275,708,cs),
(349,708,o),
(407,656,o),
(407,588,cs),
(407,488,o),
(356,444,o),
(215,444,cs),
(205,444,o),
(184,445,o),
(164,449,c),
(164,365,l),
(184,370,o),
(215,372,o),
(226,372,cs),
(355,372,o),
(431,310,o),
(431,216,cs),
(431,151,o),
(381,60,o),
(275,60,cs),
(196,60,o),
(138,105,o),
(100,192,c),
(28,144,l),
(84,46,o),
(164,-12,o),
(263,-12,cs)
);
}
);
width = 550;
},
{
layerId = m002;
shapes = (
{
closed = 1;
nodes = (
(480,-12,o),
(648,36,o),
(648,216,cs),
(648,384,o),
(480,420,o),
(420,420,c),
(420,396,l),
(480,396,o),
(624,456,o),
(624,581,cs),
(624,713,o),
(480,780,o),
(348,780,cs),
(215,780,o),
(129,723,o),
(47,653,c),
(167,540,l),
(210,587,o),
(251,635,o),
(323,635,cs),
(385,635,o),
(413,593,o),
(413,557,cs),
(413,497,o),
(364,461,o),
(287,461,cs),
(275,461,o),
(251,463,o),
(227,468,c),
(227,311,l),
(251,316,o),
(287,317,o),
(299,317,cs),
(323,317,o),
(437,317,o),
(437,221,cs),
(437,156,o),
(384,137,o),
(323,137,cs),
(287,137,o),
(203,152,o),
(155,248,c),
(24,144,l),
(72,72,o),
(191,-12,o),
(335,-12,cs)
);
}
);
width = 684;
},
{
layerId = "91CAC535-5FDC-455D-97CC-19853562EC83";
shapes = (
{
closed = 1;
nodes = (
(408,-12,o),
(518,81,o),
(518,216,cs),
(518,384,o),
(354,412,o),
(303,412,c),
(303,388,l),
(370,388,o),
(494,446,o),
(494,581,cs),
(494,713,o),
(404,780,o),
(281,780,cs),
(204,780,o),
(154,752,o),
(94,681,c),
(128,653,l),
(179,715,o),
(216,740,o),
(291,740,cs),
(378,740,o),
(450,682,o),
(450,588,cs),
(450,487,o),
(386,419,o),
(250,422,cs),
(240,422,o),
(219,422,o),
(199,424,c),
(199,380,l),
(219,382,o),
(239,382,o),
(250,382,cs),
(445,382,o),
(473,275,o),
(473,200,cs),
(473,128,o),
(403,28,o),
(277,28,cs),
(206,28,o),
(145,72,o),
(92,142,c),
(55,116,l),
(124,28,o),
(187,-12,o),
(277,-12,cs)
);
}
);
width = 573;
},
{
layerId = m004;
shapes = (
{
closed = 1;
nodes = (
(485,-12,o),
(615,86,o),
(615,216,cs),
(615,384,o),
(417,415,o),
(356,415,c),
(356,391,l),
(438,391,o),
(586,450,o),
(586,581,cs),
(586,713,o),
(482,780,o),
(335,780,cs),
(244,780,o),
(187,740,o),
(117,671,c),
(151,640,l),
(213,705,o),
(256,736,o),
(348,736,cs),
(455,736,o),
(544,679,o),
(544,591,cs),
(544,487,o),
(466,428,o),
(300,428,cs),
(282,428,o),
(260,429,o),
(240,431,c),
(240,380,l),
(262,383,o),
(285,384,o),
(299,384,cs),
(546,384,o),
(572,286,o),
(572,205,cs),
(572,136,o),
(486,31,o),
(330,31,cs),
(241,31,o),
(169,81,o),
(106,154,c),
(69,126,l),
(155,30,o),
(227,-12,o),
(330,-12,cs)
);
}
);
width = 683;
},
{
layerId = m005;
shapes = (
{
closed = 1;
nodes = (
(499,-12,o),
(622,71,o),
(622,216,cs),
(622,384,o),
(445,415,o),
(384,415,c),
(384,391,l),
(454,391,o),
(593,450,o),
(593,581,cs),
(593,713,o),
(471,780,o),
(329,780,cs),
(233,780,o),
(150,740,o),
(91,669,c),
(156,616,l),
(205,679,o),
(262,709,o),
(339,709,cs),
(434,709,o),
(510,656,o),
(510,581,cs),
(510,489,o),
(442,435,o),
(277,435,cs),
(262,435,o),
(238,436,o),
(216,439,c),
(216,361,l),
(237,364,o),
(268,365,o),
(285,365,cs),
(470,365,o),
(538,292,o),
(538,208,cs),
(538,140,o),
(468,60,o),
(332,60,cs),
(245,60,o),
(172,95,o),
(117,177,c),
(47,128,l),
(124,38,o),
(213,-12,o),
(324,-12,cs)
);
}
);
width = 674;
},
{
layerId = m006;
shapes = (
{
closed = 1;
nodes = (
(556,-12,o),
(741,35,o),
(741,216,cs),
(741,384,o),
(542,420,o),
(473,420,c),
(473,396,l),
(546,396,o),
(712,456,o),
(712,581,cs),
(712,713,o),
(553,780,o),
(398,780,cs),
(253,780,o),
(158,722,o),
(68,653,c),
(190,538,l),
(246,587,o),
(292,633,o),
(378,633,cs),
(459,633,o),
(504,591,o),
(504,556,cs),
(504,498,o),
(442,462,o),
(332,462,cs),
(318,462,o),
(291,464,o),
(263,469,c),
(263,310,l),
(291,315,o),
(329,316,o),
(344,316,cs),
(416,316,o),
(532,318,o),
(532,221,cs),
(532,156,o),
(464,139,o),
(375,139,cs),
(324,139,o),
(228,152,o),
(169,250,c),
(36,144,l),
(97,75,o),
(224,-12,o),
(385,-12,cs)
);
}
);
width = 789;
}
);
unicode = 51;
},
{
glyphname = four;
lastChange = "2023-07-29 11:00:45 +0000";
layers = (
{
layerId = "FF3CDF8C-30AF-45D8-A678-B4DEB13CF6DF";
shapes = (
{
closed = 1;
nodes = (
(452,0,l),
(452,768,l),
(332,768,l),
(44,252,l),
(44,180,l),
(572,180,l),
(572,252,l),
(116,252,l),
(116,216,l),
(392,720,l),
(368,720,l),
(368,0,l)
);
}
);
width = 616;
},
{
layerId = m002;
shapes = (
{
closed = 1;
nodes = (
(576,0,l),
(576,768,l),
(384,768,l),
(48,312,l),
(48,168,l),
(696,168,l),
(696,312,l),
(168,312,l),
(168,264,l),
(408,612,l),
(372,612,l),
(372,0,l)
);
}
);
width = 744;
},
{
layerId = "91CAC535-5FDC-455D-97CC-19853562EC83";
shapes = (
{
closed = 1;
nodes = (
(440,0,l),
(440,768,l),
(363,768,l),
(66,236,l),
(66,196,l),
(561,196,l),
(561,236,l),
(104,236,l),
(104,214,l),
(409,760,l),
(396,760,l),
(396,0,l)
);
}
);
width = 627;
},
{
layerId = m004;
shapes = (
{
closed = 1;
nodes = (
(521,0,l),
(521,768,l),
(437,768,l),
(82,235,l),
(82,192,l),
(666,192,l),
(666,235,l),
(121,235,l),
(121,210,l),
(492,757,l),
(479,757,l),
(479,0,l)
);
}
);
width = 748;
},
{
layerId = m005;
shapes = (
{
closed = 1;
nodes = (
(539,0,l),
(539,768,l),
(415,768,l),
(64,257,l),
(64,186,l),
(683,186,l),
(683,257,l),
(134,257,l),
(134,226,l),
(479,718,l),
(456,718,l),
(456,0,l)
);
}
);
width = 747;
},
{
layerId = m006;
shapes = (
{
closed = 1;
nodes = (
(654,0,l),
(654,768,l),
(454,768,l),
(62,313,l),
(62,168,l),
(798,168,l),
(798,313,l),
(185,313,l),
(185,265,l),
(489,609,l),
(452,609,l),
(452,0,l)
);
}
);
width = 860;
}
);
unicode = 52;
},
{
glyphname = five;
lastChange = "2023-07-29 11:00:45 +0000";
layers = (
{
layerId = "FF3CDF8C-30AF-45D8-A678-B4DEB13CF6DF";
shapes = (
{
closed = 1;
nodes = (
(423,-12,o),
(515,95,o),
(515,252,cs),
(515,427,o),
(445,516,o),
(307,516,cs),
(232,516,o),
(194,502,o),
(143,456,c),
(155,456,l),
(167,696,l),
(467,696,l),
(472,768,l),
(100,768,l),
(71,360,l),
(148,336,l),
(180,411,o),
(224,444,o),
(294,444,cs),
(388,444,o),
(431,375,o),
(431,240,cs),
(431,140,o),
(367,60,o),
(277,60,cs),
(206,60,o),
(153,100,o),
(119,180,c),
(47,132,l),
(118,26,o),
(183,-12,o),
(288,-12,c)
);
}
);
width = 550;
},
{
layerId = m002;
shapes = (
{
closed = 1;
nodes = (
(420,-12,o),
(648,24,o),
(648,252,cs),
(648,468,o),
(438,492,o),
(372,492,cs),
(307,492,o),
(250,485,o),
(204,444,c),
(228,444,l),
(240,588,l),
(582,588,l),
(594,768,l),
(102,768,l),
(72,389,l),
(210,311,l),
(252,334,o),
(276,348,o),
(324,348,cs),
(371,347,o),
(439,321,o),
(439,240,cs),
(439,160,o),
(362,139,o),
(324,139,cs),
(287,139,o),
(225,147,o),
(155,253,c),
(24,144,l),
(86,63,o),
(192,-12,o),
(348,-12,c)
);
}
);
width = 684;
},
{
layerId = "91CAC535-5FDC-455D-97CC-19853562EC83";
shapes = (
{
closed = 1;
nodes = (
(403,-12,o),
(517,96,o),
(517,263,cs),
(517,413,o),
(424,516,o),
(309,516,cs),
(220,516,o),
(166,483,o),
(115,432,c),
(123,432,l),
(143,728,l),
(472,728,l),
(474,768,l),
(102,768,l),
(73,360,l),
(115,347,l),
(147,422,o),
(226,476,o),
(296,476,cs),
(391,476,o),
(473,402,o),
(473,251,cs),
(473,133,o),
(387,28,o),
(279,28,cs),
(208,28,o),
(134,81,o),
(93,161,c),
(55,135,l),
(126,30,o),
(185,-12,o),
(290,-12,c)
);
}
);
width = 572;
},
{
layerId = m004;
shapes = (
{
closed = 1;
nodes = (
(481,-12,o),
(614,103,o),
(614,259,cs),
(614,414,o),
(506,519,o),
(368,519,cs),
(262,519,o),
(196,494,o),
(132,442,c),
(140,442,l),
(165,728,l),
(561,728,l),
(563,768,l),
(122,768,l),
(88,357,l),
(131,346,l),
(169,426,o),
(268,475,o),
(354,475,cs),
(470,475,o),
(572,398,o),
(572,247,cs),
(572,134,o),
(467,31,o),
(333,31,cs),
(246,31,o),
(155,83,o),
(107,160,c),
(68,133,l),
(154,25,o),
(222,-12,o),
(345,-12,c)
);
}
);
width = 682;
},
{
layerId = m005;
shapes = (
{
closed = 1;
nodes = (
(497,-12,o),
(622,79,o),
(622,258,cs),
(622,428,o),
(523,510,o),
(371,510,cs),
(274,510,o),
(220,487,o),
(159,440,c),
(171,440,l),
(190,689,l),
(566,689,l),
(570,768,l),
(121,768,l),
(86,367,l),
(162,336,l),
(201,400,o),
(272,440,o),
(355,440,cs),
(467,440,o),
(539,377,o),
(539,246,cs),
(539,141,o),
(451,60,o),
(335,60,cs),
(251,60,o),
(176,99,o),
(130,186,c),
(60,136,l),
(145,37,o),
(221,-12,o),
(348,-12,c)
);
}
);
width = 674;
},
{
layerId = m006;
shapes = (
{
closed = 1;
nodes = (
(501,-12,o),
(741,23,o),
(741,252,cs),
(741,469,o),
(522,491,o),
(429,491,cs),
(342,491,o),
(278,484,o),
(221,444,c),
(246,444,l),
(262,585,l),
(667,585,l),
(679,768,l),
(122,768,l),
(87,390,l),
(227,310,l),
(276,333,o),
(318,346,o),
(381,346,cs),
(450,346,o),
(534,320,o),
(534,240,cs),
(534,161,o),
(441,141,o),
(376,141,cs),
(322,141,o),
(246,148,o),
(170,255,c),
(37,144,l),
(114,64,o),
(228,-12,o),
(401,-12,c)
);
}
);
width = 789;
}
);
unicode = 53;
},
{
glyphname = six;
lastChange = "2023-07-29 11:00:45 +0000";
layers = (
{
layerId = "FF3CDF8C-30AF-45D8-A678-B4DEB13CF6DF";
shapes = (
{
closed = 1;
nodes = (
(422,-12,o),
(515,91,o),
(515,240,cs),
(515,399,o),
(442,480,o),
(299,480,cs),
(210,480,o),
(134,435,o),
(95,360,c),
(95,252,l),
(163,367,o),
(214,408,o),
(287,408,cs),
(382,408,o),
(431,353,o),
(431,240,cs),
(431,127,o),
(378,60,o),
(287,60,cs),
(170,60,o),
(119,158,o),
(119,384,cs),
(119,572,o),
(215,708,o),
(323,708,cs),
(359,708,o),
(402,705,o),
(443,660,c),
(491,720,l),
(443,768,o),
(395,780,o),
(323,780,cs),
(156,780,o),
(35,596,o),
(35,360,cs),
(36,72,o),
(167,-12,o),
(287,-12,cs)
);
}
);
width = 550;
},
{
layerId = m002;
shapes = (
{
closed = 1;
nodes = (
(480,-12,o),
(660,60,o),
(660,240,cs),
(660,432,o),
(504,480,o),
(420,480,cs),
(336,480,o),
(252,437,o),
(204,408,c),
(204,276,l),
(264,317,o),
(304,336,o),
(353,336,cs),
(403,336,o),
(456,303,o),
(456,240,cs),
(456,177,o),
(408,130,o),
(353,130,cs),
(299,130,o),
(240,168,o),
(240,372,cs),
(240,576,o),
(300,636,o),
(365,636,cs),
(431,636,o),
(449,587,o),
(461,545,c),
(629,600,l),
(588,696,o),
(528,780,o),
(372,780,cs),
(216,780,o),
(36,647,o),
(36,360,cs),
(37,72,o),
(240,-12,o),
(360,-12,cs)
);
}
);
width = 696;
},
{
layerId = "91CAC535-5FDC-455D-97CC-19853562EC83";
shapes = (
{
closed = 1;
nodes = (
(438,-12,o),
(527,91,o),
(527,240,cs),
(527,399,o),
(429,480,o),
(296,480,cs),
(186,480,o),
(120,387,o),
(91,312,c),
(102,234,l),
(131,359,o),
(219,440,o),
(296,440,cs),
(412,440,o),
(483,375,o),
(483,241,cs),
(483,107,o),
(414,28,o),
(303,28,cs),
(177,28,o),
(99,116,o),
(99,384,c),
(99,562,o),
(201,740,o),
(329,740,cs),
(376,740,o),
(429,719,o),
(470,674,c),
(500,707,l),
(452,755,o),
(401,780,o),
(329,780,cs),
(173,780,o),
(55,596,o),
(55,360,cs),
(55,56,o),
(190,-12,o),
(303,-12,cs)
);
}
);
width = 582;
},
{
layerId = m004;
shapes = (
{
closed = 1;
nodes = (
(524,-12,o),
(627,94,o),
(627,240,cs),
(627,395,o),
(511,480,o),
(349,480,cs),
(216,480,o),
(137,406,o),
(103,324,c),
(118,238,l),
(148,366,o),
(258,436,o),
(353,436,cs),
(497,436,o),
(584,372,o),
(584,241,cs),
(584,109,o),
(499,32,o),
(362,32,cs),
(207,32,o),
(110,130,o),
(110,385,c),
(110,565,o),
(235,736,o),
(393,736,cs),
(453,736,o),
(517,725,o),
(566,681,c),
(594,724,l),
(535,768,o),
(473,780,o),
(393,780,cs),
(207,780,o),
(68,591,o),
(68,360,cs),
(68,62,o),
(227,-12,o),
(362,-12,cs)
);
}
);
width = 695;
},
{
layerId = m005;
shapes = (
{
closed = 1;
nodes = (
(515,-12,o),
(627,84,o),
(627,240,cs),
(627,406,o),
(525,480,o),
(360,480,cs),
(241,480,o),
(155,407,o),
(114,344,c),
(120,247,l),
(182,352,o),
(262,410,o),
(350,410,cs),
(474,410,o),
(544,354,o),
(544,241,cs),
(544,127,o),
(472,58,o),
(354,58,cs),
(210,58,o),
(135,137,o),
(135,381,cs),
(135,567,o),
(252,710,o),
(391,710,cs),
(441,710,o),
(498,686,o),
(546,642,c),
(597,685,l),
(537,747,o),
(476,780,o),
(392,780,cs),
(197,780,o),
(52,607,o),
(52,360,cs),
(52,63,o),
(214,-12,o),
(354,-12,cs)
);
}
);
width = 679;
},
{
layerId = m006;
shapes = (
{
closed = 1;
nodes = (
(563,-12,o),
(755,59,o),
(755,240,cs),
(755,433,o),
(584,480,o),
(470,480,cs),
(365,480,o),
(270,439,o),
(214,409,c),
(216,277,l),
(283,317,o),
(343,334,o),
(408,334,cs),
(484,334,o),
(553,302,o),
(553,240,cs),
(553,178,o),
(489,132,o),
(409,132,cs),
(325,132,o),
(250,169,o),
(250,372,cs),
(250,576,o),
(334,634,o),
(428,634,cs),
(500,634,o),
(530,588,o),
(555,542,c),
(719,598,l),
(666,698,o),
(596,780,o),
(435,780,cs),
(247,780,o),
(48,648,o),
(48,360,cs),
(48,72,o),
(274,-12,o),
(416,-12,cs)
);
}
);
width = 803;
}
);
unicode = 54;
},
{
glyphname = seven;
lastChange = "2023-07-29 11:00:45 +0000";
layers = (
{
layerId = "FF3CDF8C-30AF-45D8-A678-B4DEB13CF6DF";
shapes = (
{
closed = 1;
nodes = (
(214,0,l),
(282,156,o),
(404,444,o),
(515,720,c),
(515,768,l),
(46,768,l),
(46,696,l),
(431,696,l),
(431,732,l),
(345,528,o),
(185,156,o),
(118,0,c)
);
}
);
width = 561;
},
{
layerId = m002;
shapes = (
{
closed = 1;
nodes = (
(384,0,l),
(384,156,o),
(432,384,o),
(612,660,c),
(612,768,l),
(48,768,l),
(36,588,l),
(420,588,l),
(420,624,l),
(288,420,o),
(144,156,o),
(144,0,c)
);
}
);
width = 660;
},
{
layerId = "91CAC535-5FDC-455D-97CC-19853562EC83";
shapes = (
{
closed = 1;
nodes = (
(192,0,l),
(260,156,o),
(389,452,o),
(506,728,c),
(506,768,l),
(66,768,l),
(66,728,l),
(469,728,l),
(469,752,l),
(383,548,o),
(211,156,o),
(144,0,c)
);
}
);
width = 572;
},
{
layerId = m004;
shapes = (
{
closed = 1;
nodes = (
(219,0,l),
(304,156,o),
(463,455,o),
(601,731,c),
(601,768,l),
(81,768,l),
(82,728,l),
(567,728,l),
(567,756,l),
(466,552,o),
(258,156,o),
(174,0,c)
);
}
);
width = 682;
},
{
layerId = m005;
shapes = (
{
closed = 1;
nodes = (
(249,0,l),
(329,156,o),
(477,435,o),
(615,711,c),
(615,768,l),
(65,768,l),
(65,689,l),
(536,689,l),
(536,719,l),
(432,515,o),
(234,156,o),
(155,0,c)
);
}
);
width = 680;
},
{
layerId = m006;
shapes = (
{
closed = 1;
nodes = (
(409,0,l),
(428,156,o),
(508,383,o),
(706,659,c),
(706,768,l),
(62,768,l),
(51,585,l),
(516,585,l),
(516,622,l),
(371,418,o),
(191,156,o),
(172,0,c)
);
}
);
width = 768;
}
);
unicode = 55;
},
{
glyphname = eight;
lastChange = "2023-07-29 11:00:45 +0000";
layers = (
{
layerId = "FF3CDF8C-30AF-45D8-A678-B4DEB13CF6DF";
shapes = (
{
closed = 1;
nodes = (
(447,-12,o),
(550,75,o),
(550,204,cs),
(550,372,o),
(384,408,o),
(334,432,c),
(334,396,l),
(384,420,o),
(520,452,o),
(520,588,cs),
(520,703,o),
(427,780,o),
(292,780,cs),
(152,780,o),
(69,708,o),
(69,587,cs),
(69,455,o),
(176,420,o),
(225,396,c),
(225,420,l),
(176,396,o),
(33,336,o),
(33,204,cs),
(33,75,o),
(140,-12,o),
(298,-12,cs)
);
},
{
closed = 1;
nodes = (
(197,60,o),
(117,123,o),
(117,204,cs),
(117,312,o),
(215,351,o),
(275,383,c),
(311,369,o),
(466,331,o),
(466,192,cs),
(466,118,o),
(391,60,o),
(298,60,cs)
);
},
{
closed = 1;
nodes = (
(225,456,o),
(153,514,o),
(153,576,cs),
(153,655,o),
(209,708,o),
(290,708,cs),
(380,708,o),
(442,659,o),
(442,588,cs),
(442,516,o),
(370,468,o),
(310,444,c)
);
}
);
width = 583;
},
{
layerId = m002;
shapes = (
{
closed = 1;
nodes = (
(468,-12,o),
(660,48,o),
(660,216,cs),
(660,384,o),
(528,420,o),
(468,444,c),
(468,408,l),
(528,432,o),
(624,480,o),
(624,576,cs),
(624,672,o),
(528,780,o),
(348,780,cs),
(168,780,o),
(48,684,o),
(48,540,cs),
(48,408,o),
(144,372,o),
(204,348,c),
(204,372,l),
(144,348,o),
(36,324,o),
(36,192,cs),
(36,84,o),
(120,-12,o),
(348,-12,cs)
);
},
{
closed = 1;
nodes = (
(288,132,o),
(228,156,o),
(228,204,cs),
(228,252,o),
(254,285,o),
(288,312,c),
(312,302,o),
(449,281,o),
(449,197,cs),
(449,161,o),
(408,132,o),
(348,132,cs)
);
},
{
closed = 1;
nodes = (
(332,495,o),
(245,523,o),
(245,564,cs),
(245,605,o),
(281,636,o),
(341,636,cs),
(401,636,o),
(444,600,o),
(444,564,cs),
(444,528,o),
(425,504,o),
(384,480,c)
);
}
);
width = 696;
},
{
layerId = "91CAC535-5FDC-455D-97CC-19853562EC83";
shapes = (
{
closed = 1;
nodes = (
(456,-12,o),
(550,66,o),
(550,192,cs),
(550,360,o),
(375,395,o),
(325,419,c),
(325,383,l),
(375,407,o),
(520,452,o),
(520,588,cs),
(520,702,o),
(439,780,o),
(303,780,cs),
(164,780,o),
(80,702,o),
(80,587,cs),
(80,455,o),
(206,417,o),
(255,393,c),
(255,417,l),
(206,393,o),
(55,336,o),
(55,204,cs),
(55,76,o),
(152,-12,o),
(309,-12,cs)
);
},
{
closed = 1;
nodes = (
(184,28,o),
(99,103,o),
(99,192,cs),
(99,324,o),
(211,349,o),
(286,383,c),
(331,368,o),
(506,348,o),
(506,180,cs),
(506,99,o),
(428,28,o),
(311,28,cs)
);
},
{
closed = 1;
nodes = (
(208,442,o),
(124,511,o),
(124,584,cs),
(124,676,o),
(188,740,o),
(299,740,cs),
(416,740,o),
(476,682,o),
(476,598,cs),
(476,513,o),
(397,456,o),
(319,428,c)
);
}
);
width = 605;
},
{
layerId = m004;
shapes = (
{
closed = 1;
nodes = (
(546,-12,o),
(654,72,o),
(654,195,cs),
(654,363,o),
(443,397,o),
(382,422,c),
(382,386,l),
(443,411,o),
(619,449,o),
(619,589,cs),
(619,706,o),
(522,780,o),
(362,780,cs),
(198,780,o),
(98,707,o),
(98,592,cs),
(98,460,o),
(252,423,o),
(310,399,c),
(310,423,l),
(250,398,o),
(68,337,o),
(68,205,cs),
(68,75,o),
(184,-12,o),
(369,-12,cs)
);
},
{
closed = 1;
nodes = (
(214,32,o),
(111,107,o),
(111,196,cs),
(111,326,o),
(250,357,o),
(343,391,c),
(400,375,o),
(612,348,o),
(612,184,cs),
(612,101,o),
(516,32,o),
(372,32,cs)
);
},
{
closed = 1;
nodes = (
(243,443,o),
(141,511,o),
(141,582,cs),
(141,674,o),
(220,736,o),
(357,736,cs),
(502,736,o),
(575,680,o),
(575,597,cs),
(575,514,o),
(479,457,o),
(380,430,c)
);
}
);
width = 722;
},
{
layerId = m005;
shapes = (
{
closed = 1;
nodes = (
(542,-12,o),
(663,64,o),
(663,200,cs),
(663,367,o),
(458,404,o),
(399,427,c),
(399,391,l),
(459,415,o),
(626,458,o),
(626,585,cs),
(626,695,o),
(521,780,o),
(357,780,cs),
(189,780,o),
(88,699,o),
(88,576,cs),
(88,444,o),
(226,407,o),
(285,383,c),
(285,407,l),
(226,383,o),
(51,333,o),
(51,201,cs),
(51,78,o),
(173,-12,o),
(364,-12,cs)
);
},
{
closed = 1;
nodes = (
(232,58,o),
(134,119,o),
(134,197,cs),
(134,305,o),
(257,335,o),
(336,367,c),
(384,353,o),
(579,329,o),
(579,186,cs),
(579,117,o),
(488,58,o),
(365,58,cs)
);
},
{
closed = 1;
nodes = (
(264,457,o),
(171,514,o),
(171,578,cs),
(171,656,o),
(243,710,o),
(354,710,cs),
(474,710,o),
(548,659,o),
(548,588,cs),
(548,518,o),
(461,470,o),
(378,443,c)
);
}
);
width = 714;
},
{
layerId = m006;
shapes = (
{
closed = 1;
nodes = (
(558,-12,o),
(761,48,o),
(761,216,cs),
(761,384,o),
(593,419,o),
(522,444,c),
(522,408,l),
(591,432,o),
(719,480,o),
(719,576,cs),
(719,671,o),
(608,780,o),
(404,780,cs),
(201,780,o),
(66,684,o),
(66,539,cs),
(66,407,o),
(188,371,o),
(257,347,c),
(257,371,l),
(188,347,o),
(47,324,o),
(47,192,cs),
(47,84,o),
(152,-12,o),
(406,-12,cs)
);
},
{
closed = 1;
nodes = (
(317,134,o),
(238,157,o),
(238,204,cs),
(238,250,o),
(289,282,o),
(344,311,c),
(378,301,o),
(552,280,o),
(552,197,cs),
(552,162,o),
(492,134,o),
(406,134,cs)
);
},
{
closed = 1;
nodes = (
(364,496,o),
(261,523,o),
(261,564,cs),
(261,604,o),
(313,634,o),
(397,634,cs),
(484,634,o),
(540,598,o),
(540,563,cs),
(540,529,o),
(503,506,o),
(442,481,c)
);
}
);
width = 808;
}
);
unicode = 56;
},
{
glyphname = nine;
lastChange = "2023-07-29 11:00:45 +0000";
layers = (
{
layerId = "FF3CDF8C-30AF-45D8-A678-B4DEB13CF6DF";
shapes = (
{
closed = 1;
nodes = (
(394,-12,o),
(515,172,o),
(515,408,cs),
(514,696,o),
(383,780,o),
(263,780,cs),
(128,780,o),
(35,677,o),
(35,528,cs),
(35,369,o),
(108,288,o),
(251,288,cs),
(340,288,o),
(416,333,o),
(455,408,c),
(455,516,l),
(387,401,o),
(336,360,o),
(263,360,cs),
(168,360,o),
(119,415,o),
(119,528,cs),
(119,641,o),
(172,708,o),
(263,708,cs),
(380,708,o),
(431,610,o),
(431,384,cs),
(431,196,o),
(335,60,o),
(227,60,cs),
(191,60,o),
(148,63,o),
(107,108,c),
(59,48,l),
(107,0,o),
(155,-12,o),
(227,-12,cs)
);
}
);
width = 550;
},
{
layerId = m002;
shapes = (
{
closed = 1;
nodes = (
(480,-12,o),
(660,121,o),
(660,408,cs),
(659,696,o),
(456,780,o),
(336,780,cs),
(216,780,o),
(36,708,o),
(36,528,cs),
(36,336,o),
(192,288,o),
(276,288,cs),
(360,288,o),
(444,331,o),
(492,360,c),
(492,492,l),
(432,451,o),
(392,432,o),
(343,432,cs),
(293,432,o),
(240,465,o),
(240,528,cs),
(240,591,o),
(288,638,o),
(343,638,cs),
(397,638,o),
(456,600,o),
(456,396,cs),
(456,192,o),
(396,132,o),
(331,132,cs),
(265,132,o),
(247,181,o),
(235,223,c),
(67,168,l),
(108,72,o),
(168,-12,o),
(324,-12,cs)
);
}
);
width = 696;
},
{
layerId = "91CAC535-5FDC-455D-97CC-19853562EC83";
shapes = (
{
closed = 1;
nodes = (
(409,-12,o),
(527,172,o),
(527,408,cs),
(527,712,o),
(392,780,o),
(279,780,cs),
(144,780,o),
(55,677,o),
(55,528,cs),
(55,369,o),
(153,288,o),
(286,288,cs),
(396,288,o),
(462,381,o),
(491,456,c),
(480,534,l),
(451,409,o),
(363,328,o),
(286,328,cs),
(170,328,o),
(99,393,o),
(99,527,cs),
(99,661,o),
(168,740,o),
(279,740,cs),
(405,740,o),
(483,652,o),
(483,384,c),
(483,206,o),
(381,28,o),
(253,28,cs),
(206,28,o),
(153,49,o),
(112,94,c),
(82,61,l),
(130,13,o),
(181,-12,o),
(253,-12,cs)
);
}
);
width = 582;
},
{
layerId = m004;
shapes = (
{
closed = 1;
nodes = (
(488,-12,o),
(627,177,o),
(627,408,cs),
(627,706,o),
(468,780,o),
(333,780,cs),
(170,780,o),
(68,673,o),
(68,528,cs),
(68,372,o),
(185,288,o),
(346,288,cs),
(483,288,o),
(559,367,o),
(591,444,c),
(577,530,l),
(546,400,o),
(435,332,o),
(342,332,cs),
(198,332,o),
(110,396,o),
(110,527,cs),
(110,659,o),
(195,736,o),
(333,736,cs),
(488,736,o),
(584,637,o),
(584,383,c),
(584,203,o),
(459,32,o),
(301,32,cs),
(242,32,o),
(178,43,o),
(129,87,c),
(100,44,l),
(159,0,o),
(221,-12,o),
(302,-12,cs)
);
}
);
width = 695;
},
{
layerId = m005;
shapes = (
{
closed = 1;
nodes = (
(482,-12,o),
(627,160,o),
(627,408,cs),
(627,705,o),
(465,780,o),
(325,780,cs),
(164,780,o),
(52,684,o),
(52,528,cs),
(52,362,o),
(154,288,o),
(319,288,cs),
(438,288,o),
(524,361,o),
(565,424,c),
(559,521,l),
(495,412,o),
(414,358,o),
(329,358,cs),
(205,358,o),
(135,414,o),
(135,527,cs),
(135,641,o),
(207,710,o),
(325,710,cs),
(469,710,o),
(544,631,o),
(544,387,cs),
(544,201,o),
(427,58,o),
(288,58,cs),
(238,58,o),
(182,82,o),
(134,126,c),
(82,83,l),
(142,21,o),
(203,-12,o),
(288,-12,cs)
);
}
);
width = 679;
},
{
layerId = m006;
shapes = (
{
closed = 1;
nodes = (
(556,-12,o),
(755,120,o),
(755,408,cs),
(755,696,o),
(529,780,o),
(387,780,cs),
(240,780,o),
(48,709,o),
(48,528,cs),
(48,335,o),
(218,288,o),
(333,288,cs),
(436,288,o),
(531,328,o),
(589,359,c),
(586,491,l),
(519,451,o),
(460,434,o),
(395,434,cs),
(318,434,o),
(250,466,o),
(250,528,cs),
(250,590,o),
(313,636,o),
(393,636,cs),
(478,636,o),
(553,599,o),
(553,396,cs),
(553,192,o),
(469,134,o),
(375,134,cs),
(303,134,o),
(273,180,o),
(248,226,c),
(84,170,l),
(134,75,o),
(203,-12,o),
(368,-12,cs)
);
}
);
width = 803;
}
);
unicode = 57;
},
{
glyphname = period;
lastChange = "2023-07-29 11:00:45 +0000";
layers = (
{
hints = (
{
horizontal = 1;
origin = (0,3);
target = (0,2);
type = Stem;
},
{
origin = (0,3);
target = (0,0);
type = Stem;
}
);
layerId = "FF3CDF8C-30AF-45D8-A678-B4DEB13CF6DF";
shapes = (
{
closed = 1;
nodes = (
(158,0,l),
(158,96,l),
(62,96,l),
(62,0,l)
);
}
);
width = 220;
},
{
hints = (
{
horizontal = 1;
origin = (0,3);
target = (0,2);
type = Stem;
},
{
origin = (0,3);
target = (0,0);
type = Stem;
}
);
layerId = m002;
shapes = (
{
closed = 1;
nodes = (
(264,0,l),
(264,216,l),
(48,216,l),
(48,0,l)
);
}
);
width = 312;
},
{
hints = (
{
horizontal = 1;
origin = (0,3);
target = (0,2);
type = Stem;
},
{
origin = (0,3);
target = (0,0);
type = Stem;
}
);
layerId = "91CAC535-5FDC-455D-97CC-19853562EC83";
shapes = (
{
closed = 1;
nodes = (
(132,0,l),
(132,96,l),
(66,96,l),
(66,0,l)
);
}
);
width = 198;
},
{
hints = (
{
horizontal = 1;
origin = (0,3);
target = (0,2);
type = Stem;
},
{
origin = (0,3);
target = (0,0);
type = Stem;
}
);
layerId = m004;
shapes = (
{
closed = 1;
nodes = (
(150,0,l),
(150,83,l),
(80,83,l),
(80,0,l)
);
}
);
width = 230;
},
{
hints = (
{
horizontal = 1;
origin = (0,3);
target = (0,2);
type = Stem;
},
{
origin = (0,3);
target = (0,0);
type = Stem;
}
);
layerId = m005;
shapes = (
{
closed = 1;
nodes = (
(179,0,l),
(179,124,l),
(76,124,l),
(76,0,l)
);
}
);
width = 255;
},
{
hints = (
{
horizontal = 1;
origin = (0,3);
target = (0,2);
type = Stem;
},
{
origin = (0,3);
target = (0,0);
type = Stem;
}
);
layerId = m006;
shapes = (
{
closed = 1;
nodes = (
(281,0,l),
(281,219,l),
(62,219,l),
(62,0,l)
);
}
);
width = 343;
}
);
unicode = 46;
},
{
glyphname = comma;
lastChange = "2023-07-29 11:00:45 +0000";
layers = (
{
layerId = "FF3CDF8C-30AF-45D8-A678-B4DEB13CF6DF";
shapes = (
{
closed = 1;
nodes = (
(98,-96,l),
(118,-60,o),
(138,-24,o),
(158,12,c),
(158,96,l),
(62,96,l),
(62,0,l),
(98,0,l),
(86,-32,o),
(74,-64,o),
(62,-96,c)
);
}
);
width = 220;
},
{
layerId = m002;
shapes = (
{
closed = 1;
nodes = (
(120,-168,l),
(168,-108,o),
(216,-48,o),
(264,12,c),
(264,216,l),
(48,216,l),
(48,0,l),
(120,0,l),
(96,-56,o),
(72,-112,o),
(48,-168,c)
);
}
);
width = 312;
},
{
layerId = "91CAC535-5FDC-455D-97CC-19853562EC83";
shapes = (
{
closed = 1;
nodes = (
(55,-166,l),
(96,-133,o),
(132,-76,o),
(132,11,c),
(132,88,l),
(66,88,l),
(66,0,l),
(88,0,l),
(88,-81,o),
(62,-115,o),
(33,-144,c)
);
}
);
width = 198;
},
{
layerId = m004;
shapes = (
{
closed = 1;
nodes = (
(60,-133,l),
(110,-102,o),
(154,-55,o),
(150,11,c),
(150,78,l),
(80,78,l),
(80,0,l),
(104,0,l),
(106,-61,o),
(73,-92,o),
(37,-119,c)
);
}
);
width = 230;
},
{
layerId = m005;
shapes = (
{
closed = 1;
nodes = (
(96,-152,l),
(131,-112,o),
(164,-59,o),
(178,11,c),
(178,119,l),
(76,119,l),
(76,0,l),
(113,0,l),
(104,-65,o),
(82,-104,o),
(59,-140,c)
);
}
);
width = 254;
},
{
layerId = m006;
shapes = (
{
closed = 1;
nodes = (
(128,-169,l),
(183,-108,o),
(236,-48,o),
(281,12,c),
(281,219,l),
(63,219,l),
(63,0,l),
(136,0,l),
(113,-56,o),
(84,-112,o),
(55,-169,c)
);
}
);
width = 343;
}
);
unicode = 44;
},
{
glyphname = colon;
lastChange = "2023-07-29 11:00:45 +0000";
layers = (
{
hints = (
{
origin = (0,3);
target = (0,0);
type = Stem;
},
{
horizontal = 1;
origin = (0,3);
target = (0,2);
type = Stem;
},
{
horizontal = 1;
origin = (1,3);
target = (1,2);
type = Stem;
}
);
layerId = "FF3CDF8C-30AF-45D8-A678-B4DEB13CF6DF";
shapes = (
{
closed = 1;
nodes = (
(158,0,l),
(158,96,l),
(62,96,l),
(62,0,l)
);
},
{
closed = 1;
nodes = (
(158,456,l),
(158,552,l),
(62,552,l),
(62,456,l)
);
}
);
width = 220;
},
{
hints = (
{
origin = (0,3);
target = (0,0);
type = Stem;
},
{
horizontal = 1;
origin = (0,3);
target = (0,2);
type = Stem;
},
{
horizontal = 1;
origin = (1,3);
target = (1,2);
type = Stem;
}
);
layerId = m002;
shapes = (
{
closed = 1;
nodes = (
(264,0,l),
(264,216,l),
(48,216,l),
(48,0,l)
);
},
{
closed = 1;
nodes = (
(264,336,l),
(264,552,l),
(48,552,l),
(48,336,l)
);
}
);
width = 312;
},
{
hints = (
{
origin = (0,3);
target = (0,0);
type = Stem;
},
{
horizontal = 1;
origin = (0,3);
target = (0,2);
type = Stem;
},
{
horizontal = 1;
origin = (1,3);
target = (1,2);
type = Stem;
}
);
layerId = "91CAC535-5FDC-455D-97CC-19853562EC83";
shapes = (
{
closed = 1;
nodes = (
(132,0,l),
(132,96,l),
(66,96,l),
(66,0,l)
);
},
{
closed = 1;
nodes = (
(132,456,l),
(132,552,l),
(66,552,l),
(66,456,l)
);
}
);
width = 198;
},
{
hints = (
{
origin = (0,3);
target = (0,0);
type = Stem;
},
{
horizontal = 1;
origin = (0,3);
target = (0,2);
type = Stem;
},
{
horizontal = 1;
origin = (1,3);
target = (1,2);
type = Stem;
}
);
layerId = m004;
shapes = (
{
closed = 1;
nodes = (
(150,0,l),
(150,83,l),
(80,83,l),
(80,0,l)
);
},
{
closed = 1;
nodes = (
(150,469,l),
(150,552,l),
(80,552,l),
(80,469,l)
);
}
);
width = 230;
},
{
hints = (
{
origin = (0,3);
target = (0,0);
type = Stem;
},
{
horizontal = 1;
origin = (0,3);
target = (0,2);
type = Stem;
},
{
horizontal = 1;
origin = (1,3);
target = (1,2);
type = Stem;
}
);
layerId = m005;
shapes = (
{
closed = 1;
nodes = (
(179,0,l),
(179,124,l),
(76,124,l),
(76,0,l)
);
},
{
closed = 1;
nodes = (
(179,428,l),
(179,552,l),
(76,552,l),
(76,428,l)
);
}
);
width = 255;
},
{
hints = (
{
origin = (0,3);
target = (0,0);
type = Stem;
},
{
horizontal = 1;
origin = (0,3);
target = (0,2);
type = Stem;
},
{
horizontal = 1;
origin = (1,3);
target = (1,2);
type = Stem;
}
);
layerId = m006;
shapes = (
{
closed = 1;
nodes = (
(281,0,l),
(281,219,l),
(62,219,l),
(62,0,l)
);
},
{
closed = 1;
nodes = (
(281,333,l),
(281,552,l),
(62,552,l),
(62,333,l)
);
}
);
width = 343;
}
);
unicode = 58;
},
{
glyphname = semicolon;
lastChange = "2023-07-29 11:00:45 +0000";
layers = (
{
layerId = "FF3CDF8C-30AF-45D8-A678-B4DEB13CF6DF";
shapes = (
{
closed = 1;
nodes = (
(98,-96,l),
(118,-60,o),
(138,-24,o),
(158,12,c),
(158,96,l),
(62,96,l),
(62,0,l),
(98,0,l),
(86,-32,o),
(74,-64,o),
(62,-96,c)
);
},
{
closed = 1;
nodes = (
(158,456,l),
(158,552,l),
(62,552,l),
(62,456,l)
);
}
);
width = 220;
},
{
layerId = m002;
shapes = (
{
closed = 1;
nodes = (
(120,-168,l),
(168,-108,o),
(216,-48,o),
(264,12,c),
(264,216,l),
(48,216,l),
(48,0,l),
(124,0,l),
(99,-56,o),
(73,-112,o),
(48,-168,c)
);
},
{
closed = 1;
nodes = (
(264,336,l),
(264,552,l),
(48,552,l),
(48,336,l)
);
}
);
width = 312;
},
{
layerId = "91CAC535-5FDC-455D-97CC-19853562EC83";
shapes = (
{
closed = 1;
nodes = (
(55,-166,l),
(96,-133,o),
(132,-76,o),
(132,11,c),
(132,88,l),
(66,88,l),
(66,0,l),
(88,0,l),
(88,-81,o),
(62,-115,o),
(33,-144,c)
);
},
{
closed = 1;
nodes = (
(132,456,l),
(132,552,l),
(66,552,l),
(66,456,l)
);
}
);
width = 198;
},
{
layerId = m004;
shapes = (
{
closed = 1;
nodes = (
(60,-133,l),
(110,-102,o),
(154,-55,o),
(150,11,c),
(150,78,l),
(80,78,l),
(80,0,l),
(103,0,l),
(105,-61,o),
(73,-92,o),
(37,-119,c)
);
},
{
closed = 1;
nodes = (
(150,469,l),
(150,552,l),
(80,552,l),
(80,469,l)
);
}
);
width = 230;
},
{
layerId = m005;
shapes = (
{
closed = 1;
nodes = (
(96,-152,l),
(131,-112,o),
(164,-59,o),
(178,11,c),
(178,119,l),
(76,119,l),
(76,0,l),
(113,0,l),
(104,-65,o),
(82,-104,o),
(59,-140,c)
);
},
{
closed = 1;
nodes = (
(178,428,l),
(178,552,l),
(76,552,l),
(76,428,l)
);
}
);
width = 254;
},
{
layerId = m006;
shapes = (
{
closed = 1;
nodes = (
(128,-169,l),
(183,-108,o),
(236,-48,o),
(281,12,c),
(281,219,l),
(63,219,l),
(63,0,l),
(139,0,l),
(115,-56,o),
(85,-112,o),
(55,-169,c)
);
},
{
closed = 1;
nodes = (
(281,333,l),
(281,552,l),
(63,552,l),
(63,333,l)
);
}
);
width = 343;
}
);
unicode = 59;
},
{
glyphname = exclam;
lastChange = "2023-07-29 11:00:45 +0000";
layers = (
{
layerId = "FF3CDF8C-30AF-45D8-A678-B4DEB13CF6DF";
shapes = (
{
closed = 1;
nodes = (
(158,0,l),
(158,96,l),
(62,96,l),
(62,0,l)
);
},
{
closed = 1;
nodes = (
(134,240,l),
(158,768,l),
(62,768,l),
(86,240,l)
);
}
);
width = 220;
},
{
layerId = m002;
shapes = (
{
closed = 1;
nodes = (
(264,0,l),
(264,216,l),
(48,216,l),
(48,0,l)
);
},
{
closed = 1;
nodes = (
(216,276,l),
(288,768,l),
(24,768,l),
(95,276,l)
);
}
);
width = 312;
},
{
layerId = "91CAC535-5FDC-455D-97CC-19853562EC83";
shapes = (
{
closed = 1;
nodes = (
(132,0,l),
(132,96,l),
(66,96,l),
(66,0,l)
);
},
{
closed = 1;
nodes = (
(121,216,l),
(132,768,l),
(66,768,l),
(77,216,l)
);
}
);
width = 198;
},
{
layerId = m004;
shapes = (
{
closed = 1;
nodes = (
(150,0,l),
(150,83,l),
(80,83,l),
(80,0,l)
);
},
{
closed = 1;
nodes = (
(139,221,l),
(149,768,l),
(81,768,l),
(91,221,l)
);
}
);
width = 230;
},
{
layerId = m005;
shapes = (
{
closed = 1;
nodes = (
(179,0,l),
(179,124,l),
(77,124,l),
(77,0,l)
);
},
{
closed = 1;
nodes = (
(156,235,l),
(180,768,l),
(76,768,l),
(99,235,l)
);
}
);
width = 256;
},
{
layerId = m006;
shapes = (
{
closed = 1;
nodes = (
(281,0,l),
(281,219,l),
(62,219,l),
(62,0,l)
);
},
{
closed = 1;
nodes = (
(233,277,l),
(303,768,l),
(40,768,l),
(109,277,l)
);
}
);
width = 343;
}
);
unicode = 33;
},
{
glyphname = question;
lastChange = "2023-07-29 11:00:45 +0000";
layers = (
{
layerId = "FF3CDF8C-30AF-45D8-A678-B4DEB13CF6DF";
shapes = (
{
closed = 1;
nodes = (
(210,252,l),
(210,288,ls),
(210,432,o),
(366,468,o),
(366,624,cs),
(366,724,o),
(295,780,o),
(210,780,cs),
(127,780,o),
(77,737,o),
(41,665,c),
(101,624,l),
(124,683,o),
(166,708,o),
(210,708,cs),
(252,708,o),
(282,674,o),
(282,624,cs),
(282,468,o),
(137,468,o),
(137,288,cs),
(137,252,l)
);
},
{
closed = 1;
nodes = (
(222,0,l),
(222,96,l),
(125,96,l),
(125,0,l)
);
}
);
width = 407;
},
{
layerId = m002;
shapes = (
{
closed = 1;
nodes = (
(396,264,l),
(396,288,ls),
(396,468,o),
(588,452,o),
(588,600,cs),
(588,696,o),
(516,780,o),
(324,780,cs),
(132,780,o),
(72,684,o),
(48,612,c),
(204,564,l),
(228,624,o),
(252,660,o),
(312,660,cs),
(360,660,o),
(384,636,o),
(384,600,cs),
(384,540,o),
(228,504,o),
(228,288,cs),
(228,264,l)
);
},
{
closed = 1;
nodes = (
(420,0,l),
(420,216,l),
(204,216,l),
(204,0,l)
);
}
);
width = 624;
},
{
layerId = "91CAC535-5FDC-455D-97CC-19853562EC83";
shapes = (
{
closed = 1;
nodes = (
(165,228,l),
(165,306,ls),
(165,398,o),
(330,468,o),
(330,624,cs),
(330,711,o),
(266,780,o),
(185,780,cs),
(125,780,o),
(79,744,o),
(44,674,c),
(79,648,l),
(104,712,o),
(136,740,o),
(185,740,cs),
(242,740,o),
(286,689,o),
(286,624,cs),
(286,468,o),
(121,446,o),
(121,288,cs),
(121,228,l)
);
},
{
closed = 1;
nodes = (
(176,0,l),
(176,96,l),
(110,96,l),
(110,0,l)
);
}
);
width = 363;
},
{
layerId = m004;
shapes = (
{
closed = 1;
nodes = (
(184,235,l),
(184,300,ls),
(184,406,o),
(381,470,o),
(381,627,cs),
(381,719,o),
(305,780,o),
(214,780,cs),
(149,780,o),
(95,746,o),
(53,676,c),
(87,646,l),
(118,709,o),
(156,734,o),
(214,734,cs),
(284,734,o),
(339,688,o),
(339,627,cs),
(339,460,o),
(139,450,o),
(139,288,cs),
(139,235,l)
);
},
{
closed = 1;
nodes = (
(197,0,l),
(197,83,l),
(127,83,l),
(127,0,l)
);
}
);
width = 420;
},
{
layerId = m005;
shapes = (
{
closed = 1;
nodes = (
(233,241,l),
(233,298,ls),
(233,421,o),
(426,464,o),
(426,618,cs),
(426,710,o),
(344,780,o),
(242,780,cs),
(151,780,o),
(93,728,o),
(51,658,c),
(112,624,l),
(140,684,o),
(184,715,o),
(242,715,cs),
(300,715,o),
(343,673,o),
(343,618,cs),
(343,485,o),
(158,464,o),
(158,288,cs),
(158,241,l)
);
},
{
closed = 1;
nodes = (
(247,0,l),
(247,124,l),
(144,124,l),
(144,0,l)
);
}
);
width = 471;
},
{
layerId = m006;
shapes = (
{
closed = 1;
nodes = (
(412,264,l),
(412,288,ls),
(412,469,o),
(635,452,o),
(635,599,cs),
(635,696,o),
(550,780,o),
(351,780,cs),
(158,780,o),
(89,685,o),
(56,611,c),
(211,563,l),
(241,625,o),
(273,659,o),
(340,659,cs),
(399,659,o),
(433,635,o),
(433,599,cs),
(433,542,o),
(244,505,o),
(244,288,cs),
(244,264,l)
);
},
{
closed = 1;
nodes = (
(438,0,l),
(438,219,l),
(219,219,l),
(219,0,l)
);
}
);
width = 678;
}
);
unicode = 63;
},
{
glyphname = bullet;
lastChange = "2023-07-29 11:00:45 +0000";
layers = (
{
layerId = "FF3CDF8C-30AF-45D8-A678-B4DEB13CF6DF";
shapes = (
{
closed = 1;
nodes = (
(196,180,o),
(239,223,o),
(239,276,cs),
(239,329,o),
(196,372,o),
(143,372,cs),
(90,372,o),
(47,329,o),
(47,276,cs),
(47,223,o),
(90,180,o),
(143,180,cs)
);
}
);
width = 286;
},
{
layerId = m002;
shapes = (
{
closed = 1;
nodes = (
(185,180,o),
(228,223,o),
(228,276,cs),
(228,329,o),
(185,372,o),
(132,372,cs),
(79,372,o),
(36,329,o),
(36,276,cs),
(36,223,o),
(79,180,o),
(132,180,cs)
);
}
);
width = 264;
},
{
layerId = "91CAC535-5FDC-455D-97CC-19853562EC83";
shapes = (
{
closed = 1;
nodes = (
(132,227,o),
(154,249,o),
(154,276,cs),
(154,303,o),
(132,326,o),
(105,326,cs),
(77,326,o),
(55,303,o),
(55,276,cs),
(55,249,o),
(77,227,o),
(105,227,cs)
);
}
);
width = 209;
},
{
layerId = m004;
shapes = (
{
closed = 1;
nodes = (
(151,210,o),
(175,240,o),
(175,276,cs),
(175,312,o),
(151,343,o),
(122,343,cs),
(91,343,o),
(67,312,o),
(67,276,cs),
(67,240,o),
(91,210,o),
(122,210,cs)
);
}
);
width = 242;
},
{
layerId = m005;
shapes = (
{
closed = 1;
nodes = (
(202,207,o),
(243,238,o),
(243,276,cs),
(243,314,o),
(202,346,o),
(152,346,cs),
(101,346,o),
(60,314,o),
(60,276,cs),
(60,238,o),
(101,207,o),
(152,207,cs)
);
}
);
width = 303;
},
{
layerId = m006;
shapes = (
{
closed = 1;
nodes = (
(210,180,o),
(257,223,o),
(257,276,cs),
(257,329,o),
(210,372,o),
(153,372,cs),
(95,372,o),
(48,329,o),
(48,276,cs),
(48,223,o),
(95,180,o),
(153,180,cs)
);
}
);
width = 305;
}
);
unicode = 8226;
},
{
glyphname = hyphen;
lastChange = "2023-07-29 11:00:45 +0000";
layers = (
{
hints = (
{
horizontal = 1;
origin = (0,3);
target = (0,2);
type = Stem;
},
{
origin = (0,3);
target = (0,0);
type = Stem;
}
);
layerId = "FF3CDF8C-30AF-45D8-A678-B4DEB13CF6DF";
shapes = (
{
closed = 1;
nodes = (
(250,264,l),
(250,324,l),
(58,324,l),
(58,264,l)
);
}
);
width = 308;
},
{
hints = (
{
horizontal = 1;
origin = (0,3);
target = (0,2);
type = Stem;
},
{
origin = (0,3);
target = (0,0);
type = Stem;
}
);
layerId = m002;
shapes = (
{
closed = 1;
nodes = (
(240,192,l),
(240,360,l),
(48,360,l),
(48,192,l)
);
}
);
width = 288;
},
{
hints = (
{
horizontal = 1;
origin = (0,3);
target = (0,2);
type = Stem;
},
{
origin = (0,3);
target = (0,0);
type = Stem;
}
);
layerId = "91CAC535-5FDC-455D-97CC-19853562EC83";
shapes = (
{
closed = 1;
nodes = (
(258,274,l),
(258,314,l),
(66,314,l),
(66,274,l)
);
}
);
width = 324;
},
{
hints = (
{
horizontal = 1;
origin = (0,3);
target = (0,2);
type = Stem;
},
{
origin = (0,3);
target = (0,0);
type = Stem;
}
);
layerId = m004;
shapes = (
{
closed = 1;
nodes = (
(311,278,l),
(311,314,l),
(81,314,l),
(81,278,l)
);
}
);
width = 392;
},
{
hints = (
{
horizontal = 1;
origin = (0,3);
target = (0,2);
type = Stem;
},
{
origin = (0,3);
target = (0,0);
type = Stem;
}
);
layerId = m005;
shapes = (
{
closed = 1;
nodes = (
(303,253,l),
(303,327,l),
(73,327,l),
(73,253,l)
);
}
);
width = 376;
},
{
hints = (
{
horizontal = 1;
origin = (0,3);
target = (0,2);
type = Stem;
},
{
origin = (0,3);
target = (0,0);
type = Stem;
}
);
layerId = m006;
shapes = (
{
closed = 1;
nodes = (
(292,190,l),
(292,361,l),
(62,361,l),
(62,190,l)
);
}
);
width = 354;
}
);
unicode = 45;
},
{
glyphname = endash;
lastChange = "2023-07-29 11:00:45 +0000";
layers = (
{
hints = (
{
horizontal = 1;
origin = (0,3);
target = (0,2);
type = Stem;
},
{
origin = (0,3);
target = (0,0);
type = Stem;
}
);
layerId = "FF3CDF8C-30AF-45D8-A678-B4DEB13CF6DF";
shapes = (
{
closed = 1;
nodes = (
(434,264,l),
(434,324,l),
(50,324,l),
(50,264,l)
);
}
);
width = 484;
},
{
hints = (
{
horizontal = 1;
origin = (0,3);
target = (0,2);
type = Stem;
},
{
origin = (0,3);
target = (0,0);
type = Stem;
}
);
layerId = m002;
shapes = (
{
closed = 1;
nodes = (
(432,192,l),
(432,360,l),
(48,360,l),
(48,192,l)
);
}
);
width = 480;
},
{
hints = (
{
horizontal = 1;
origin = (0,3);
target = (0,2);
type = Stem;
},
{
origin = (0,3);
target = (0,0);
type = Stem;
}
);
layerId = "91CAC535-5FDC-455D-97CC-19853562EC83";
shapes = (
{
closed = 1;
nodes = (
(450,274,l),
(450,314,l),
(66,314,l),
(66,274,l)
);
}
);
width = 516;
},
{
hints = (
{
horizontal = 1;
origin = (0,3);
target = (0,2);
type = Stem;
},
{
origin = (0,3);
target = (0,0);
type = Stem;
}
);
layerId = m004;
shapes = (
{
closed = 1;
nodes = (
(542,278,l),
(542,314,l),
(81,314,l),
(81,278,l)
);
}
);
width = 623;
},
{
hints = (
{
horizontal = 1;
origin = (0,3);
target = (0,2);
type = Stem;
},
{
origin = (0,3);
target = (0,0);
type = Stem;
}
);
layerId = m005;
shapes = (
{
closed = 1;
nodes = (
(529,253,l),
(529,327,l),
(68,327,l),
(68,253,l)
);
}
);
width = 597;
},
{
hints = (
{
horizontal = 1;
origin = (0,3);
target = (0,2);
type = Stem;
},
{
origin = (0,3);
target = (0,0);
type = Stem;
}
);
layerId = m006;
shapes = (
{
closed = 1;
nodes = (
(523,190,l),
(523,361,l),
(62,361,l),
(62,190,l)
);
}
);
width = 585;
}
);
unicode = 8211;
},
{
glyphname = emdash;
lastChange = "2023-07-29 11:00:45 +0000";
layers = (
{
hints = (
{
horizontal = 1;
origin = (0,3);
target = (0,2);
type = Stem;
},
{
origin = (0,3);
target = (0,0);
type = Stem;
}
);
layerId = "FF3CDF8C-30AF-45D8-A678-B4DEB13CF6DF";
shapes = (
{
closed = 1;
nodes = (
(802,264,l),
(802,324,l),
(34,324,l),
(34,264,l)
);
}
);
width = 836;
},
{
hints = (
{
horizontal = 1;
origin = (0,3);
target = (0,2);
type = Stem;
},
{
origin = (0,3);
target = (0,0);
type = Stem;
}
);
layerId = m002;
shapes = (
{
closed = 1;
nodes = (
(816,192,l),
(816,360,l),
(48,360,l),
(48,192,l)
);
}
);
width = 864;
},
{
hints = (
{
horizontal = 1;
origin = (0,3);
target = (0,2);
type = Stem;
},
{
origin = (0,3);
target = (0,0);
type = Stem;
}
);
layerId = "91CAC535-5FDC-455D-97CC-19853562EC83";
shapes = (
{
closed = 1;
nodes = (
(834,274,l),
(834,314,l),
(66,314,l),
(66,274,l)
);
}
);
width = 900;
},
{
hints = (
{
horizontal = 1;
origin = (0,3);
target = (0,2);
type = Stem;
},
{
origin = (0,3);
target = (0,0);
type = Stem;
}
);
layerId = m004;
shapes = (
{
closed = 1;
nodes = (
(1004,278,l),
(1004,314,l),
(82,314,l),
(82,278,l)
);
}
);
width = 1086;
},
{
hints = (
{
horizontal = 1;
origin = (0,3);
target = (0,2);
type = Stem;
},
{
origin = (0,3);
target = (0,0);
type = Stem;
}
);
layerId = m005;
shapes = (
{
closed = 1;
nodes = (
(979,253,l),
(979,327,l),
(57,327,l),
(57,253,l)
);
}
);
width = 1036;
},
{
hints = (
{
horizontal = 1;
origin = (0,3);
target = (0,2);
type = Stem;
},
{
origin = (0,3);
target = (0,0);
type = Stem;
}
);
layerId = m006;
shapes = (
{
closed = 1;
nodes = (
(983,190,l),
(983,361,l),
(61,361,l),
(61,190,l)
);
}
);
width = 1044;
}
);
unicode = 8212;
},
{
glyphname = parenleft;
lastChange = "2023-07-29 11:00:45 +0000";
layers = (
{
layerId = "FF3CDF8C-30AF-45D8-A678-B4DEB13CF6DF";
shapes = (
{
closed = 1;
nodes = (
(252,-60,l),
(168,81,o),
(131,220,o),
(131,384,cs),
(131,548,o),
(168,687,o),
(252,828,c),
(180,864,l),
(95,711,o),
(47,560,o),
(47,384,cs),
(47,208,o),
(95,57,o),
(180,-96,c)
);
}
);
width = 275;
},
{
layerId = m002;
shapes = (
{
closed = 1;
nodes = (
(312,-60,l),
(216,96,o),
(181,228,o),
(181,384,cs),
(181,540,o),
(216,672,o),
(312,828,c),
(193,828,l),
(108,708,o),
(36,576,o),
(36,384,cs),
(36,192,o),
(108,60,o),
(193,-60,c)
);
}
);
width = 324;
},
{
layerId = "91CAC535-5FDC-455D-97CC-19853562EC83";
shapes = (
{
closed = 1;
nodes = (
(220,-60,l),
(136,80,o),
(99,220,o),
(99,384,cs),
(99,548,o),
(136,688,o),
(220,828,c),
(188,864,l),
(103,712,o),
(55,560,o),
(55,384,cs),
(55,208,o),
(103,56,o),
(188,-96,c)
);
}
);
width = 253;
},
{
layerId = m004;
shapes = (
{
closed = 1;
nodes = (
(257,-60,l),
(155,81,o),
(112,222,o),
(112,384,cs),
(112,546,o),
(155,687,o),
(257,828,c),
(225,868,l),
(120,707,o),
(67,554,o),
(67,384,cs),
(67,214,o),
(120,61,o),
(225,-100,c)
);
}
);
width = 298;
},
{
layerId = m005;
shapes = (
{
closed = 1;
nodes = (
(287,-60,l),
(184,87,o),
(142,226,o),
(142,384,cs),
(142,549,o),
(188,687,o),
(287,828,c),
(220,856,l),
(116,708,o),
(60,561,o),
(60,384,cs),
(60,204,o),
(118,57,o),
(220,-88,c)
);
}
);
width = 319;
},
{
layerId = m006;
shapes = (
{
closed = 1;
nodes = (
(350,-60,l),
(238,97,o),
(196,229,o),
(196,384,cs),
(196,539,o),
(238,671,o),
(350,828,c),
(230,827,l),
(124,703,o),
(48,573,o),
(48,384,cs),
(48,192,o),
(128,60,o),
(230,-59,c)
);
}
);
width = 370;
}
);
note = parenleft;
unicode = 40;
},
